<mxfile host="app.diagrams.net" modified="2022-04-28T11:05:27.214Z" agent="5.0 (Windows NT 10.0; Win64; x64) AppleWebKit/537.36 (KHTML, like Gecko) Chrome/100.0.4896.127 Safari/537.36" etag="Rym4bT8HcLf3FCvptQbb" version="17.4.6" type="github">
  <diagram id="ieHyb6WnsZh-i8WqsB7O" name="Page-1">
    <mxGraphModel dx="1808" dy="526" grid="1" gridSize="10" guides="1" tooltips="1" connect="1" arrows="1" fold="1" page="1" pageScale="1" pageWidth="827" pageHeight="1169" math="0" shadow="0">
      <root>
        <mxCell id="0" />
        <mxCell id="1" parent="0" />
        <mxCell id="EQOgW9wFtIj6ZhYMa9qf-2" style="edgeStyle=orthogonalEdgeStyle;rounded=0;orthogonalLoop=1;jettySize=auto;html=1;startArrow=none;entryX=0;entryY=0.5;entryDx=0;entryDy=0;" edge="1" parent="1" source="EQOgW9wFtIj6ZhYMa9qf-7" target="EQOgW9wFtIj6ZhYMa9qf-5">
          <mxGeometry relative="1" as="geometry">
            <mxPoint x="440" y="330" as="targetPoint" />
            <Array as="points">
              <mxPoint x="355" y="300" />
            </Array>
          </mxGeometry>
        </mxCell>
        <mxCell id="EQOgW9wFtIj6ZhYMa9qf-1" value="MST_RoomScene" style="rounded=1;whiteSpace=wrap;html=1;align=right;allowArrows=1;fixDash=0;autosize=1;" vertex="1" parent="1">
          <mxGeometry x="190" y="440" width="140" height="60" as="geometry" />
        </mxCell>
        <mxCell id="EQOgW9wFtIj6ZhYMa9qf-3" value="" style="shape=image;verticalLabelPosition=bottom;labelBackgroundColor=default;verticalAlign=top;aspect=fixed;imageAspect=0;image=data:image/png,iVBORw0KGgoAAAANSUhEUgAAAMsAAADSCAYAAADkIjRgAAAAAXNSR0IArs4c6QAAAARnQU1BAACxjwv8YQUAAAAJcEhZcwAADsMAAA7DAcdvqGQAAD3aSURBVHhe7Z0JuH5VVf9PaczDT5kFHEAElEBj8CcyBiFghWNO4BAYYhEQoilB2oOSkqKEBRpRlhKgEBgCIpGgID1giAOYIjMoowpC8/2fz4LPcd3Dee897x3f9/7393nWs/fZe5+91157rT2dfc75haqqJmoqKCiYBr/4uFtQUDANirEUFPREMZaCgp4oxlJQ0BPFWAoKeqIYS0FBTxRjKSjoiWIsBQU9UYyloKAnirEUFPREMZaCgp4oxlJQ0BPFWAoKeqIYS0FBTxRjKSjoiWIsBQU9UYyloKAnirEUFPREMZaCgp4oxlJQ0BPFWAoKeqIYS0FBTxRjKSjoiWIsBQU9UYyloKAnirEUFPREMZaCgp4oxrIE8Qu/wCesfw6uf/EXH2vqJz3pSeEKw9vI6Z/85CeHv432vVznso0fVMa4YWnUoiCQlRVXmpiYqP7v//4v4v/3f/834jUawzO45h6A+z//8z+NweQyiFtvvfWqTTbZpFpxxRXj2jLFL/3SL3WWMY6gVuUr+kscWbk1HpUaP5SNAIMyDmAoGMxTnvKUaoUVVohrjONHP/pR9bOf/SzuxSAwjP/+7/+Oe0DOYymgGMsShIqPAmdlVXlxSaNRMMpgDIIw066xxhrVU5/61DCEO+64o/qP//iPSK9RHHroodWzn/3s6rTTTquuv/76atmyZdWPf/zjiDMf+FgKKMayhIBidkHj0SA0BIHyYziMGquttlq1yiqrxD0Yxn333Rfpnb696lWvqnbZZZdqq622qjbddNNq7bXXrlZeeeXqiCOOqE4++eRq3XXXre65554mvaNSu8xxRDGWJQSVvi9Q4JVWWilGAwzkoYceCkUHTq1e/vKXVy9+8YvDOLbYYotq/fXXjymYoDzK/fSnP13tv//+1dOf/vTqtttum2QcS8FQQDGWJQYUEwIoaFZSplKrr756TK1Q8P/8z/+MdQdTKo1j1113rfbaa69qm222qbbccsvqaU97Wow4xAvSmZ78yeu6666rXvCCF4SxMF1z6qUBLwWDKcayxKCxqKwYCCMHBoLS3nLLLRGu8mMQjB5bb7119dznPrfaaKONwqA0BoipFFMywsgPpVf59T/wwAPVK1/5yuryyy+PqdzDDz+8pAwFFGOZR6AkuQc2DHBtHMCv8mVkRXP+D0hPHMqY81l11VXDOBgNiKeXZ+QwD7Z5X/ayl1U77rhj9axnPat6xjOeEcZB3vI2Uxx//PHV0UcfXW244YYxYrlWgT/4HHcUY5ljqHAqJ9f6s1IDe94u5LT4yQPCT57exzU9OQtrwjGORx99NOLM/+CDD6522GGHmFptsMEGQfIJUGqMRT5niosvvrh66UtfGkZ40003Tar7VHUdFxRjmWOohFMpnsoPcLNSgRyPEudnF06rWJCjgD/5yU9iCmR6wl7/+tdX22+/fawhnvnMZ8aOlYty+WO9Qt6kHwaZzzZuvvnmavPNN4808MdUDD/1yZ3EuKIYyzwCxdQQ2kqG0tPTEk4alMm0uCgxPT4uO1ZrrbVW3IMC3n///c0UB9Cb77bbbtW2224bC2xGDowDJQX/9V//1Rig+WIoxgPL7Yt2fQBGfdBBB1VnnHFGjHR33XXX4zFLA8VY5hAqu36V0emHyqirgdjz2suvueaaYSA8vwA/+MEPJvXML3nJS2LXipFjs802qzbeeONYowDSmRflkrd8EI6fcMqFNBx5GgZtgyEvtpDf8pa3BE+333578EV45n9cUYxlDoGCohQoEUqJAnoNNArBSEFvTDq2aBkNiHfHSgVmp2rfffeNqRULdEYPF+XCRTw8cJ8ECMevYXidwf3wMwyslyDPa665JvjEiL/3ve9FuIY77ijGModAWbIiqkwYCQrj2oMFOesOwiAe4qHIgLQcH9lvv/2q7bbbLrZ2WXdwD4ZEetOi+E7lNE6Qy5cngJ/05AHIj/tADh8G5g3I/957762e//znxxSM/PIoljuKcUQxlgUAUxGmVSy0URqNIyvx2972tnhSzlNy1hyc5s2KjF+Fzv5ByIYA2tcCHjTCmSLXg42Dd7/73dWJJ54YW8h33313lKuBjzOKsQwBe0gIZRUoQ+41MQxGAp55MLViQf7ggw8+HvtY+je84Q3V8uXLY4rFs4511lln0rSKMtroChtFnH322dVrXvOa2Bn793//97EfUUQxliHQNgrgVMP1ByMCSs1DOXpc43kQuOeee8bIwQFERg93xHDpee35BxnFqBuLo8f3v//9OEvGaWVOIDv9HHcUYxkCKCsGgKviYjyMHmzPcsiQaQfYZ599qt133z3WHPSwHCNhxAHcq9HhmpfGMgimG1UgG4z/kUceqV772tdWF154YUw9Obm8VICxFOpB9TRp0nWtvBP1yBH+pz3taeE/8sgjJ7773e9O1AoyUStOrT+Poe5dJ2rDiDBcUBvYRN0bRxwgvIvGBdaHOn7oQx+aqI1/4ulPf3rIpx49J8luHGnqrqxgEvIilV6+1o/oSXlazXQD/2GHHRbbpjxE5DrfQ3pGD0cIpl/4marVRhFhGcSZdhzAmov6UkcekFIn6giWwlSsGMsQyIqu4qMgPPdg6nH66afHwzjiAIpCPNe43osRCfPEFeNmJBkYPuAEM+CsmmHjjmIsQwAF1hAAfp6233jjjdUee+wRR93pQVV0RxXv816UB38edcB8G4k8DKK5gJ0Da5VDDjkk1nLs9C0FFGMZAo4I9pQoBR9xYFQ45phjwnBQdoyAKQiK4z2EO3pwH9cq1lIBdaLedBjUjedG1I8t9KUwuhRjmQE0AJ6scxS9XtRXO+20U4ShJEy/NIwuJcmjR/aTbx/jQSHzGsd78kiFwpqf6wXu4Vqi7EyzhfkiA8pimxxQPnLoKsewcTCmYiwzBNvAPK1GOd761rfOWtnIR4XCb1g2CuA1cTkd4H78GIkLa4Cfh6KcOSMe5cWYNXpgHrMBvJOvxHstPG/hxAIPaQeVQfhclD/fKMYyBFRAFMG3AU866aQ4y0XYdJhKWQR+lA5FVvkEYV5jNBCK7/2khzAaNhw49csLWRw94cWvr3zlK5GO50LkZW/OiMR9cwHzgScM5BWveEWEcfDTcNPkMrMMRhlwWagn1Q088dSnPjX8uPfcc088C6mVtm7v/uCeTG0YVit15I2rv6usBx54YOJ73/vexKWXXjrx4Q9/eKJW0njOIc8777zzxMMPPxxpc164XeXPBuRHvuCzn/1s8LHppps2Msx8QYaPAXUGFpqCNttss3gA+YUvfGHSQ8W+QJm4D1KpBHH19K4Jx+W6jZ/85CdhHBdddNHE8ccfP/Gyl73sCYq38sorT2y77bbh//KXvxz3aRg8QMxG0uZjJsj5IROuv//970f566+//kQ9ooU/GwvuGFFnYKEOopE32GCDaOQDDjhgop7qNMaSFWU6oJjZWLwXv0qbDZCwhx56aOLGG2+c+NKXvhRPxzEOeFIB4WmdddaZqKeEE8985jNj1Nt8880j7o/+6I+afCgLt132XCEbIXVgNHvlK18ZfDgiayQazRhRZ2ChDqKR60Vr+K+99tpQtq5efxBQojaRh5Tx05/+NHrlf/7nfw7j+I3f+I1JPTEj25prrhn81OunibXWWquJgzCipzzlKaGQP/jBDyJPy8FQAOWLdvmzgfmSJ/6TTz45+PXoC0RdxnA61hlYqIPosXH/5E/+pFGuLsUbBHpaFUjgJw/iGDmYVr3//e+fePnLX94oky4jB3P/jTbaaGK99dabWGmllRreIBQOpcS/ySabhPvpT3+6KaMLbX5mA8qwHOqj//LLLw9emL5mXnP99I8ysR2BZ6xRCz6obvS4rgU/yc+xeXayasWIsLr9wu0C6UlHGneLyItwwjhVzDsa7IABwihbkJZryyIP/Lg5HbtVvE3Ic5pvfOMb1ZVXXlmdd955kY48yYcP4/H0Gz9bv/Vo8wTe2+VzTX3ZqeOVgLPOOisenFqHqSCfIt9DXL4/l5khP7jyisw4fc0X96kPvAnypJxxQVjNuFDdEE1PhL8dXzd2468NJE4De036Nhk3FVEW+ZKenho8+uij0XMyR68VqfHj1o0faQB+iPVNbWQTl1122cQHP/jBZs2ReYBXplWMYGuvvfbECius0MRBT37yk5seON9nnY17znOeE/5/+Zd/CR7gry9Ia31wv/Od70x861vfijjrkuvXhnHm4/Xb3/724GnjjTeexCtEvfSPMo3dyFIrSdPD1Q3R9F5tkI5DjfTefEeLfX4+QdoF8yCe+0CtLBHOM4l6ShE9O0/s6/VD5FUrQqQDPrEG3EPvzEe2KZsXob797W9XV1xxRXXBBRc0ZVEOPT4vSFEWp5a5J+dLPUnvPYD78jVlc49hvHXJQ8B3vOMd1XHHHRevNMMb91m3qUBelKvLG5177713dcABBzzh/kH5wYtxnA2DRz6PxIfDGZGRybgCKY8F1Q3QGQ7lOHoqelfCTj311BgF6PVrY+gk4iF6fyhfs4AnDQtu8hg0erCVy8hx8cUXx1bub/7mb07iDZ7YPmWHitGDNUd75JDodSGvvb+r/oYRzxpm1VVXjZGGRX2t8M3Il/kdBNOQHrDWgI+jjjoq1iDEZxoE5NPGddddF3w6suQZAHXI1yNMnYEjSW1laV8jcJTmec97XsT91V/9VTSUDd0XWRloeBXOa+BzDp61/Omf/ukTjAOX3agtttgiFtv1aDQpDkIR4ZnpomHE5zT5Wj+UjUlFo4PA/eQnPxk8ZqXtU//cCfDy2ote9KLID+O+//77G7lkaqMrDNDZLF++PPJbbbXVwoWsRzGWOSaVBkLIWWEgelYUk3Sf+cxnopFQgKmMJTc86QzLioaxuEWMkWAcbOXSwJknnsH4nAM/DwWNg9ecFj/k6JLjpiLv89rnLBgm7vbbbz9RTxkn1SfXZTpwHx3DKaecEvnxUJN6XnXVVc0IlSmD+NyxAO/Bfd/73hd51lPFcK1H37qPAHUGjiRloWblYzSht3Jr8uyzzw4FoYHy9CHDsExd4H4VgCMlr3vd6xoeUFAMAwNtP3DLfkcOrnM8SqjB5/rgto1rUM9rWoyUa467AOqfjSQr8CAoL6Zw5EX9GKXxYzzE95WbIF6jrddswWv76At1oA0NG2HqDBxJysqTiSkOzx7wn3POOU2jstbARWmmalTiJIFfBaOxMZRXv/rVUQZTK3arVllllYaHrgbP19kw2pTrNaiOEPerXFybJw/7cH//938/6tzVQWT/INApgHe/+92RP+sLZEs5PPdBHl0GI7Jx5nDz5dsE8MmIywNV6zUmhgJ1Bi4K0QMjTK+zAhIOEZYVao011mieqp933nnRKDSOCpNhQwNcrh2BhH7iWeADDkvut99+UYbrAvjKvC4UKRPlgszsKHioqcLm82VZDvpNx3UmHyBaT4jNCAzGLWTuzYaR5Sfa+UIcfdl///0jz3XXXTfcMTIUqDNwUSgbQTaKPAXRYBDysmXL4qk24Tz5dri38WhQG6qrQYFxpPX+rAg//OEP4wQvZW655ZYNH4tBykMj5dopjZsZgNHFNdaguisbYPyPf/zjiT333DPyZeRU7kzxKJPOSFnhKq9BUPaZPvGJT0Tb0cFZH1z9I06dgYtGuddEgNlQII0FQ2ErljAOF9o4NiBubswuhRH5PkBa6Ec/+lFMPyiP9RAu5aus9OrwBy1UY1s2MnIq89znPjd4zbwPgvVUeYGGc/rpp0edPNYjOXL9wR/8QRihxoLrvVl+wjIkcOWVV0ZerrEg5er1CFNn4KKQAutSPOI0IhbTKsoll1wSjeDUS6gwuLmxQPYL0zt9ufvuu5vDi57etXz5wSV+oQxFsgORr3/8x3+cxLsYVE/DkZfpXdRzIJN65jq5ecEJgzvvvDPSd+XdBdJlwqg9UMlOnnIsxjJLstHy6ML82ca74oorokFo8NxjZoXJfmHDtfGzn/0sXJ4puDWMQsJDbsz8MHGhG1lZ+HDvkEMOibpbH+sPWU/9QHm0R4Jjjz026mmPn5WYdnC699WvfvXxOx4DIwvoknOG5YN3vetdURZbyHZAuY1HmDoDF5WycqqYTA9YFBpuozkNUClyoxkHTDMVAUYUzm1Rji954YcnSB4zydNCEMqFLDiWD2/f+MY3gu/2yJqhTKgjMnF3ivSsb5wauauGHzcrsFOzj370o5PknOU9HTTq888/P/LKU7Exoc7ARae2AuYDkTQusNFpABsQ8roLxuF6TT7sfGEoLHApw92grh6PMA1nOkOaS7IMnyeddNJJofzWxzqBdh0hRwGgnyfre++9d+TnDhVkvSmTOrKFjJ+07hJmGQ8y1AzLvP7665vyeJDcNswRps7ARSMVIgvPKQdxV199dTQ8DeViU2S/imKDDtod4prG56n3vvvuG2W4Fd022HxNuqxQhs8nUY6nAtjcYLoIqA/Urpt+44AuQME5RU29XP/gz/XBL9EOuGxRA/OVpgPlcQ9vfe61116RP9PqXN6IU2fgvFBuiLarImYjwe9ODPRv//ZvTQPlqQTXhuNCXWjHmccdd9zRGMpUI8pCkWXjtuXk1IWpDLA+uaMYBORDOuV0yy23NOXk81qDyHXLueeeG3InL/JRjsPgAx/4QORlx2T9Rpw6A+eVVAYMJCtlVhJcejL9vFdBIwMaRyUxLCOHkc60QKWysW+99daJPfbYI8rgyTyuhruYBA9tPpiKolRvfvObo3cGKmwfKBenUSpsfoNxKmKdRPnvfOc7435kCPUFfDrCcyyHPDkqNAry7kmdgfNGCqYtIHsWw+1xIAxFsCAVbUOx4QjXKEA7nXGMKM7X7bExzmy0LKjhaSEadFDv6o6RMnFRn+vYF8rvX//1X6NO1Jt69qkf2/XwyCFRt5CzzPuCzo6tavLy2wELId85oM7AeSWVEWJnpx2ed2VuuOGG6JFoFISsguDqt8FyL9dWJO7ViHBvu+22iZe85CWhiBqKSgllxYWXQYo8H5T50O9DUT5eAf+OmPj7TINIZ6/Oot4vrjBa4OY2mYrcFeNYDLLMMp8O2bAw2je+8Y2RF+uvhZTvLKgzcF4IgbSVUL9K4byYXoyXqUA2EoCwcyNN12Ckzw17++23T+ywww5RjlOQrKCL9RylLRt54vybcRy/AdQJTDcFI10mwIfvyIu6D1s/72ELOaOv0Wjk4LTTTos8x2gLuTNwXgghO+Q7oqAQNpi9J8fCNRR7z9zYfUF6RxLB1IuvM1Imi3n4URFxs8IOCptPkh/4s9z2ot4RYlhDgdgepwy3bGmHYeqn4TIqu27qayiUD+j84J2dTXjIDydHnDoDF4QQug3F1iWC4+08FBowVOeeSGEDwvJoo1Fk48Dv/eRFvrytp6EMUhIbjnjSQu00C0E+fMT/hje8IU4YKIusoIR1TcWQQybwZ3/2Z5FfXqNZ3nSEXJAJaxauWUvaBuY/HTLfvI3pFzM9EDvi1Bk476Qi4ldxMRTWEqBrIZ8bPTdOV0OhQDYMebHr5YtMfZ+jZP9iGAyKzNY55efnSxqG9c6dhiCuTWwMkK+7Wu3y+hD3OVX2SzfImfynA2ngH8IP30cffXTI1mdpI06dgXNCbYXLcZIPw9iVoqfJRjIVcg+VG8oGATbMzTffHCMKPLhGydMvaBB/C0nwgOLY27vRwWvMfUF9VV4VEjAqvf71r49882kIy83Xg0j+uJ9R79BDD40pYZZ5X5j+85//fOTNSCcfjGDDjHgLSJ2BMyYqnIXfrrQ9NC4CIv7Xf/3XJ+699974okoWuo0tdRmCfkA84Jr0uIwoDvVdU4++irIQhEzkB2X0Ixds0+bOoQ+UCfdBvtLLcX7KsCzcvusFeeP1CMNYA1nOdLD9IA2atSn5ONq1eZFHKIcvEnUGzoioGIqoMurS8PhxTcuLVAiA90UwFKCCI8RMhE21PWo67gcuINnL94k8Uy/5w7VhcInvqzDzSVkhHAHPOOOMqNMwyqgcvIc3Pf2wBZ9Kos65LaBhldGHiW4hu+nQB7Yx4IUzOkvyZPMgtwN8UoZtNALUGTgr0kigrm9j0bvh8iV6pl7AUYUGRvgagGj7VQhhmAqCofhmIw2by89EY4yCoUAoBUQvC198XgllArn+U8F0yhKwzUu+jKzZKCwv89CHaF9l+7GPfSzKygYwCNngbS/oz//8zyMvR/42ZZ4XmToDZ0wI394gG42ji0dKDjzwwEYRcq+UhZ79uFzrz+HcT0MYdtNNNzU9H4tR+dAouoxjJkoz16TyqjRf+9rXoj7tjmEQsowYXbnv29/+duTlGTvrOZsOArk6FcOgWQ9Rlu1iO3Qhx9nufNKWvHjgOapt8zh1Bs6K2hVWWX/5l385XBaGGgpC7jICgN+4QeD+3GPx4Tu3IfMaxd6pLXh4HaGeK545wCNf6hco1XRyyFAeKPHBBx8c+bHdaz1xlQMu8mnLZRDlmYLb2t/85jebtsvURq4DftOwA0r5tAVTMfK0zaDcfotMnYFzRlbSqdcRRxzRHOTLI4JG0yXkNmyMtvAZUTxG7tQrC1k/jUKavgqyUMSnlVQWppHUybVa7hCmQr7nwgsvDEWj07CuXOcyhzEUSdn5NP9zn/tc0yaZBoG2Bqbj+j3veU/k6UJ/WJ4WiDoDZ0UIkMr6/xDmt1zzzVxf3c3TprbbhkaBUHNalQKj45tUvEyEIbhn7winkchXV2O0rxeDnKLy4QiRO4Q+cGrDot7nSSzqLcN6OqLOtN7c5wdDDj/88CiXNmlTGzlMHfBUBXm1f8oEj/KawxeJOgN7U1vY7QZwROFXbSi7hBJ0CbMLbcHrVzEwFMtsjyhtdxQIXiV7epXk137t1+ITsdQxjybZbycBlKNGpfvxj3888nMqOhf1z+2Kny9Wyj9b9IDyaV8gX5k/4LXGctxxx0UetJ355REP/4i0X2dgJ1kByKkM4VbEiup325b5N1OvbCgKsQ9IZ1rvQ9DkxRpFPnyy3CZHGHlfTMp85TAWt2yC5I9w5Dq3kY3HdMqWzoM8eQvRLeO5ILebcz0cvfidX0YXz8BwDYUX+rjfDRnzz7rE9dgZC9RmPFcwC5H5LErKkXJHgLah2MjTwbQKmm1m4AMtKH/rSuNA4Nlv/GJRmwdlp8IxbwfKxQ4B6GZla4M4wn/v934v8uMEwHwoWq6HnzXy1QEhnwA/o2G7vWlHvlBJG3mqIOvQCFJnYCdlIeGnEQzLlXRE4dCejYywEBqk8reFNwimRRFUEkcUejsfOA4SdPsB3GKR/HqN/CA/FMGiHnnZqWT5KIN2mDA9v8AgL9tAmQySzbBEPrnN/SzVbrvtFtNH+ABtXoX6QByvJ1N/ZgTkhdHYueXy8vViEr9nwtMLNePNX51qgcUfqwD+Wkjxp6h6jhx/dvroRz9a1T1c81eqWkkm/bEKkE8f5Pvw14ZSbb311lH+lltuGX/YouwVVlghwiirNs4Iqxul4ZnrxQR81aNs8KJ/ww03rL75zW9W9aI+/lBGXK0wITfkCqgDvBOW62G96g4k7rn77rurfffdN/5RWStx/E2Me22f2UJ5UiZlUwfKrkf16vbbb6/qKVX1vOc9L+KBdeDaOnAffnitR6Xgm3DaCxAPuMf7gGUvNsJqhqG6Ek/w10JpDkXyM51aUHW9H0Ndyc5epi+8n0OWHAu3zDYf+VrqOkGw2FQ3fOOH51122aX5/Ko9L0CGjqTKL8sVMGK7w8j3jsmTXTVlQbtYjmXOlsjLOjASuIngFjLr0zafXFM368O/WuCN6TP5tdtpLvmdKxpqZBF1RcKt6xzuSiutVG200Ubx591TTz21OvDAAyMNvQW9vemnAnkNSmc59TQl8mb04K+39Mz46XXseepGiR6PvOTBHpA0iwn4o6eFZ1xkc9VVV1X1dKTaaaedmhECvkkLv225UD/uBcSZJ7Kpp17xn0pGFONwlc1cgLLgAZjvBhtsECPFoYceWp100kkRT5x8m946ff3rX6+WL18eoyojkrC+0CiC2gzNmZVCcLj1nDN+d/2pT30qfthJvAoBcmN3QeEMSmc8PyjF73QL4WuMGI7TF1wVxTxzIy8W4AWe4A3CiLlebbXVHk8xWRamVY5tEIes6xG3OvbYY6sTTjghpkS33npr3JvrPJ/1X2ONNeK34+DOO++s6sV68AbUFetBO/Ej1s9+9rNhLKQ3HWmsN648e4272ICDSVQz1gyD2Q/VlWr8HCH3uYYvAs0namEuaRoGpK8VL/ycraJdaAumRbQHbm63+aCsIz7N53fitYJPWshzDQFOUXOPD2DHiSbNS7BuUNcpXKC/FkjTS4BVVlmlWrZsWQz/Z555ZixOC+YfyN82YGS67777qve85z3RK/P7cUZcwHVux/kE5TC6UeY111zzBF0BXDPiMaoQj99wMGj0HDVQo0lET1FXYlIYPRVhuJw49Sea/O7A3qNg4UDPjcz//u//PtrBr/3nNoMI6wqfDXXlh06gH7vvvnv8UhCdgOQV4vd73Ivu1MbR5IV/rnmcJ+oMnERUxuEdofgg6p/+6Z+iwRAKuzIFCwN2BVE+XpdGQTl8mT+/Ot+K1+5IIfTDM3l8+Bv+0AlcwEf9iHPnDB7rkbG5X+MZZXrCNKyuxONXjw2NhNUGEcM70y52Wniucd5551V77bVXpCOOKUHB/IJ2ACuuuGL4TznllGivNddcMxbOgOtaNxv/XGKq/NABNlvAd77zndAddyAfeeSR6rjjjmsW+IRBxJunPI86JlmPVFdmUg/lCWKeNrOIA2VEWXgwkgPOYtEebrC4oLfNcGlD/Lj6Z0PmkfUiE6eQGSHe+ta3Nh8e4bkKU0Xu8VXpcaWBDx5qQ2isvW6IavXVV49eYJ999qle+MIXRji9Cb1FwcLAnhr36quvjvaQGGlsL0EbAuLbcbOBeZFvdgmHD05YPPzww6EfjCTnn39+8M3WPy6Qb/3jgrAaqGZ6Uu9hb8U14b5Yxf/W+V4uqAXSLOQK5h/IGuJIPO1CT15Pfya1E36vbUv9syF1o32NCx8e3OTpPGAUhNfrrrsu0vFqM7y28xkj6gwcSL7L/du//dvxX3PAVCxPxxAQgmIInktjcgoCzJP8xxEq0jAgPYSscf1msR+PaNNCK6UHWjnMCXgOpF58+MMfjjQu8OmIM39zZdDzTJ2BnUQFcfmyIxXl/W5OmgKVVuMYVhH6gnwpA2WjMSx3vsqbS8CjyqOcZgLrjOxf85rXRJtwxN32sfee69FF5SYv/ZZD2XzMnWt+kgSonx0mHzR3psLfyzJ/c8HbAlFnYCdRQRoCP29Acs1vA/xdG4JRAbpGgblAV16G4Y4yDcJUcRnIV/BRbu675pproj188c32mQ9FJC+Ids9EHC+a4TLj4GBnu/3h/bzzzos0vj4Acf+4GAur8/fW1At1vRv33nvvrbbYYovq0ksvjcNwu+66a7Xqqqs2R61rATQLzFog4SdsNiAP84GHukEinPz1jzKUB4Bf+LYe+qeSEWlqpQu3Noq4jwOsdc8dW/n1NKiqO67HUz8GNmBst7mA/JEnfFgnznlR9pFHHlltu+22TXuQHv54tFCveePA5WWXXRbnx9gEMI31H3U0ltOH6oo1vQuux8H5HTZflqyF10w1ck9YC+9x38xhfuaV82RKNi5ARm24DpGmA2mcjrnYZ1ThvB7THadktE1uv7kg2j5fU65rWb5TBtQBYZ1c7Ptmq3rUznMUiW4CT2/QA9QVf/zqsZ6LU8dsF+65557V3/3d31XrrrtuMwKQfq7AOTReMFp77bVjS5Leyx6WcnBHGVl2td5Eb8tIvMMOO8TReuSV0b7O4H5AnWvDqM4666yqXr9Um2++efXd73434gBxlJnbbLagzckPHqiTL5oxu4AP60LdKB/IL+k5xn/44YdXm222WegN+Y1624nGcvoQvQBuXekmDL9f5uC3EXfddVctm5/vktED1sKNsNmAkYsP9FmuZcsT7ihTlpk9P8T/7JFPm7qALPOI7ejCVv5+++0XbVB3Jk3eUi57pmQe1ke/5wRPOOGEJ4z+gDCuHf1Z47Ihwb18ISbnPco01MhSV27gvJI4Xj6iV9txxx3jJPL6668fcfQcxM8F6K1OPPHE6g//8A/j4egPf/jDCKeMUQeyQw7KkV4Xvm+44Ybq+uuvr7baaqvHU/4cWW7en0GPXCtahH/lK1+pdt5556ruuGIUJn/umcteG37Nj3Jro47yWLd+8YtfrHbbbbcII450pPcaXmrjjrALLrigqqfuMSvhNXRA/KijsZy5IL9Uwt4/B/3oIen9oK7ekjB6nT6w1+IoBZ9XopxawcKtlaXhAco9Vd04k+JGgeAX8mMVb3nLW6LnVR5ZVspwEIiHkA9fiCE/R3rl0JbPTCjL0bxx/YqmfzAGtrf10HW7H5djMdzHVyjNu4vfueB9jqgzcEZEhamYX+vg+7p1DxeCYjoGUISsDBpKX4MxHQbz3ve+N8plk0FhU658cJ2NZhSIk7bwJxHmJsnFF18cdbNzUVZTGQpQKSHkTZ58tM+pHnnPhRzIo52Pv8w76KCDmn9Mwgd86wJcdUD3xhtvbPIgX+WhO4LUGTgjUkEhRhgr3fUz1ZlApcmG94EPfCDK2GabbcJFQVSSrJCjQG2lhU92kpi3E1dPK5tfcGSocIOgTKW//uu/jvzzt9Ry28yUch76fWbyN3/zNw0vtjPA7zXtZrjrl5NPPjnu530c2woZjejx/c7AGRECzAL1aAPklqJCUuHBdMqQ4TAOIXhGmOOPPz7K8OsymRA0wp8LZZkravfO8Khin3rqqVHP9miiknWBOIhpGC5/KNhjjz2izoww81F3eM5bxl//+teDF3mYDqShjiz2PY3MOzkahu1meSPSfp2BMyIqBFFJKkvPiRIoAD7ViZBQcHsce50+yCOKwsaPAfG9XMrmZIHltXlrhy0GyQeuvadK4VNwfuEA7BCmA2kgFNV1Ha9RkBc9f1vxZkOZf9dbe+65Z/N2ZO4Ep+Pd9vviF78Y+WB45j+ChgJ1Bs6IrCCVy5XlNKoNpiIoSBt6OsEC0zi6AI0FJfngBz8YZTs1oDxJXkaVMBw6Fvg/7LDDmj+hUU8NYBCy/PRzr9vsKGFXBzIsteUIv/D9/ve/P8qEV9sFwIPo4o+0+KkrX+Knc/XL/BJ8L0ljgXKjZOGy48E18bximoWXBTwsELp5oVSuYfhxEkLOc9/FJhsdOeD3Orsa+qWXXtrUiTpmxWuD+isDoHH5iVueu/jy3lwRdfDFs0suuSTKU/lF5rmLf42Lj/LxzWPy8pvH6hHuCLVhZ+CMKRsIc1pcFUNBQBjMbGEDMK1j+EfwhDnCdK1hRona0zB49uRu+yuV0CC0jcWRFpxyyimhcCr2bEg+yU8lJuz222+PspQ/rjxlvnIYZPv5f36/+q+hQMgku4tMnYHzRvzCTqFfeeWVIbD2NCOvTVSSLPTpgLJ85CMfiTL8PhXCtlypK2wxyV08FdsdJuoDlFOWxSD5GP7ggw9O7LTTTpG3T8vnQgGdLvEiYF9kA8G1XmeffXa0Q94Rk9rXi0ydgfNCKibTAvz0TH6UrWt3TLcvaAwaAJf8OH5BOe62dCmHfMxGceaK5IHDkHxFBz/b7tSnbQxAg0BO2e+1yvilL30p8sIIuwxlGIU0raP2Zz7zmeDN8ocFPL7rXe+KvDwCY1mQOjMi1Bk4b4SwEQC9HESP55w3K4XG43Vfw6HRvJeemD9gUR4nCnBpDBskK4m9+igQfLLGw3/kkUc2MsDtkkNbUak/RP0h7jnkkEMiv/zshXJw2wo6HfHylvz5SGCY9tGFR7aO2YCAF/6paRnyNFMe54k6A+eVEADEUM7/PVjb5KfXfQU/FcwDl//AUy6L5y7hGzYqpOH6Qtfll1/e1EWDyTLKfuI1LmTp1M2n5Xl7NtMwMvCgJs9y/BZDH8gX0H/11VdH2YO+/AKvI2IoUGfgvBG9OZVHQLhMNxA+fj7aBxAkDQ0xTOP2QVYawMLfRuFJMWVjMChjboA8wiw2aSjw57pg7733jgeN1M9pJkaQ5WLdcbNSAq4J/8u//MvIH8VU/pZl+VMR6ZCV79rzty94aJc3CKZjRLFd//Zv/zZ48UxhmxeuhzHkeabOwHkhKp6FgRAgDuJ5zJtXT4HTB2EPOR2ycXE/BgNoKI7CUwbK0m6EUWiQbLTy4zrjU5/6VNQjdwCDQP2VAa6yY7G/9dZbRzk8UFT+ljkd2XaOAs4Gcjv1AfxD8MZryOTlGbOsH163wxaROgPnndqKylSMTy2x2D7rrLMeF2v3DlAf0IA2omsY8mArlTJ5DjNKI4rU5omtVBb8KAzPTagTMsny0J+VFr8GQ7ydjx/n4ygSeSJ73D6yMK1b3jfddFOUoXz7Qn75sAX5UDYdpkahq18ybBGpM3BeKDcIgtdgFAT/a3eE4SuGNAQNnBVjOpA2Kw15GGY+GAxlojBOe0bBcFRCSflwAgI+jznmmBg5RTYIkOWUZZBlwsck7M3ZfRqm3sjMs2C/+7u/28gW5LKnQubloosuirzaz4Dgqa0bo9A+NXUGLhohJPfbmc8iXEilyCNNWyGmA/eaT/6lHIpo40jtxmnHzwe1e095INw5PQtikI2kbTSDoIz4cDd5MfXxwfF09YMH+GHTgbT8Z2UmsD0Bx2TIK+/QjTh1Bi4KobQ0CluIzIu55sGcU4guhSC8j6EAemXSM23gHvKmXHo2lUUFxc0K1Fbk+STLggf8kKeHX/3qVzfvjYA+RiKsO/jYxz4WZbgmao+w1F1DkgjzFIZn/IadgsEDYMOCPxyTF1OwLOsRps7ARaOstJ6TYicLIefGBiiKhjKs0ui6G8OUTEWBVFLicvh8E+VRrn6v4cGFNWu6PEoC6zQdHJnvueee6NHJn+lv5sH6ygfX+D0Vvddee8XhR9rC9uhbvrt5fuXF35dY1ohTZ+CikYqhknpchW1PQOPY4LrDGAoNlQn4shRTjHZvCqk8C0FZUVUgXRb6rmv4/BGw7tZlKigvZMh9bNWTl59/dXTJbubBN2B5bgXIYxjZ506K3yq6qUP+Y0KdgYtCNox+DAY/BoOfRrLBc09Gg/VRFu9BWfBzn/lhMJTh9E+Fyfzk6/kiy2nLQj9rF/jkGwSZ/z71B6T3HkYHTvuSv9MrFFi5a7hcQ77Mx44ayOX3gfJndOFIPnl5Gh3/GFBn4KKSyoHCKkgW/Vxzotihn2cOw/RsIDcu99KA5sezDMpm+pcVdDEol5/9KLC7R9dee23wbT2mAwaVFRawYUD+fgE/l6NfwpBoAz5MQZnKPuc7HbiH7x5zupryPNy5kKP3LKgzcFHIxspTkdy7OSXjnRVfjurbo7bhfeZhY7OGoUwfXFKevOhfKBpUvueyfuu3fiveBQF95GAaOwenY3zhnvzzdxM8XIrccTlNgP/tb3973ENeWYZ9YPqrrroq8qQDxIWs24hTZ+CiEQ3iaJKFqF+DOfbYYycpSt8GE9xjz6jSaDgYDD0oBkNvStnyNN/UrvOgHpfRj7hzzz03+B9mOiS8h48i+jkj3UzU3c2FM888M+4ZVt7Axb0PhvPzlfYzphGlzsCRJBWHX17gP+qoo2IblYZT0VUA/NntCw3I/7UzT+cpOn6UN69lNCDcrOQLQWyvWz4vX8G3JHLd28rttcdn+Os0eSFby1CBcdkJo47f+ta3Ghkr80EyNi6n4aEoIyL5tt+vGQPqDBxZcnrgEP6Od7yjOflqzwV0AQqUrwfB6Qkg/T/8wz9EGewC+VouCqqSEpevdeeTLBO/266s4wBKbMeRjcO6q9z6Sa/iI0OVWMPAT6fkhyn22WefOF8GuD8bZhcoq01814wOhzwHjZojTJ2BI0lZSXHd8uRtPadkrGVoRJUFV/90MB1Goz//XYv3OHL5UxG85nRzpRjm6WKbZyW4vJqb660RAJS0jRzmYp9/vcC3eVoHp2DsRnof5QwaxQRhbbrgggsiL08u26ZjQp2BI08IGXINwxcReSoMUPY8ykzXA4qsYPgxPHDOOedEGSgNI1vXVAyi8VWATIabbqZkHuYHsdjHffOb3xx1pq7WWxAGUSeUXMXNIA65cQSFMvKpBo+j+FareSjXdl7CciTK+OM//uMmTzsQ6zUG1Bk4sqTyeY1fg3nTm97U/IWsqyHbjdcmkBXBMJSI98QpA4PhiTd82Ngahf75ml7kuuNitJTlSYfPf/7zwa9GDqgDdRoEp56kQ5nZFjZ/pp6MpvhZ+PPUH3TJqAvEZeIvCMuXL4/8nepZJ4jwEafOwJEklRAX4eLayztVYN7tT5U0GBaxKEK78doEVCzSA/LQz84TZfDUGQXFdZGqwbQbPStEDp8J5REtE88siKO39uPc1gdoEKJtPKZVXux4wS8y9ZtjRxxxRCMnjSSXkf3CNJK/9GM0HFSXEafOwJGlttJpQCgki36u+U+JvSCKbk84HWUDAVyjaFwbxrksyrJ8/LxWgKKy4PZTRsTNhYEMolxvyvFUMl+1EbkeQCOxrsZzDVy78GNX/uRGfn5Dmqko6ZRHG5aRoVwltuTJy1MI2WDmU1ZzSJ2BI0sKVWUxzGuPZLBzg8HQsDQwjdluvDaBrAiG4aJIKsQNN9ww8bnPfS6e9Wy77baT+GFNw+ee6JUxIj/CMFfKQD6SYRqnu2Ns72IYkPXBtdPIyAYEvP7qV78aefFmJS7v8IO2obTvzyAs04EHHhh8+7o0/jEbYToDx5IUPCMMCsTp2DvuuKOz4aAudMVxrZL4mjIgnDUS33DGeI4++ujoiSlbBcZlusaCmdGHLVP4RFFM06U0hEE5DPKeLvJ819ve9raGz3wkqKtuGdYT4j5/6fGKV7wino/0ub8NOxjagbw84dyuR1ddR42G+vPXqKPu3Zt/HW666abVTTfdVP3qr/5qdcIJJ8RfsOpeP9KRpk3cYxz+HFf3nuHW65PqBS94Qfy9qm7cCMMlb1ArWPzrknL5VyJ/87r44our6667btLft+p1QPzZ+aGHHqoeeeSRqp72RJm1AoVr3oA65XuJy2Xr517cuqOIv6994QtfqOrRtckPWEevB4H6USf+5lWPViE//kIsBt2fy6qNJFz4J4y/ku2+++7xl+LacBpexg1hNUuBcm9VN1Az3M8FkR8uU7BaKSfN0fEzTXNKIkjH/J9nIKx1mLbxdch2nryxmEcew/Nok/3Ed40wTAVZM+FnOurOoGsR+IGmAqOKLmk/8YlPTFx44YURNsz9wLTIJX8sxCnruNGSG1nshfUvW7Ys/qZLj1+326ReUb8uvTN+r01PXhD/PjzssMOqD33oQ3FdK0MQvXDOGz9lO+JwrfvAAw/Ev+DrNUBVG1F16aWXVl/72tciXtRGHnzXU5/qwQcfjP/FZ74o01HIcnEZOenRn/Oc58TI9vGPf7w65JBDmnu8X7eNem0Xf38G8E8dGf3Iu157xTUYdH/mBT6oP3zC/5ve9Kbq3HPPjT9Z33fffcGP9wDytu1GFdR6yRgLaAvdxsO1kW0gkP2gKw1hNHrd81e33nprddFFF8WUQqVVcS0LIkzAj3kA78PFGG677bbmt+WXXHJJde211zZ1oD71yFOttNJKYfAoNNM2/JYHdMmXe9ZZZ50wSqaA9SI9pogrrrhipLGOg5DrYto+xgasG9BgmBZuueWW0Wn99Kc/jTRtvknH9G/UAbdLgupGbPx1g00Kw+1D3NemWvliGsQUiesXv/jFzXk0p2NMP6BayWP64TXIYfi5h2vDBNf8FIhpG8dseNrtQ7xcJxbyPOfB9ZSwvOv6HS5esqIMy4OmgvyQzm1iXMOmup+6ZTg19Y1MdyrhEbftHwPqDBxbQqlxVZp22DCk8pk35NNyXosFbeVBOTQOkRVQhVKBQd7aBrqk4eAiH4fgOQcf0N55550bXuSNLWPWPOy68WSc7WriPLLCn7UA+Zp3F4yDFzuBHDbd/Rmks67vfOc7g09fIVa+1mNciPEUz5JA3QDNsA7ydTsugzjQju8KZ11QK2BMg5g6MTWrlaJz3QKR1vDsgpwWf61gjQuRp2kAUymmMfz7P695rr766kn5Mm1jt40w1i4vetGLqvPPP79aa621Ij7nmSEfbb9o890GcqC++uH/zjvvjH/j33zzzXGN3ADpqCMgP/MedcBloZ7EKMWODj32+973vrqNfz6adCH3sMOA+9rUBQ6P8vNT3kfhI3w77rjjJH79IgvfSXO0APCU8xyU/zAwD0ZEpmCAf/AgK08YjDl1BhYaQBgLaxi/Rn/FFVeEUrQNAsVx+pWnXMOAezLlMlB81xIZrHn4iB7TNoxnu+22a3ivF9qRj2uJuQZ5W2fzP+2006LsYiz/H5ML6Fe96lXxtqbrjqyEbcUZFtlQINcNOU5/Lttwrt0w4KdDfBI355HRFTYsMj+AUwB8PYYjQMprzKkzsNAUxMjC1MJXA+r1QCiHxoGyaDxezxTcK2VgCNkI8VsuoGzLx2U0gXJ+jnhdI9RMQVnmx7fNkA+y4h/3WYbjSD9/GFDQCyxMa8WMxSkLbRathx9+eHX//fc3cSxY8QPSzWYBy70QIC9h/ubLdS4DvkzDcxfIB46kgwjD9RjQbEFelAvVhhgPceGdIzM8mBx3FGMZAjS8Coui1YvrauONN46dnnqaM8koiFdhCVPhZwrub+dB3jmMaxRfHuWFNBpO3fOHH8I/l6A860rdr7nmmibc8scdSLRQT6ob/Qlh/oaBtQFgKuKUDOTp0mxQG0GQ8Jr822Xk8k1nGGnNR3cueCQvp2A8H+I3esiFz852yW3cqIwsQ6Ldk3uN/5Of/GT01owqtfJFDw/NVa9KWVCti00PnomyhDwA0xMGMj/cB+aCR8pgRAGcLOYZECMv58ssZ5xRjGUIoFBZIQEKwtrlGc94RnXyySdXX/7yl0MxWB+ogKRhDo/y4mJQhKnMGRqZftJl4n6NI4dz3Vb4bBztuPlSXvgDPDS13Gy44wyk+d7HvAXTAaWk8VVUXZQbFyPgvQ2u6+lIhKEoHIJUcbiHMO8lLMM0+gHXUk5vGPl4vZig3owsnDQ4/fTTY83CSQLWdksBSPcxSRf0ggqKYqicKiuKwbF6wlFqetM3vvGNcdzkV37lV2JKsvbaa096CY20pMN1JBDkSxpAHNeWSbiGYz7GLRYYVTAWjrhsv/32ceqZk8acrCZ8rjcUFhrFWGYJFBYl1mDWWGONIJTj3nvvjTchUWIV+uCDD6522GGHOLLOlirKlKdsTmPIT+MxLhuL5eGSt6PVYgE+IHhldN11113j3Bzn5+BtKUzDirHMAXIPLzQiXkXGIIhDcQBKTRzvnBxwwAHVC1/4wurZz352KBcvfeX88KNoGo6jEOHEk49xiwHKF/AGX3/xF39RHXrooVEnnrUAOg87gnFFMZYhkHt1Gh/XHlMDIFwlhuxVUaLVV189pmorr7xypOH5TMby5curPffcM4xnk002iXf1GaU0GlzBNTCOshZ6ZKHMDMrnVDFvRZ555pnRGfCwFh6VzzijGMsQoMEhFRS/xgJUWpVCBTct/hyHIa233nrxyi7TNbZbCTPdzjvvHNOZXXbZJaZspGXkAZZLOvmCpsJ08cPCugjyv+WWW6pnPetZ8fow09B2mnFGMZYhgDKg5O3RJEMDEabBCExLfDsvFv2MIquttlqMTvTQLJRz/vvtt18Yz/Of//wwng033DB22kjTxUsbpJkrdJVF/rxyzVdlmILxlZvpeBonFGMZMThtA0zb6KFROHaUIBUeQ3vd615X7bTTTtU222wTL3zxmSGMjrUB+ZBWwyRP7oE0rjayYnMfeQDu7TJ2QH6C8OOPP7465phjYucPY+de0i4FoynGMoJQAVE+wDWjDW864nLNV2J4Mg5UxoMOOii2qbfYYotY87jTlpUdQ+J+rzUK3Kz4gjTk77ZwhnGA+/mQBqPfFVdcEesVeCzGUjAvQGlRLqASqmQoMgqZFY+Rhx6c9Q5fiNG4SLPmmmvGMx42C7baaquYtrHeyWkE+WEMGBbPQtqnkDUKDUrjA4QRzzWvOfMRQka4u+66qwl3WjnuKMYy4kA5UTrInt/rPOVik4D1DrttKDwLbcJJh0Jvt9121d577x0PR/lqJdM21kggjyikxRjIGwPhJAJGRD4amH5c4KhzxhlnVPvvv3+sV9jpIx/TEE+6cUYxljECCpqVVJcwlBEjwUBUdgyCcAwA4xGk4cHovvvuG98UY9rGh/3cpgYYkMpN+rahEIffUYgjLkcddVScj3NkaRvhuKMYywjBUQRoGABFI5x4lS4rryBMZTYv0jMyMOow+riG4WOBpiH9S1/60njO4wNS1hx8lA9DceQAjDT4uQ8iD4hpIOsk7nn00UcjrXnjLgUUYxkxoHggG0VWNuKNc2pDGtCllKYRGgjTNTYMGBk46MgnVTNe+9rXxieMOJaD8XASAUOQP/LA6Mib7evLLrus2mOPPZbkLlgGtSk0glQr2xNemqp7+knXUxH345JHOx/jIH6Hx0fU+Z9MbRgTy5Yta+Ll4Xd+53fic0pXXXVV/Def9/kzTjzxxEjvV1wyn7XBTipvXKmMLAWTwLSr1v1Yv/CMh502Tg8zUgBGFkaSAw88ME4W84yHLWq+Q3DOOefECMSWsWkdBZcCirEUTEJWcPz1iBDTL7adXcyz3slgh42p1z333BOG5JoFcD/GtxRQjKWgAaNKHkFQchU9GxEHQVnvYESsWTAeRyTS5LSE48doDBtXFGMp6ERWeBSdaw3J0QIXY2DU4XQxIDxvKhRjKViSyAYCUHSgkbSh0QAMhHRcmw/3tw1snFGMpWAguozHEcXRgjR5a5ow0B5hlgJ+/oi1oKCGyg7aI4GjhKMH0Bi8Js772vePO8rIUtDAqZKuwBAMc6TJadojECDM+JzXOKMYS0FBT5RpWEFBTxRjKSjoiWIsBQU9UYyloKAnirEUFPREMZaCgp4oxlJQ0BPFWAoKeqIYS0FBTxRjKSjoiWIsBQU9UYyloKAnirEUFPREMZaCgp4oxlJQ0BPFWAoKeqIYS0FBTxRjKSjoiWIsBQU9UYyloKAnirEUFPRCVf0/x9gdXE/bhgcAAAAASUVORK5CYII=;direction=north;" vertex="1" parent="1">
          <mxGeometry x="199.60500000000002" y="458.505" width="23.79" height="23" as="geometry" />
        </mxCell>
        <mxCell id="EQOgW9wFtIj6ZhYMa9qf-5" value="ServerScene" style="rounded=1;whiteSpace=wrap;html=1;align=right;" vertex="1" parent="1">
          <mxGeometry x="544" y="270" width="136" height="60" as="geometry" />
        </mxCell>
        <mxCell id="EQOgW9wFtIj6ZhYMa9qf-6" value="" style="shape=image;verticalLabelPosition=bottom;labelBackgroundColor=default;verticalAlign=top;aspect=fixed;imageAspect=0;image=data:image/png,iVBORw0KGgoAAAANSUhEUgAAAMsAAADSCAYAAADkIjRgAAAAAXNSR0IArs4c6QAAAARnQU1BAACxjwv8YQUAAAAJcEhZcwAADsMAAA7DAcdvqGQAAD3aSURBVHhe7Z0JuH5VVf9PaczDT5kFHEAElEBj8CcyBiFghWNO4BAYYhEQoilB2oOSkqKEBRpRlhKgEBgCIpGgID1giAOYIjMoowpC8/2fz4LPcd3Dee897x3f9/7393nWs/fZe5+91157rT2dfc75haqqJmoqKCiYBr/4uFtQUDANirEUFPREMZaCgp4oxlJQ0BPFWAoKeqIYS0FBTxRjKSjoiWIsBQU9UYyloKAnirEUFPREMZaCgp4oxlJQ0BPFWAoKeqIYS0FBTxRjKSjoiWIsBQU9UYyloKAnirEUFPREMZaCgp4oxlJQ0BPFWAoKeqIYS0FBTxRjKSjoiWIsBQU9UYyloKAnirEUFPREMZaCgp4oxrIE8Qu/wCesfw6uf/EXH2vqJz3pSeEKw9vI6Z/85CeHv432vVznso0fVMa4YWnUoiCQlRVXmpiYqP7v//4v4v/3f/834jUawzO45h6A+z//8z+NweQyiFtvvfWqTTbZpFpxxRXj2jLFL/3SL3WWMY6gVuUr+kscWbk1HpUaP5SNAIMyDmAoGMxTnvKUaoUVVohrjONHP/pR9bOf/SzuxSAwjP/+7/+Oe0DOYymgGMsShIqPAmdlVXlxSaNRMMpgDIIw066xxhrVU5/61DCEO+64o/qP//iPSK9RHHroodWzn/3s6rTTTquuv/76atmyZdWPf/zjiDMf+FgKKMayhIBidkHj0SA0BIHyYziMGquttlq1yiqrxD0Yxn333Rfpnb696lWvqnbZZZdqq622qjbddNNq7bXXrlZeeeXqiCOOqE4++eRq3XXXre65554mvaNSu8xxRDGWJQSVvi9Q4JVWWilGAwzkoYceCkUHTq1e/vKXVy9+8YvDOLbYYotq/fXXjymYoDzK/fSnP13tv//+1dOf/vTqtttum2QcS8FQQDGWJQYUEwIoaFZSplKrr756TK1Q8P/8z/+MdQdTKo1j1113rfbaa69qm222qbbccsvqaU97Wow4xAvSmZ78yeu6666rXvCCF4SxMF1z6qUBLwWDKcayxKCxqKwYCCMHBoLS3nLLLRGu8mMQjB5bb7119dznPrfaaKONwqA0BoipFFMywsgPpVf59T/wwAPVK1/5yuryyy+PqdzDDz+8pAwFFGOZR6AkuQc2DHBtHMCv8mVkRXP+D0hPHMqY81l11VXDOBgNiKeXZ+QwD7Z5X/ayl1U77rhj9axnPat6xjOeEcZB3vI2Uxx//PHV0UcfXW244YYxYrlWgT/4HHcUY5ljqHAqJ9f6s1IDe94u5LT4yQPCT57exzU9OQtrwjGORx99NOLM/+CDD6522GGHmFptsMEGQfIJUGqMRT5niosvvrh66UtfGkZ40003Tar7VHUdFxRjmWOohFMpnsoPcLNSgRyPEudnF06rWJCjgD/5yU9iCmR6wl7/+tdX22+/fawhnvnMZ8aOlYty+WO9Qt6kHwaZzzZuvvnmavPNN4808MdUDD/1yZ3EuKIYyzwCxdQQ2kqG0tPTEk4alMm0uCgxPT4uO1ZrrbVW3IMC3n///c0UB9Cb77bbbtW2224bC2xGDowDJQX/9V//1Rig+WIoxgPL7Yt2fQBGfdBBB1VnnHFGjHR33XXX4zFLA8VY5hAqu36V0emHyqirgdjz2suvueaaYSA8vwA/+MEPJvXML3nJS2LXipFjs802qzbeeONYowDSmRflkrd8EI6fcMqFNBx5GgZtgyEvtpDf8pa3BE+333578EV45n9cUYxlDoGCohQoEUqJAnoNNArBSEFvTDq2aBkNiHfHSgVmp2rfffeNqRULdEYPF+XCRTw8cJ8ECMevYXidwf3wMwyslyDPa665JvjEiL/3ve9FuIY77ijGModAWbIiqkwYCQrj2oMFOesOwiAe4qHIgLQcH9lvv/2q7bbbLrZ2WXdwD4ZEetOi+E7lNE6Qy5cngJ/05AHIj/tADh8G5g3I/957762e//znxxSM/PIoljuKcUQxlgUAUxGmVSy0URqNIyvx2972tnhSzlNy1hyc5s2KjF+Fzv5ByIYA2tcCHjTCmSLXg42Dd7/73dWJJ54YW8h33313lKuBjzOKsQwBe0gIZRUoQ+41MQxGAp55MLViQf7ggw8+HvtY+je84Q3V8uXLY4rFs4511lln0rSKMtroChtFnH322dVrXvOa2Bn793//97EfUUQxliHQNgrgVMP1ByMCSs1DOXpc43kQuOeee8bIwQFERg93xHDpee35BxnFqBuLo8f3v//9OEvGaWVOIDv9HHcUYxkCKCsGgKviYjyMHmzPcsiQaQfYZ599qt133z3WHPSwHCNhxAHcq9HhmpfGMgimG1UgG4z/kUceqV772tdWF154YUw9Obm8VICxFOpB9TRp0nWtvBP1yBH+pz3taeE/8sgjJ7773e9O1AoyUStOrT+Poe5dJ2rDiDBcUBvYRN0bRxwgvIvGBdaHOn7oQx+aqI1/4ulPf3rIpx49J8luHGnqrqxgEvIilV6+1o/oSXlazXQD/2GHHRbbpjxE5DrfQ3pGD0cIpl/4marVRhFhGcSZdhzAmov6UkcekFIn6giWwlSsGMsQyIqu4qMgPPdg6nH66afHwzjiAIpCPNe43osRCfPEFeNmJBkYPuAEM+CsmmHjjmIsQwAF1hAAfp6233jjjdUee+wRR93pQVV0RxXv816UB38edcB8G4k8DKK5gJ0Da5VDDjkk1nLs9C0FFGMZAo4I9pQoBR9xYFQ45phjwnBQdoyAKQiK4z2EO3pwH9cq1lIBdaLedBjUjedG1I8t9KUwuhRjmQE0AJ6scxS9XtRXO+20U4ShJEy/NIwuJcmjR/aTbx/jQSHzGsd78kiFwpqf6wXu4Vqi7EyzhfkiA8pimxxQPnLoKsewcTCmYiwzBNvAPK1GOd761rfOWtnIR4XCb1g2CuA1cTkd4H78GIkLa4Cfh6KcOSMe5cWYNXpgHrMBvJOvxHstPG/hxAIPaQeVQfhclD/fKMYyBFRAFMG3AU866aQ4y0XYdJhKWQR+lA5FVvkEYV5jNBCK7/2khzAaNhw49csLWRw94cWvr3zlK5GO50LkZW/OiMR9cwHzgScM5BWveEWEcfDTcNPkMrMMRhlwWagn1Q088dSnPjX8uPfcc088C6mVtm7v/uCeTG0YVit15I2rv6usBx54YOJ73/vexKWXXjrx4Q9/eKJW0njOIc8777zzxMMPPxxpc164XeXPBuRHvuCzn/1s8LHppps2Msx8QYaPAXUGFpqCNttss3gA+YUvfGHSQ8W+QJm4D1KpBHH19K4Jx+W6jZ/85CdhHBdddNHE8ccfP/Gyl73sCYq38sorT2y77bbh//KXvxz3aRg8QMxG0uZjJsj5IROuv//970f566+//kQ9ooU/GwvuGFFnYKEOopE32GCDaOQDDjhgop7qNMaSFWU6oJjZWLwXv0qbDZCwhx56aOLGG2+c+NKXvhRPxzEOeFIB4WmdddaZqKeEE8985jNj1Nt8880j7o/+6I+afCgLt132XCEbIXVgNHvlK18ZfDgiayQazRhRZ2ChDqKR60Vr+K+99tpQtq5efxBQojaRh5Tx05/+NHrlf/7nfw7j+I3f+I1JPTEj25prrhn81OunibXWWquJgzCipzzlKaGQP/jBDyJPy8FQAOWLdvmzgfmSJ/6TTz45+PXoC0RdxnA61hlYqIPosXH/5E/+pFGuLsUbBHpaFUjgJw/iGDmYVr3//e+fePnLX94oky4jB3P/jTbaaGK99dabWGmllRreIBQOpcS/ySabhPvpT3+6KaMLbX5mA8qwHOqj//LLLw9emL5mXnP99I8ysR2BZ6xRCz6obvS4rgU/yc+xeXayasWIsLr9wu0C6UlHGneLyItwwjhVzDsa7IABwihbkJZryyIP/Lg5HbtVvE3Ic5pvfOMb1ZVXXlmdd955kY48yYcP4/H0Gz9bv/Vo8wTe2+VzTX3ZqeOVgLPOOisenFqHqSCfIt9DXL4/l5khP7jyisw4fc0X96kPvAnypJxxQVjNuFDdEE1PhL8dXzd2468NJE4De036Nhk3FVEW+ZKenho8+uij0XMyR68VqfHj1o0faQB+iPVNbWQTl1122cQHP/jBZs2ReYBXplWMYGuvvfbECius0MRBT37yk5seON9nnY17znOeE/5/+Zd/CR7gry9Ia31wv/Od70x861vfijjrkuvXhnHm4/Xb3/724GnjjTeexCtEvfSPMo3dyFIrSdPD1Q3R9F5tkI5DjfTefEeLfX4+QdoF8yCe+0CtLBHOM4l6ShE9O0/s6/VD5FUrQqQDPrEG3EPvzEe2KZsXob797W9XV1xxRXXBBRc0ZVEOPT4vSFEWp5a5J+dLPUnvPYD78jVlc49hvHXJQ8B3vOMd1XHHHRevNMMb91m3qUBelKvLG5177713dcABBzzh/kH5wYtxnA2DRz6PxIfDGZGRybgCKY8F1Q3QGQ7lOHoqelfCTj311BgF6PVrY+gk4iF6fyhfs4AnDQtu8hg0erCVy8hx8cUXx1bub/7mb07iDZ7YPmWHitGDNUd75JDodSGvvb+r/oYRzxpm1VVXjZGGRX2t8M3Il/kdBNOQHrDWgI+jjjoq1iDEZxoE5NPGddddF3w6suQZAHXI1yNMnYEjSW1laV8jcJTmec97XsT91V/9VTSUDd0XWRloeBXOa+BzDp61/Omf/ukTjAOX3agtttgiFtv1aDQpDkIR4ZnpomHE5zT5Wj+UjUlFo4PA/eQnPxk8ZqXtU//cCfDy2ote9KLID+O+//77G7lkaqMrDNDZLF++PPJbbbXVwoWsRzGWOSaVBkLIWWEgelYUk3Sf+cxnopFQgKmMJTc86QzLioaxuEWMkWAcbOXSwJknnsH4nAM/DwWNg9ecFj/k6JLjpiLv89rnLBgm7vbbbz9RTxkn1SfXZTpwHx3DKaecEvnxUJN6XnXVVc0IlSmD+NyxAO/Bfd/73hd51lPFcK1H37qPAHUGjiRloWblYzSht3Jr8uyzzw4FoYHy9CHDsExd4H4VgCMlr3vd6xoeUFAMAwNtP3DLfkcOrnM8SqjB5/rgto1rUM9rWoyUa467AOqfjSQr8CAoL6Zw5EX9GKXxYzzE95WbIF6jrddswWv76At1oA0NG2HqDBxJysqTiSkOzx7wn3POOU2jstbARWmmalTiJIFfBaOxMZRXv/rVUQZTK3arVllllYaHrgbP19kw2pTrNaiOEPerXFybJw/7cH//938/6tzVQWT/INApgHe/+92RP+sLZEs5PPdBHl0GI7Jx5nDz5dsE8MmIywNV6zUmhgJ1Bi4K0QMjTK+zAhIOEZYVao011mieqp933nnRKDSOCpNhQwNcrh2BhH7iWeADDkvut99+UYbrAvjKvC4UKRPlgszsKHioqcLm82VZDvpNx3UmHyBaT4jNCAzGLWTuzYaR5Sfa+UIcfdl///0jz3XXXTfcMTIUqDNwUSgbQTaKPAXRYBDysmXL4qk24Tz5dri38WhQG6qrQYFxpPX+rAg//OEP4wQvZW655ZYNH4tBykMj5dopjZsZgNHFNdaguisbYPyPf/zjiT333DPyZeRU7kzxKJPOSFnhKq9BUPaZPvGJT0Tb0cFZH1z9I06dgYtGuddEgNlQII0FQ2ErljAOF9o4NiBubswuhRH5PkBa6Ec/+lFMPyiP9RAu5aus9OrwBy1UY1s2MnIq89znPjd4zbwPgvVUeYGGc/rpp0edPNYjOXL9wR/8QRihxoLrvVl+wjIkcOWVV0ZerrEg5er1CFNn4KKQAutSPOI0IhbTKsoll1wSjeDUS6gwuLmxQPYL0zt9ufvuu5vDi57etXz5wSV+oQxFsgORr3/8x3+cxLsYVE/DkZfpXdRzIJN65jq5ecEJgzvvvDPSd+XdBdJlwqg9UMlOnnIsxjJLstHy6ML82ca74oorokFo8NxjZoXJfmHDtfGzn/0sXJ4puDWMQsJDbsz8MHGhG1lZ+HDvkEMOibpbH+sPWU/9QHm0R4Jjjz026mmPn5WYdnC699WvfvXxOx4DIwvoknOG5YN3vetdURZbyHZAuY1HmDoDF5WycqqYTA9YFBpuozkNUClyoxkHTDMVAUYUzm1Rji954YcnSB4zydNCEMqFLDiWD2/f+MY3gu/2yJqhTKgjMnF3ivSsb5wauauGHzcrsFOzj370o5PknOU9HTTq888/P/LKU7Exoc7ARae2AuYDkTQusNFpABsQ8roLxuF6TT7sfGEoLHApw92grh6PMA1nOkOaS7IMnyeddNJJofzWxzqBdh0hRwGgnyfre++9d+TnDhVkvSmTOrKFjJ+07hJmGQ8y1AzLvP7665vyeJDcNswRps7ARSMVIgvPKQdxV199dTQ8DeViU2S/imKDDtod4prG56n3vvvuG2W4Fd022HxNuqxQhs8nUY6nAtjcYLoIqA/Urpt+44AuQME5RU29XP/gz/XBL9EOuGxRA/OVpgPlcQ9vfe61116RP9PqXN6IU2fgvFBuiLarImYjwe9ODPRv//ZvTQPlqQTXhuNCXWjHmccdd9zRGMpUI8pCkWXjtuXk1IWpDLA+uaMYBORDOuV0yy23NOXk81qDyHXLueeeG3InL/JRjsPgAx/4QORlx2T9Rpw6A+eVVAYMJCtlVhJcejL9vFdBIwMaRyUxLCOHkc60QKWysW+99daJPfbYI8rgyTyuhruYBA9tPpiKolRvfvObo3cGKmwfKBenUSpsfoNxKmKdRPnvfOc7435kCPUFfDrCcyyHPDkqNAry7kmdgfNGCqYtIHsWw+1xIAxFsCAVbUOx4QjXKEA7nXGMKM7X7bExzmy0LKjhaSEadFDv6o6RMnFRn+vYF8rvX//1X6NO1Jt69qkf2/XwyCFRt5CzzPuCzo6tavLy2wELId85oM7AeSWVEWJnpx2ed2VuuOGG6JFoFISsguDqt8FyL9dWJO7ViHBvu+22iZe85CWhiBqKSgllxYWXQYo8H5T50O9DUT5eAf+OmPj7TINIZ6/Oot4vrjBa4OY2mYrcFeNYDLLMMp8O2bAw2je+8Y2RF+uvhZTvLKgzcF4IgbSVUL9K4byYXoyXqUA2EoCwcyNN12Ckzw17++23T+ywww5RjlOQrKCL9RylLRt54vybcRy/AdQJTDcFI10mwIfvyIu6D1s/72ELOaOv0Wjk4LTTTos8x2gLuTNwXgghO+Q7oqAQNpi9J8fCNRR7z9zYfUF6RxLB1IuvM1Imi3n4URFxs8IOCptPkh/4s9z2ot4RYlhDgdgepwy3bGmHYeqn4TIqu27qayiUD+j84J2dTXjIDydHnDoDF4QQug3F1iWC4+08FBowVOeeSGEDwvJoo1Fk48Dv/eRFvrytp6EMUhIbjnjSQu00C0E+fMT/hje8IU4YKIusoIR1TcWQQybwZ3/2Z5FfXqNZ3nSEXJAJaxauWUvaBuY/HTLfvI3pFzM9EDvi1Bk476Qi4ldxMRTWEqBrIZ8bPTdOV0OhQDYMebHr5YtMfZ+jZP9iGAyKzNY55efnSxqG9c6dhiCuTWwMkK+7Wu3y+hD3OVX2SzfImfynA2ngH8IP30cffXTI1mdpI06dgXNCbYXLcZIPw9iVoqfJRjIVcg+VG8oGATbMzTffHCMKPLhGydMvaBB/C0nwgOLY27vRwWvMfUF9VV4VEjAqvf71r49882kIy83Xg0j+uJ9R79BDD40pYZZ5X5j+85//fOTNSCcfjGDDjHgLSJ2BMyYqnIXfrrQ9NC4CIv7Xf/3XJ+699974okoWuo0tdRmCfkA84Jr0uIwoDvVdU4++irIQhEzkB2X0Ixds0+bOoQ+UCfdBvtLLcX7KsCzcvusFeeP1CMNYA1nOdLD9IA2atSn5ONq1eZFHKIcvEnUGzoioGIqoMurS8PhxTcuLVAiA90UwFKCCI8RMhE21PWo67gcuINnL94k8Uy/5w7VhcInvqzDzSVkhHAHPOOOMqNMwyqgcvIc3Pf2wBZ9Kos65LaBhldGHiW4hu+nQB7Yx4IUzOkvyZPMgtwN8UoZtNALUGTgr0kigrm9j0bvh8iV6pl7AUYUGRvgagGj7VQhhmAqCofhmIw2by89EY4yCoUAoBUQvC198XgllArn+U8F0yhKwzUu+jKzZKCwv89CHaF9l+7GPfSzKygYwCNngbS/oz//8zyMvR/42ZZ4XmToDZ0wI394gG42ji0dKDjzwwEYRcq+UhZ79uFzrz+HcT0MYdtNNNzU9H4tR+dAouoxjJkoz16TyqjRf+9rXoj7tjmEQsowYXbnv29/+duTlGTvrOZsOArk6FcOgWQ9Rlu1iO3Qhx9nufNKWvHjgOapt8zh1Bs6K2hVWWX/5l385XBaGGgpC7jICgN+4QeD+3GPx4Tu3IfMaxd6pLXh4HaGeK545wCNf6hco1XRyyFAeKPHBBx8c+bHdaz1xlQMu8mnLZRDlmYLb2t/85jebtsvURq4DftOwA0r5tAVTMfK0zaDcfotMnYFzRlbSqdcRRxzRHOTLI4JG0yXkNmyMtvAZUTxG7tQrC1k/jUKavgqyUMSnlVQWppHUybVa7hCmQr7nwgsvDEWj07CuXOcyhzEUSdn5NP9zn/tc0yaZBoG2Bqbj+j3veU/k6UJ/WJ4WiDoDZ0UIkMr6/xDmt1zzzVxf3c3TprbbhkaBUHNalQKj45tUvEyEIbhn7winkchXV2O0rxeDnKLy4QiRO4Q+cGrDot7nSSzqLcN6OqLOtN7c5wdDDj/88CiXNmlTGzlMHfBUBXm1f8oEj/KawxeJOgN7U1vY7QZwROFXbSi7hBJ0CbMLbcHrVzEwFMtsjyhtdxQIXiV7epXk137t1+ITsdQxjybZbycBlKNGpfvxj3888nMqOhf1z+2Kny9Wyj9b9IDyaV8gX5k/4LXGctxxx0UetJ355REP/4i0X2dgJ1kByKkM4VbEiup325b5N1OvbCgKsQ9IZ1rvQ9DkxRpFPnyy3CZHGHlfTMp85TAWt2yC5I9w5Dq3kY3HdMqWzoM8eQvRLeO5ILebcz0cvfidX0YXz8BwDYUX+rjfDRnzz7rE9dgZC9RmPFcwC5H5LErKkXJHgLah2MjTwbQKmm1m4AMtKH/rSuNA4Nlv/GJRmwdlp8IxbwfKxQ4B6GZla4M4wn/v934v8uMEwHwoWq6HnzXy1QEhnwA/o2G7vWlHvlBJG3mqIOvQCFJnYCdlIeGnEQzLlXRE4dCejYywEBqk8reFNwimRRFUEkcUejsfOA4SdPsB3GKR/HqN/CA/FMGiHnnZqWT5KIN2mDA9v8AgL9tAmQySzbBEPrnN/SzVbrvtFtNH+ABtXoX6QByvJ1N/ZgTkhdHYueXy8vViEr9nwtMLNePNX51qgcUfqwD+Wkjxp6h6jhx/dvroRz9a1T1c81eqWkkm/bEKkE8f5Pvw14ZSbb311lH+lltuGX/YouwVVlghwiirNs4Iqxul4ZnrxQR81aNs8KJ/ww03rL75zW9W9aI+/lBGXK0wITfkCqgDvBOW62G96g4k7rn77rurfffdN/5RWStx/E2Me22f2UJ5UiZlUwfKrkf16vbbb6/qKVX1vOc9L+KBdeDaOnAffnitR6Xgm3DaCxAPuMf7gGUvNsJqhqG6Ek/w10JpDkXyM51aUHW9H0Ndyc5epi+8n0OWHAu3zDYf+VrqOkGw2FQ3fOOH51122aX5/Ko9L0CGjqTKL8sVMGK7w8j3jsmTXTVlQbtYjmXOlsjLOjASuIngFjLr0zafXFM368O/WuCN6TP5tdtpLvmdKxpqZBF1RcKt6xzuSiutVG200Ubx591TTz21OvDAAyMNvQW9vemnAnkNSmc59TQl8mb04K+39Mz46XXseepGiR6PvOTBHpA0iwn4o6eFZ1xkc9VVV1X1dKTaaaedmhECvkkLv225UD/uBcSZJ7Kpp17xn0pGFONwlc1cgLLgAZjvBhtsECPFoYceWp100kkRT5x8m946ff3rX6+WL18eoyojkrC+0CiC2gzNmZVCcLj1nDN+d/2pT30qfthJvAoBcmN3QeEMSmc8PyjF73QL4WuMGI7TF1wVxTxzIy8W4AWe4A3CiLlebbXVHk8xWRamVY5tEIes6xG3OvbYY6sTTjghpkS33npr3JvrPJ/1X2ONNeK34+DOO++s6sV68AbUFetBO/Ej1s9+9rNhLKQ3HWmsN648e4272ICDSVQz1gyD2Q/VlWr8HCH3uYYvAs0namEuaRoGpK8VL/ycraJdaAumRbQHbm63+aCsIz7N53fitYJPWshzDQFOUXOPD2DHiSbNS7BuUNcpXKC/FkjTS4BVVlmlWrZsWQz/Z555ZixOC+YfyN82YGS67777qve85z3RK/P7cUZcwHVux/kE5TC6UeY111zzBF0BXDPiMaoQj99wMGj0HDVQo0lET1FXYlIYPRVhuJw49Sea/O7A3qNg4UDPjcz//u//PtrBr/3nNoMI6wqfDXXlh06gH7vvvnv8UhCdgOQV4vd73Ivu1MbR5IV/rnmcJ+oMnERUxuEdofgg6p/+6Z+iwRAKuzIFCwN2BVE+XpdGQTl8mT+/Ot+K1+5IIfTDM3l8+Bv+0AlcwEf9iHPnDB7rkbG5X+MZZXrCNKyuxONXjw2NhNUGEcM70y52Wniucd5551V77bVXpCOOKUHB/IJ2ACuuuGL4TznllGivNddcMxbOgOtaNxv/XGKq/NABNlvAd77zndAddyAfeeSR6rjjjmsW+IRBxJunPI86JlmPVFdmUg/lCWKeNrOIA2VEWXgwkgPOYtEebrC4oLfNcGlD/Lj6Z0PmkfUiE6eQGSHe+ta3Nh8e4bkKU0Xu8VXpcaWBDx5qQ2isvW6IavXVV49eYJ999qle+MIXRji9Cb1FwcLAnhr36quvjvaQGGlsL0EbAuLbcbOBeZFvdgmHD05YPPzww6EfjCTnn39+8M3WPy6Qb/3jgrAaqGZ6Uu9hb8U14b5Yxf/W+V4uqAXSLOQK5h/IGuJIPO1CT15Pfya1E36vbUv9syF1o32NCx8e3OTpPGAUhNfrrrsu0vFqM7y28xkj6gwcSL7L/du//dvxX3PAVCxPxxAQgmIInktjcgoCzJP8xxEq0jAgPYSscf1msR+PaNNCK6UHWjnMCXgOpF58+MMfjjQu8OmIM39zZdDzTJ2BnUQFcfmyIxXl/W5OmgKVVuMYVhH6gnwpA2WjMSx3vsqbS8CjyqOcZgLrjOxf85rXRJtwxN32sfee69FF5SYv/ZZD2XzMnWt+kgSonx0mHzR3psLfyzJ/c8HbAlFnYCdRQRoCP29Acs1vA/xdG4JRAbpGgblAV16G4Y4yDcJUcRnIV/BRbu675pproj188c32mQ9FJC+Ids9EHC+a4TLj4GBnu/3h/bzzzos0vj4Acf+4GAur8/fW1At1vRv33nvvrbbYYovq0ksvjcNwu+66a7Xqqqs2R61rATQLzFog4SdsNiAP84GHukEinPz1jzKUB4Bf+LYe+qeSEWlqpQu3Noq4jwOsdc8dW/n1NKiqO67HUz8GNmBst7mA/JEnfFgnznlR9pFHHlltu+22TXuQHv54tFCveePA5WWXXRbnx9gEMI31H3U0ltOH6oo1vQuux8H5HTZflqyF10w1ck9YC+9x38xhfuaV82RKNi5ARm24DpGmA2mcjrnYZ1ThvB7THadktE1uv7kg2j5fU65rWb5TBtQBYZ1c7Ptmq3rUznMUiW4CT2/QA9QVf/zqsZ6LU8dsF+65557V3/3d31XrrrtuMwKQfq7AOTReMFp77bVjS5Leyx6WcnBHGVl2td5Eb8tIvMMOO8TReuSV0b7O4H5AnWvDqM4666yqXr9Um2++efXd73434gBxlJnbbLagzckPHqiTL5oxu4AP60LdKB/IL+k5xn/44YdXm222WegN+Y1624nGcvoQvQBuXekmDL9f5uC3EXfddVctm5/vktED1sKNsNmAkYsP9FmuZcsT7ihTlpk9P8T/7JFPm7qALPOI7ejCVv5+++0XbVB3Jk3eUi57pmQe1ke/5wRPOOGEJ4z+gDCuHf1Z47Ihwb18ISbnPco01MhSV27gvJI4Xj6iV9txxx3jJPL6668fcfQcxM8F6K1OPPHE6g//8A/j4egPf/jDCKeMUQeyQw7KkV4Xvm+44Ybq+uuvr7baaqvHU/4cWW7en0GPXCtahH/lK1+pdt5556ruuGIUJn/umcteG37Nj3Jro47yWLd+8YtfrHbbbbcII450pPcaXmrjjrALLrigqqfuMSvhNXRA/KijsZy5IL9Uwt4/B/3oIen9oK7ekjB6nT6w1+IoBZ9XopxawcKtlaXhAco9Vd04k+JGgeAX8mMVb3nLW6LnVR5ZVspwEIiHkA9fiCE/R3rl0JbPTCjL0bxx/YqmfzAGtrf10HW7H5djMdzHVyjNu4vfueB9jqgzcEZEhamYX+vg+7p1DxeCYjoGUISsDBpKX4MxHQbz3ve+N8plk0FhU658cJ2NZhSIk7bwJxHmJsnFF18cdbNzUVZTGQpQKSHkTZ58tM+pHnnPhRzIo52Pv8w76KCDmn9Mwgd86wJcdUD3xhtvbPIgX+WhO4LUGTgjUkEhRhgr3fUz1ZlApcmG94EPfCDK2GabbcJFQVSSrJCjQG2lhU92kpi3E1dPK5tfcGSocIOgTKW//uu/jvzzt9Ry28yUch76fWbyN3/zNw0vtjPA7zXtZrjrl5NPPjnu530c2woZjejx/c7AGRECzAL1aAPklqJCUuHBdMqQ4TAOIXhGmOOPPz7K8OsymRA0wp8LZZkravfO8Khin3rqqVHP9miiknWBOIhpGC5/KNhjjz2izoww81F3eM5bxl//+teDF3mYDqShjiz2PY3MOzkahu1meSPSfp2BMyIqBFFJKkvPiRIoAD7ViZBQcHsce50+yCOKwsaPAfG9XMrmZIHltXlrhy0GyQeuvadK4VNwfuEA7BCmA2kgFNV1Ha9RkBc9f1vxZkOZf9dbe+65Z/N2ZO4Ep+Pd9vviF78Y+WB45j+ChgJ1Bs6IrCCVy5XlNKoNpiIoSBt6OsEC0zi6AI0FJfngBz8YZTs1oDxJXkaVMBw6Fvg/7LDDmj+hUU8NYBCy/PRzr9vsKGFXBzIsteUIv/D9/ve/P8qEV9sFwIPo4o+0+KkrX+Knc/XL/BJ8L0ljgXKjZOGy48E18bximoWXBTwsELp5oVSuYfhxEkLOc9/FJhsdOeD3Orsa+qWXXtrUiTpmxWuD+isDoHH5iVueu/jy3lwRdfDFs0suuSTKU/lF5rmLf42Lj/LxzWPy8pvH6hHuCLVhZ+CMKRsIc1pcFUNBQBjMbGEDMK1j+EfwhDnCdK1hRona0zB49uRu+yuV0CC0jcWRFpxyyimhcCr2bEg+yU8lJuz222+PspQ/rjxlvnIYZPv5f36/+q+hQMgku4tMnYHzRvzCTqFfeeWVIbD2NCOvTVSSLPTpgLJ85CMfiTL8PhXCtlypK2wxyV08FdsdJuoDlFOWxSD5GP7ggw9O7LTTTpG3T8vnQgGdLvEiYF9kA8G1XmeffXa0Q94Rk9rXi0ydgfNCKibTAvz0TH6UrWt3TLcvaAwaAJf8OH5BOe62dCmHfMxGceaK5IHDkHxFBz/b7tSnbQxAg0BO2e+1yvilL30p8sIIuwxlGIU0raP2Zz7zmeDN8ocFPL7rXe+KvDwCY1mQOjMi1Bk4b4SwEQC9HESP55w3K4XG43Vfw6HRvJeemD9gUR4nCnBpDBskK4m9+igQfLLGw3/kkUc2MsDtkkNbUak/RP0h7jnkkEMiv/zshXJw2wo6HfHylvz5SGCY9tGFR7aO2YCAF/6paRnyNFMe54k6A+eVEADEUM7/PVjb5KfXfQU/FcwDl//AUy6L5y7hGzYqpOH6Qtfll1/e1EWDyTLKfuI1LmTp1M2n5Xl7NtMwMvCgJs9y/BZDH8gX0H/11VdH2YO+/AKvI2IoUGfgvBG9OZVHQLhMNxA+fj7aBxAkDQ0xTOP2QVYawMLfRuFJMWVjMChjboA8wiw2aSjw57pg7733jgeN1M9pJkaQ5WLdcbNSAq4J/8u//MvIH8VU/pZl+VMR6ZCV79rzty94aJc3CKZjRLFd//Zv/zZ48UxhmxeuhzHkeabOwHkhKp6FgRAgDuJ5zJtXT4HTB2EPOR2ycXE/BgNoKI7CUwbK0m6EUWiQbLTy4zrjU5/6VNQjdwCDQP2VAa6yY7G/9dZbRzk8UFT+ljkd2XaOAs4Gcjv1AfxD8MZryOTlGbOsH163wxaROgPnndqKylSMTy2x2D7rrLMeF2v3DlAf0IA2omsY8mArlTJ5DjNKI4rU5omtVBb8KAzPTagTMsny0J+VFr8GQ7ydjx/n4ygSeSJ73D6yMK1b3jfddFOUoXz7Qn75sAX5UDYdpkahq18ybBGpM3BeKDcIgtdgFAT/a3eE4SuGNAQNnBVjOpA2Kw15GGY+GAxlojBOe0bBcFRCSflwAgI+jznmmBg5RTYIkOWUZZBlwsck7M3ZfRqm3sjMs2C/+7u/28gW5LKnQubloosuirzaz4Dgqa0bo9A+NXUGLhohJPfbmc8iXEilyCNNWyGmA/eaT/6lHIpo40jtxmnHzwe1e095INw5PQtikI2kbTSDoIz4cDd5MfXxwfF09YMH+GHTgbT8Z2UmsD0Bx2TIK+/QjTh1Bi4KobQ0CluIzIu55sGcU4guhSC8j6EAemXSM23gHvKmXHo2lUUFxc0K1Fbk+STLggf8kKeHX/3qVzfvjYA+RiKsO/jYxz4WZbgmao+w1F1DkgjzFIZn/IadgsEDYMOCPxyTF1OwLOsRps7ARaOstJ6TYicLIefGBiiKhjKs0ui6G8OUTEWBVFLicvh8E+VRrn6v4cGFNWu6PEoC6zQdHJnvueee6NHJn+lv5sH6ygfX+D0Vvddee8XhR9rC9uhbvrt5fuXF35dY1ohTZ+CikYqhknpchW1PQOPY4LrDGAoNlQn4shRTjHZvCqk8C0FZUVUgXRb6rmv4/BGw7tZlKigvZMh9bNWTl59/dXTJbubBN2B5bgXIYxjZ506K3yq6qUP+Y0KdgYtCNox+DAY/BoOfRrLBc09Gg/VRFu9BWfBzn/lhMJTh9E+Fyfzk6/kiy2nLQj9rF/jkGwSZ/z71B6T3HkYHTvuSv9MrFFi5a7hcQ77Mx44ayOX3gfJndOFIPnl5Gh3/GFBn4KKSyoHCKkgW/Vxzotihn2cOw/RsIDcu99KA5sezDMpm+pcVdDEol5/9KLC7R9dee23wbT2mAwaVFRawYUD+fgE/l6NfwpBoAz5MQZnKPuc7HbiH7x5zupryPNy5kKP3LKgzcFHIxspTkdy7OSXjnRVfjurbo7bhfeZhY7OGoUwfXFKevOhfKBpUvueyfuu3fiveBQF95GAaOwenY3zhnvzzdxM8XIrccTlNgP/tb3973ENeWYZ9YPqrrroq8qQDxIWs24hTZ+CiEQ3iaJKFqF+DOfbYYycpSt8GE9xjz6jSaDgYDD0oBkNvStnyNN/UrvOgHpfRj7hzzz03+B9mOiS8h48i+jkj3UzU3c2FM888M+4ZVt7Axb0PhvPzlfYzphGlzsCRJBWHX17gP+qoo2IblYZT0VUA/NntCw3I/7UzT+cpOn6UN69lNCDcrOQLQWyvWz4vX8G3JHLd28rttcdn+Os0eSFby1CBcdkJo47f+ta3Ghkr80EyNi6n4aEoIyL5tt+vGQPqDBxZcnrgEP6Od7yjOflqzwV0AQqUrwfB6Qkg/T/8wz9EGewC+VouCqqSEpevdeeTLBO/266s4wBKbMeRjcO6q9z6Sa/iI0OVWMPAT6fkhyn22WefOF8GuD8bZhcoq01814wOhzwHjZojTJ2BI0lZSXHd8uRtPadkrGVoRJUFV/90MB1Goz//XYv3OHL5UxG85nRzpRjm6WKbZyW4vJqb660RAJS0jRzmYp9/vcC3eVoHp2DsRnof5QwaxQRhbbrgggsiL08u26ZjQp2BI08IGXINwxcReSoMUPY8ykzXA4qsYPgxPHDOOedEGSgNI1vXVAyi8VWATIabbqZkHuYHsdjHffOb3xx1pq7WWxAGUSeUXMXNIA65cQSFMvKpBo+j+FareSjXdl7CciTK+OM//uMmTzsQ6zUG1Bk4sqTyeY1fg3nTm97U/IWsqyHbjdcmkBXBMJSI98QpA4PhiTd82Ngahf75ml7kuuNitJTlSYfPf/7zwa9GDqgDdRoEp56kQ5nZFjZ/pp6MpvhZ+PPUH3TJqAvEZeIvCMuXL4/8nepZJ4jwEafOwJEklRAX4eLayztVYN7tT5U0GBaxKEK78doEVCzSA/LQz84TZfDUGQXFdZGqwbQbPStEDp8J5REtE88siKO39uPc1gdoEKJtPKZVXux4wS8y9ZtjRxxxRCMnjSSXkf3CNJK/9GM0HFSXEafOwJGlttJpQCgki36u+U+JvSCKbk84HWUDAVyjaFwbxrksyrJ8/LxWgKKy4PZTRsTNhYEMolxvyvFUMl+1EbkeQCOxrsZzDVy78GNX/uRGfn5Dmqko6ZRHG5aRoVwltuTJy1MI2WDmU1ZzSJ2BI0sKVWUxzGuPZLBzg8HQsDQwjdluvDaBrAiG4aJIKsQNN9ww8bnPfS6e9Wy77baT+GFNw+ee6JUxIj/CMFfKQD6SYRqnu2Ns72IYkPXBtdPIyAYEvP7qV78aefFmJS7v8IO2obTvzyAs04EHHhh8+7o0/jEbYToDx5IUPCMMCsTp2DvuuKOz4aAudMVxrZL4mjIgnDUS33DGeI4++ujoiSlbBcZlusaCmdGHLVP4RFFM06U0hEE5DPKeLvJ819ve9raGz3wkqKtuGdYT4j5/6fGKV7wino/0ub8NOxjagbw84dyuR1ddR42G+vPXqKPu3Zt/HW666abVTTfdVP3qr/5qdcIJJ8RfsOpeP9KRpk3cYxz+HFf3nuHW65PqBS94Qfy9qm7cCMMlb1ArWPzrknL5VyJ/87r44our6667btLft+p1QPzZ+aGHHqoeeeSRqp72RJm1AoVr3oA65XuJy2Xr517cuqOIv6994QtfqOrRtckPWEevB4H6USf+5lWPViE//kIsBt2fy6qNJFz4J4y/ku2+++7xl+LacBpexg1hNUuBcm9VN1Az3M8FkR8uU7BaKSfN0fEzTXNKIkjH/J9nIKx1mLbxdch2nryxmEcew/Nok/3Ed40wTAVZM+FnOurOoGsR+IGmAqOKLmk/8YlPTFx44YURNsz9wLTIJX8sxCnruNGSG1nshfUvW7Ys/qZLj1+326ReUb8uvTN+r01PXhD/PjzssMOqD33oQ3FdK0MQvXDOGz9lO+JwrfvAAw/Ev+DrNUBVG1F16aWXVl/72tciXtRGHnzXU5/qwQcfjP/FZ74o01HIcnEZOenRn/Oc58TI9vGPf7w65JBDmnu8X7eNem0Xf38G8E8dGf3Iu157xTUYdH/mBT6oP3zC/5ve9Kbq3HPPjT9Z33fffcGP9wDytu1GFdR6yRgLaAvdxsO1kW0gkP2gKw1hNHrd81e33nprddFFF8WUQqVVcS0LIkzAj3kA78PFGG677bbmt+WXXHJJde211zZ1oD71yFOttNJKYfAoNNM2/JYHdMmXe9ZZZ50wSqaA9SI9pogrrrhipLGOg5DrYto+xgasG9BgmBZuueWW0Wn99Kc/jTRtvknH9G/UAbdLgupGbPx1g00Kw+1D3NemWvliGsQUiesXv/jFzXk0p2NMP6BayWP64TXIYfi5h2vDBNf8FIhpG8dseNrtQ7xcJxbyPOfB9ZSwvOv6HS5esqIMy4OmgvyQzm1iXMOmup+6ZTg19Y1MdyrhEbftHwPqDBxbQqlxVZp22DCk8pk35NNyXosFbeVBOTQOkRVQhVKBQd7aBrqk4eAiH4fgOQcf0N55550bXuSNLWPWPOy68WSc7WriPLLCn7UA+Zp3F4yDFzuBHDbd/Rmks67vfOc7g09fIVa+1mNciPEUz5JA3QDNsA7ydTsugzjQju8KZ11QK2BMg5g6MTWrlaJz3QKR1vDsgpwWf61gjQuRp2kAUymmMfz7P695rr766kn5Mm1jt40w1i4vetGLqvPPP79aa621Ij7nmSEfbb9o890GcqC++uH/zjvvjH/j33zzzXGN3ADpqCMgP/MedcBloZ7EKMWODj32+973vrqNfz6adCH3sMOA+9rUBQ6P8vNT3kfhI3w77rjjJH79IgvfSXO0APCU8xyU/zAwD0ZEpmCAf/AgK08YjDl1BhYaQBgLaxi/Rn/FFVeEUrQNAsVx+pWnXMOAezLlMlB81xIZrHn4iB7TNoxnu+22a3ivF9qRj2uJuQZ5W2fzP+2006LsYiz/H5ML6Fe96lXxtqbrjqyEbcUZFtlQINcNOU5/Lttwrt0w4KdDfBI355HRFTYsMj+AUwB8PYYjQMprzKkzsNAUxMjC1MJXA+r1QCiHxoGyaDxezxTcK2VgCNkI8VsuoGzLx2U0gXJ+jnhdI9RMQVnmx7fNkA+y4h/3WYbjSD9/GFDQCyxMa8WMxSkLbRathx9+eHX//fc3cSxY8QPSzWYBy70QIC9h/ubLdS4DvkzDcxfIB46kgwjD9RjQbEFelAvVhhgPceGdIzM8mBx3FGMZAjS8Coui1YvrauONN46dnnqaM8koiFdhCVPhZwrub+dB3jmMaxRfHuWFNBpO3fOHH8I/l6A860rdr7nmmibc8scdSLRQT6ob/Qlh/oaBtQFgKuKUDOTp0mxQG0GQ8Jr822Xk8k1nGGnNR3cueCQvp2A8H+I3esiFz852yW3cqIwsQ6Ldk3uN/5Of/GT01owqtfJFDw/NVa9KWVCti00PnomyhDwA0xMGMj/cB+aCR8pgRAGcLOYZECMv58ssZ5xRjGUIoFBZIQEKwtrlGc94RnXyySdXX/7yl0MxWB+ogKRhDo/y4mJQhKnMGRqZftJl4n6NI4dz3Vb4bBztuPlSXvgDPDS13Gy44wyk+d7HvAXTAaWk8VVUXZQbFyPgvQ2u6+lIhKEoHIJUcbiHMO8lLMM0+gHXUk5vGPl4vZig3owsnDQ4/fTTY83CSQLWdksBSPcxSRf0ggqKYqicKiuKwbF6wlFqetM3vvGNcdzkV37lV2JKsvbaa096CY20pMN1JBDkSxpAHNeWSbiGYz7GLRYYVTAWjrhsv/32ceqZk8acrCZ8rjcUFhrFWGYJFBYl1mDWWGONIJTj3nvvjTchUWIV+uCDD6522GGHOLLOlirKlKdsTmPIT+MxLhuL5eGSt6PVYgE+IHhldN11113j3Bzn5+BtKUzDirHMAXIPLzQiXkXGIIhDcQBKTRzvnBxwwAHVC1/4wurZz352KBcvfeX88KNoGo6jEOHEk49xiwHKF/AGX3/xF39RHXrooVEnnrUAOg87gnFFMZYhkHt1Gh/XHlMDIFwlhuxVUaLVV189pmorr7xypOH5TMby5curPffcM4xnk002iXf1GaU0GlzBNTCOshZ6ZKHMDMrnVDFvRZ555pnRGfCwFh6VzzijGMsQoMEhFRS/xgJUWpVCBTct/hyHIa233nrxyi7TNbZbCTPdzjvvHNOZXXbZJaZspGXkAZZLOvmCpsJ08cPCugjyv+WWW6pnPetZ8fow09B2mnFGMZYhgDKg5O3RJEMDEabBCExLfDsvFv2MIquttlqMTvTQLJRz/vvtt18Yz/Of//wwng033DB22kjTxUsbpJkrdJVF/rxyzVdlmILxlZvpeBonFGMZMThtA0zb6KFROHaUIBUeQ3vd615X7bTTTtU222wTL3zxmSGMjrUB+ZBWwyRP7oE0rjayYnMfeQDu7TJ2QH6C8OOPP7465phjYucPY+de0i4FoynGMoJQAVE+wDWjDW864nLNV2J4Mg5UxoMOOii2qbfYYotY87jTlpUdQ+J+rzUK3Kz4gjTk77ZwhnGA+/mQBqPfFVdcEesVeCzGUjAvQGlRLqASqmQoMgqZFY+Rhx6c9Q5fiNG4SLPmmmvGMx42C7baaquYtrHeyWkE+WEMGBbPQtqnkDUKDUrjA4QRzzWvOfMRQka4u+66qwl3WjnuKMYy4kA5UTrInt/rPOVik4D1DrttKDwLbcJJh0Jvt9121d577x0PR/lqJdM21kggjyikxRjIGwPhJAJGRD4amH5c4KhzxhlnVPvvv3+sV9jpIx/TEE+6cUYxljECCpqVVJcwlBEjwUBUdgyCcAwA4xGk4cHovvvuG98UY9rGh/3cpgYYkMpN+rahEIffUYgjLkcddVScj3NkaRvhuKMYywjBUQRoGABFI5x4lS4rryBMZTYv0jMyMOow+riG4WOBpiH9S1/60njO4wNS1hx8lA9DceQAjDT4uQ8iD4hpIOsk7nn00UcjrXnjLgUUYxkxoHggG0VWNuKNc2pDGtCllKYRGgjTNTYMGBk46MgnVTNe+9rXxieMOJaD8XASAUOQP/LA6Mib7evLLrus2mOPPZbkLlgGtSk0glQr2xNemqp7+knXUxH345JHOx/jIH6Hx0fU+Z9MbRgTy5Yta+Ll4Xd+53fic0pXXXVV/Def9/kzTjzxxEjvV1wyn7XBTipvXKmMLAWTwLSr1v1Yv/CMh502Tg8zUgBGFkaSAw88ME4W84yHLWq+Q3DOOefECMSWsWkdBZcCirEUTEJWcPz1iBDTL7adXcyz3slgh42p1z333BOG5JoFcD/GtxRQjKWgAaNKHkFQchU9GxEHQVnvYESsWTAeRyTS5LSE48doDBtXFGMp6ERWeBSdaw3J0QIXY2DU4XQxIDxvKhRjKViSyAYCUHSgkbSh0QAMhHRcmw/3tw1snFGMpWAguozHEcXRgjR5a5ow0B5hlgJ+/oi1oKCGyg7aI4GjhKMH0Bi8Js772vePO8rIUtDAqZKuwBAMc6TJadojECDM+JzXOKMYS0FBT5RpWEFBTxRjKSjoiWIsBQU9UYyloKAnirEUFPREMZaCgp4oxlJQ0BPFWAoKeqIYS0FBTxRjKSjoiWIsBQU9UYyloKAnirEUFPREMZaCgp4oxlJQ0BPFWAoKeqIYS0FBTxRjKSjoiWIsBQU9UYyloKAnirEUFPRCVf0/x9gdXE/bhgcAAAAASUVORK5CYII=;" vertex="1" parent="1">
          <mxGeometry x="554" y="288.10999999999996" width="23" height="23.79" as="geometry" />
        </mxCell>
        <mxCell id="EQOgW9wFtIj6ZhYMa9qf-7" value="&lt;p style=&quot;line-height: 1.1&quot;&gt;&lt;font style=&quot;font-size: 6px&quot;&gt;Loads Additive&lt;/font&gt;&lt;/p&gt;" style="shape=parallelogram;perimeter=parallelogramPerimeter;whiteSpace=wrap;html=1;fixedSize=1;strokeWidth=1;size=6;" vertex="1" parent="1">
          <mxGeometry x="324" y="330" width="80" height="20" as="geometry" />
        </mxCell>
        <mxCell id="EQOgW9wFtIj6ZhYMa9qf-8" value="" style="edgeStyle=orthogonalEdgeStyle;rounded=0;orthogonalLoop=1;jettySize=auto;html=1;endArrow=none;" edge="1" parent="1" source="EQOgW9wFtIj6ZhYMa9qf-1" target="EQOgW9wFtIj6ZhYMa9qf-7">
          <mxGeometry relative="1" as="geometry">
            <mxPoint x="440" y="330" as="targetPoint" />
            <mxPoint x="330" y="470.02857142857135" as="sourcePoint" />
            <Array as="points">
              <mxPoint x="360" y="470" />
            </Array>
          </mxGeometry>
        </mxCell>
        <mxCell id="EQOgW9wFtIj6ZhYMa9qf-9" value="ClientScene" style="rounded=1;whiteSpace=wrap;html=1;align=right;" vertex="1" parent="1">
          <mxGeometry x="554" y="590" width="140" height="60" as="geometry" />
        </mxCell>
        <mxCell id="EQOgW9wFtIj6ZhYMa9qf-10" value="" style="shape=image;verticalLabelPosition=bottom;labelBackgroundColor=default;verticalAlign=top;aspect=fixed;imageAspect=0;image=data:image/png,iVBORw0KGgoAAAANSUhEUgAAAMsAAADSCAYAAADkIjRgAAAAAXNSR0IArs4c6QAAAARnQU1BAACxjwv8YQUAAAAJcEhZcwAADsMAAA7DAcdvqGQAAD3aSURBVHhe7Z0JuH5VVf9PaczDT5kFHEAElEBj8CcyBiFghWNO4BAYYhEQoilB2oOSkqKEBRpRlhKgEBgCIpGgID1giAOYIjMoowpC8/2fz4LPcd3Dee897x3f9/7393nWs/fZe5+91157rT2dfc75haqqJmoqKCiYBr/4uFtQUDANirEUFPREMZaCgp4oxlJQ0BPFWAoKeqIYS0FBTxRjKSjoiWIsBQU9UYyloKAnirEUFPREMZaCgp4oxlJQ0BPFWAoKeqIYS0FBTxRjKSjoiWIsBQU9UYyloKAnirEUFPREMZaCgp4oxlJQ0BPFWAoKeqIYS0FBTxRjKSjoiWIsBQU9UYyloKAnirEUFPREMZaCgp4oxrIE8Qu/wCesfw6uf/EXH2vqJz3pSeEKw9vI6Z/85CeHv432vVznso0fVMa4YWnUoiCQlRVXmpiYqP7v//4v4v/3f/834jUawzO45h6A+z//8z+NweQyiFtvvfWqTTbZpFpxxRXj2jLFL/3SL3WWMY6gVuUr+kscWbk1HpUaP5SNAIMyDmAoGMxTnvKUaoUVVohrjONHP/pR9bOf/SzuxSAwjP/+7/+Oe0DOYymgGMsShIqPAmdlVXlxSaNRMMpgDIIw066xxhrVU5/61DCEO+64o/qP//iPSK9RHHroodWzn/3s6rTTTquuv/76atmyZdWPf/zjiDMf+FgKKMayhIBidkHj0SA0BIHyYziMGquttlq1yiqrxD0Yxn333Rfpnb696lWvqnbZZZdqq622qjbddNNq7bXXrlZeeeXqiCOOqE4++eRq3XXXre65554mvaNSu8xxRDGWJQSVvi9Q4JVWWilGAwzkoYceCkUHTq1e/vKXVy9+8YvDOLbYYotq/fXXjymYoDzK/fSnP13tv//+1dOf/vTqtttum2QcS8FQQDGWJQYUEwIoaFZSplKrr756TK1Q8P/8z/+MdQdTKo1j1113rfbaa69qm222qbbccsvqaU97Wow4xAvSmZ78yeu6666rXvCCF4SxMF1z6qUBLwWDKcayxKCxqKwYCCMHBoLS3nLLLRGu8mMQjB5bb7119dznPrfaaKONwqA0BoipFFMywsgPpVf59T/wwAPVK1/5yuryyy+PqdzDDz+8pAwFFGOZR6AkuQc2DHBtHMCv8mVkRXP+D0hPHMqY81l11VXDOBgNiKeXZ+QwD7Z5X/ayl1U77rhj9axnPat6xjOeEcZB3vI2Uxx//PHV0UcfXW244YYxYrlWgT/4HHcUY5ljqHAqJ9f6s1IDe94u5LT4yQPCT57exzU9OQtrwjGORx99NOLM/+CDD6522GGHmFptsMEGQfIJUGqMRT5niosvvrh66UtfGkZ40003Tar7VHUdFxRjmWOohFMpnsoPcLNSgRyPEudnF06rWJCjgD/5yU9iCmR6wl7/+tdX22+/fawhnvnMZ8aOlYty+WO9Qt6kHwaZzzZuvvnmavPNN4808MdUDD/1yZ3EuKIYyzwCxdQQ2kqG0tPTEk4alMm0uCgxPT4uO1ZrrbVW3IMC3n///c0UB9Cb77bbbtW2224bC2xGDowDJQX/9V//1Rig+WIoxgPL7Yt2fQBGfdBBB1VnnHFGjHR33XXX4zFLA8VY5hAqu36V0emHyqirgdjz2suvueaaYSA8vwA/+MEPJvXML3nJS2LXipFjs802qzbeeONYowDSmRflkrd8EI6fcMqFNBx5GgZtgyEvtpDf8pa3BE+333578EV45n9cUYxlDoGCohQoEUqJAnoNNArBSEFvTDq2aBkNiHfHSgVmp2rfffeNqRULdEYPF+XCRTw8cJ8ECMevYXidwf3wMwyslyDPa665JvjEiL/3ve9FuIY77ijGModAWbIiqkwYCQrj2oMFOesOwiAe4qHIgLQcH9lvv/2q7bbbLrZ2WXdwD4ZEetOi+E7lNE6Qy5cngJ/05AHIj/tADh8G5g3I/957762e//znxxSM/PIoljuKcUQxlgUAUxGmVSy0URqNIyvx2972tnhSzlNy1hyc5s2KjF+Fzv5ByIYA2tcCHjTCmSLXg42Dd7/73dWJJ54YW8h33313lKuBjzOKsQwBe0gIZRUoQ+41MQxGAp55MLViQf7ggw8+HvtY+je84Q3V8uXLY4rFs4511lln0rSKMtroChtFnH322dVrXvOa2Bn793//97EfUUQxliHQNgrgVMP1ByMCSs1DOXpc43kQuOeee8bIwQFERg93xHDpee35BxnFqBuLo8f3v//9OEvGaWVOIDv9HHcUYxkCKCsGgKviYjyMHmzPcsiQaQfYZ599qt133z3WHPSwHCNhxAHcq9HhmpfGMgimG1UgG4z/kUceqV772tdWF154YUw9Obm8VICxFOpB9TRp0nWtvBP1yBH+pz3taeE/8sgjJ7773e9O1AoyUStOrT+Poe5dJ2rDiDBcUBvYRN0bRxwgvIvGBdaHOn7oQx+aqI1/4ulPf3rIpx49J8luHGnqrqxgEvIilV6+1o/oSXlazXQD/2GHHRbbpjxE5DrfQ3pGD0cIpl/4marVRhFhGcSZdhzAmov6UkcekFIn6giWwlSsGMsQyIqu4qMgPPdg6nH66afHwzjiAIpCPNe43osRCfPEFeNmJBkYPuAEM+CsmmHjjmIsQwAF1hAAfp6233jjjdUee+wRR93pQVV0RxXv816UB38edcB8G4k8DKK5gJ0Da5VDDjkk1nLs9C0FFGMZAo4I9pQoBR9xYFQ45phjwnBQdoyAKQiK4z2EO3pwH9cq1lIBdaLedBjUjedG1I8t9KUwuhRjmQE0AJ6scxS9XtRXO+20U4ShJEy/NIwuJcmjR/aTbx/jQSHzGsd78kiFwpqf6wXu4Vqi7EyzhfkiA8pimxxQPnLoKsewcTCmYiwzBNvAPK1GOd761rfOWtnIR4XCb1g2CuA1cTkd4H78GIkLa4Cfh6KcOSMe5cWYNXpgHrMBvJOvxHstPG/hxAIPaQeVQfhclD/fKMYyBFRAFMG3AU866aQ4y0XYdJhKWQR+lA5FVvkEYV5jNBCK7/2khzAaNhw49csLWRw94cWvr3zlK5GO50LkZW/OiMR9cwHzgScM5BWveEWEcfDTcNPkMrMMRhlwWagn1Q088dSnPjX8uPfcc088C6mVtm7v/uCeTG0YVit15I2rv6usBx54YOJ73/vexKWXXjrx4Q9/eKJW0njOIc8777zzxMMPPxxpc164XeXPBuRHvuCzn/1s8LHppps2Msx8QYaPAXUGFpqCNttss3gA+YUvfGHSQ8W+QJm4D1KpBHH19K4Jx+W6jZ/85CdhHBdddNHE8ccfP/Gyl73sCYq38sorT2y77bbh//KXvxz3aRg8QMxG0uZjJsj5IROuv//970f566+//kQ9ooU/GwvuGFFnYKEOopE32GCDaOQDDjhgop7qNMaSFWU6oJjZWLwXv0qbDZCwhx56aOLGG2+c+NKXvhRPxzEOeFIB4WmdddaZqKeEE8985jNj1Nt8880j7o/+6I+afCgLt132XCEbIXVgNHvlK18ZfDgiayQazRhRZ2ChDqKR60Vr+K+99tpQtq5efxBQojaRh5Tx05/+NHrlf/7nfw7j+I3f+I1JPTEj25prrhn81OunibXWWquJgzCipzzlKaGQP/jBDyJPy8FQAOWLdvmzgfmSJ/6TTz45+PXoC0RdxnA61hlYqIPosXH/5E/+pFGuLsUbBHpaFUjgJw/iGDmYVr3//e+fePnLX94oky4jB3P/jTbaaGK99dabWGmllRreIBQOpcS/ySabhPvpT3+6KaMLbX5mA8qwHOqj//LLLw9emL5mXnP99I8ysR2BZ6xRCz6obvS4rgU/yc+xeXayasWIsLr9wu0C6UlHGneLyItwwjhVzDsa7IABwihbkJZryyIP/Lg5HbtVvE3Ic5pvfOMb1ZVXXlmdd955kY48yYcP4/H0Gz9bv/Vo8wTe2+VzTX3ZqeOVgLPOOisenFqHqSCfIt9DXL4/l5khP7jyisw4fc0X96kPvAnypJxxQVjNuFDdEE1PhL8dXzd2468NJE4De036Nhk3FVEW+ZKenho8+uij0XMyR68VqfHj1o0faQB+iPVNbWQTl1122cQHP/jBZs2ReYBXplWMYGuvvfbECius0MRBT37yk5seON9nnY17znOeE/5/+Zd/CR7gry9Ia31wv/Od70x861vfijjrkuvXhnHm4/Xb3/724GnjjTeexCtEvfSPMo3dyFIrSdPD1Q3R9F5tkI5DjfTefEeLfX4+QdoF8yCe+0CtLBHOM4l6ShE9O0/s6/VD5FUrQqQDPrEG3EPvzEe2KZsXob797W9XV1xxRXXBBRc0ZVEOPT4vSFEWp5a5J+dLPUnvPYD78jVlc49hvHXJQ8B3vOMd1XHHHRevNMMb91m3qUBelKvLG5177713dcABBzzh/kH5wYtxnA2DRz6PxIfDGZGRybgCKY8F1Q3QGQ7lOHoqelfCTj311BgF6PVrY+gk4iF6fyhfs4AnDQtu8hg0erCVy8hx8cUXx1bub/7mb07iDZ7YPmWHitGDNUd75JDodSGvvb+r/oYRzxpm1VVXjZGGRX2t8M3Il/kdBNOQHrDWgI+jjjoq1iDEZxoE5NPGddddF3w6suQZAHXI1yNMnYEjSW1laV8jcJTmec97XsT91V/9VTSUDd0XWRloeBXOa+BzDp61/Omf/ukTjAOX3agtttgiFtv1aDQpDkIR4ZnpomHE5zT5Wj+UjUlFo4PA/eQnPxk8ZqXtU//cCfDy2ote9KLID+O+//77G7lkaqMrDNDZLF++PPJbbbXVwoWsRzGWOSaVBkLIWWEgelYUk3Sf+cxnopFQgKmMJTc86QzLioaxuEWMkWAcbOXSwJknnsH4nAM/DwWNg9ecFj/k6JLjpiLv89rnLBgm7vbbbz9RTxkn1SfXZTpwHx3DKaecEvnxUJN6XnXVVc0IlSmD+NyxAO/Bfd/73hd51lPFcK1H37qPAHUGjiRloWblYzSht3Jr8uyzzw4FoYHy9CHDsExd4H4VgCMlr3vd6xoeUFAMAwNtP3DLfkcOrnM8SqjB5/rgto1rUM9rWoyUa467AOqfjSQr8CAoL6Zw5EX9GKXxYzzE95WbIF6jrddswWv76At1oA0NG2HqDBxJysqTiSkOzx7wn3POOU2jstbARWmmalTiJIFfBaOxMZRXv/rVUQZTK3arVllllYaHrgbP19kw2pTrNaiOEPerXFybJw/7cH//938/6tzVQWT/INApgHe/+92RP+sLZEs5PPdBHl0GI7Jx5nDz5dsE8MmIywNV6zUmhgJ1Bi4K0QMjTK+zAhIOEZYVao011mieqp933nnRKDSOCpNhQwNcrh2BhH7iWeADDkvut99+UYbrAvjKvC4UKRPlgszsKHioqcLm82VZDvpNx3UmHyBaT4jNCAzGLWTuzYaR5Sfa+UIcfdl///0jz3XXXTfcMTIUqDNwUSgbQTaKPAXRYBDysmXL4qk24Tz5dri38WhQG6qrQYFxpPX+rAg//OEP4wQvZW655ZYNH4tBykMj5dopjZsZgNHFNdaguisbYPyPf/zjiT333DPyZeRU7kzxKJPOSFnhKq9BUPaZPvGJT0Tb0cFZH1z9I06dgYtGuddEgNlQII0FQ2ErljAOF9o4NiBubswuhRH5PkBa6Ec/+lFMPyiP9RAu5aus9OrwBy1UY1s2MnIq89znPjd4zbwPgvVUeYGGc/rpp0edPNYjOXL9wR/8QRihxoLrvVl+wjIkcOWVV0ZerrEg5er1CFNn4KKQAutSPOI0IhbTKsoll1wSjeDUS6gwuLmxQPYL0zt9ufvuu5vDi57etXz5wSV+oQxFsgORr3/8x3+cxLsYVE/DkZfpXdRzIJN65jq5ecEJgzvvvDPSd+XdBdJlwqg9UMlOnnIsxjJLstHy6ML82ca74oorokFo8NxjZoXJfmHDtfGzn/0sXJ4puDWMQsJDbsz8MHGhG1lZ+HDvkEMOibpbH+sPWU/9QHm0R4Jjjz026mmPn5WYdnC699WvfvXxOx4DIwvoknOG5YN3vetdURZbyHZAuY1HmDoDF5WycqqYTA9YFBpuozkNUClyoxkHTDMVAUYUzm1Rji954YcnSB4zydNCEMqFLDiWD2/f+MY3gu/2yJqhTKgjMnF3ivSsb5wauauGHzcrsFOzj370o5PknOU9HTTq888/P/LKU7Exoc7ARae2AuYDkTQusNFpABsQ8roLxuF6TT7sfGEoLHApw92grh6PMA1nOkOaS7IMnyeddNJJofzWxzqBdh0hRwGgnyfre++9d+TnDhVkvSmTOrKFjJ+07hJmGQ8y1AzLvP7665vyeJDcNswRps7ARSMVIgvPKQdxV199dTQ8DeViU2S/imKDDtod4prG56n3vvvuG2W4Fd022HxNuqxQhs8nUY6nAtjcYLoIqA/Urpt+44AuQME5RU29XP/gz/XBL9EOuGxRA/OVpgPlcQ9vfe61116RP9PqXN6IU2fgvFBuiLarImYjwe9ODPRv//ZvTQPlqQTXhuNCXWjHmccdd9zRGMpUI8pCkWXjtuXk1IWpDLA+uaMYBORDOuV0yy23NOXk81qDyHXLueeeG3InL/JRjsPgAx/4QORlx2T9Rpw6A+eVVAYMJCtlVhJcejL9vFdBIwMaRyUxLCOHkc60QKWysW+99daJPfbYI8rgyTyuhruYBA9tPpiKolRvfvObo3cGKmwfKBenUSpsfoNxKmKdRPnvfOc7435kCPUFfDrCcyyHPDkqNAry7kmdgfNGCqYtIHsWw+1xIAxFsCAVbUOx4QjXKEA7nXGMKM7X7bExzmy0LKjhaSEadFDv6o6RMnFRn+vYF8rvX//1X6NO1Jt69qkf2/XwyCFRt5CzzPuCzo6tavLy2wELId85oM7AeSWVEWJnpx2ed2VuuOGG6JFoFISsguDqt8FyL9dWJO7ViHBvu+22iZe85CWhiBqKSgllxYWXQYo8H5T50O9DUT5eAf+OmPj7TINIZ6/Oot4vrjBa4OY2mYrcFeNYDLLMMp8O2bAw2je+8Y2RF+uvhZTvLKgzcF4IgbSVUL9K4byYXoyXqUA2EoCwcyNN12Ckzw17++23T+ywww5RjlOQrKCL9RylLRt54vybcRy/AdQJTDcFI10mwIfvyIu6D1s/72ELOaOv0Wjk4LTTTos8x2gLuTNwXgghO+Q7oqAQNpi9J8fCNRR7z9zYfUF6RxLB1IuvM1Imi3n4URFxs8IOCptPkh/4s9z2ot4RYlhDgdgepwy3bGmHYeqn4TIqu27qayiUD+j84J2dTXjIDydHnDoDF4QQug3F1iWC4+08FBowVOeeSGEDwvJoo1Fk48Dv/eRFvrytp6EMUhIbjnjSQu00C0E+fMT/hje8IU4YKIusoIR1TcWQQybwZ3/2Z5FfXqNZ3nSEXJAJaxauWUvaBuY/HTLfvI3pFzM9EDvi1Bk476Qi4ldxMRTWEqBrIZ8bPTdOV0OhQDYMebHr5YtMfZ+jZP9iGAyKzNY55efnSxqG9c6dhiCuTWwMkK+7Wu3y+hD3OVX2SzfImfynA2ngH8IP30cffXTI1mdpI06dgXNCbYXLcZIPw9iVoqfJRjIVcg+VG8oGATbMzTffHCMKPLhGydMvaBB/C0nwgOLY27vRwWvMfUF9VV4VEjAqvf71r49882kIy83Xg0j+uJ9R79BDD40pYZZ5X5j+85//fOTNSCcfjGDDjHgLSJ2BMyYqnIXfrrQ9NC4CIv7Xf/3XJ+699974okoWuo0tdRmCfkA84Jr0uIwoDvVdU4++irIQhEzkB2X0Ixds0+bOoQ+UCfdBvtLLcX7KsCzcvusFeeP1CMNYA1nOdLD9IA2atSn5ONq1eZFHKIcvEnUGzoioGIqoMurS8PhxTcuLVAiA90UwFKCCI8RMhE21PWo67gcuINnL94k8Uy/5w7VhcInvqzDzSVkhHAHPOOOMqNMwyqgcvIc3Pf2wBZ9Kos65LaBhldGHiW4hu+nQB7Yx4IUzOkvyZPMgtwN8UoZtNALUGTgr0kigrm9j0bvh8iV6pl7AUYUGRvgagGj7VQhhmAqCofhmIw2by89EY4yCoUAoBUQvC198XgllArn+U8F0yhKwzUu+jKzZKCwv89CHaF9l+7GPfSzKygYwCNngbS/oz//8zyMvR/42ZZ4XmToDZ0wI394gG42ji0dKDjzwwEYRcq+UhZ79uFzrz+HcT0MYdtNNNzU9H4tR+dAouoxjJkoz16TyqjRf+9rXoj7tjmEQsowYXbnv29/+duTlGTvrOZsOArk6FcOgWQ9Rlu1iO3Qhx9nufNKWvHjgOapt8zh1Bs6K2hVWWX/5l385XBaGGgpC7jICgN+4QeD+3GPx4Tu3IfMaxd6pLXh4HaGeK545wCNf6hco1XRyyFAeKPHBBx8c+bHdaz1xlQMu8mnLZRDlmYLb2t/85jebtsvURq4DftOwA0r5tAVTMfK0zaDcfotMnYFzRlbSqdcRRxzRHOTLI4JG0yXkNmyMtvAZUTxG7tQrC1k/jUKavgqyUMSnlVQWppHUybVa7hCmQr7nwgsvDEWj07CuXOcyhzEUSdn5NP9zn/tc0yaZBoG2Bqbj+j3veU/k6UJ/WJ4WiDoDZ0UIkMr6/xDmt1zzzVxf3c3TprbbhkaBUHNalQKj45tUvEyEIbhn7winkchXV2O0rxeDnKLy4QiRO4Q+cGrDot7nSSzqLcN6OqLOtN7c5wdDDj/88CiXNmlTGzlMHfBUBXm1f8oEj/KawxeJOgN7U1vY7QZwROFXbSi7hBJ0CbMLbcHrVzEwFMtsjyhtdxQIXiV7epXk137t1+ITsdQxjybZbycBlKNGpfvxj3888nMqOhf1z+2Kny9Wyj9b9IDyaV8gX5k/4LXGctxxx0UetJ355REP/4i0X2dgJ1kByKkM4VbEiup325b5N1OvbCgKsQ9IZ1rvQ9DkxRpFPnyy3CZHGHlfTMp85TAWt2yC5I9w5Dq3kY3HdMqWzoM8eQvRLeO5ILebcz0cvfidX0YXz8BwDYUX+rjfDRnzz7rE9dgZC9RmPFcwC5H5LErKkXJHgLah2MjTwbQKmm1m4AMtKH/rSuNA4Nlv/GJRmwdlp8IxbwfKxQ4B6GZla4M4wn/v934v8uMEwHwoWq6HnzXy1QEhnwA/o2G7vWlHvlBJG3mqIOvQCFJnYCdlIeGnEQzLlXRE4dCejYywEBqk8reFNwimRRFUEkcUejsfOA4SdPsB3GKR/HqN/CA/FMGiHnnZqWT5KIN2mDA9v8AgL9tAmQySzbBEPrnN/SzVbrvtFtNH+ABtXoX6QByvJ1N/ZgTkhdHYueXy8vViEr9nwtMLNePNX51qgcUfqwD+Wkjxp6h6jhx/dvroRz9a1T1c81eqWkkm/bEKkE8f5Pvw14ZSbb311lH+lltuGX/YouwVVlghwiirNs4Iqxul4ZnrxQR81aNs8KJ/ww03rL75zW9W9aI+/lBGXK0wITfkCqgDvBOW62G96g4k7rn77rurfffdN/5RWStx/E2Me22f2UJ5UiZlUwfKrkf16vbbb6/qKVX1vOc9L+KBdeDaOnAffnitR6Xgm3DaCxAPuMf7gGUvNsJqhqG6Ek/w10JpDkXyM51aUHW9H0Ndyc5epi+8n0OWHAu3zDYf+VrqOkGw2FQ3fOOH51122aX5/Ko9L0CGjqTKL8sVMGK7w8j3jsmTXTVlQbtYjmXOlsjLOjASuIngFjLr0zafXFM368O/WuCN6TP5tdtpLvmdKxpqZBF1RcKt6xzuSiutVG200Ubx591TTz21OvDAAyMNvQW9vemnAnkNSmc59TQl8mb04K+39Mz46XXseepGiR6PvOTBHpA0iwn4o6eFZ1xkc9VVV1X1dKTaaaedmhECvkkLv225UD/uBcSZJ7Kpp17xn0pGFONwlc1cgLLgAZjvBhtsECPFoYceWp100kkRT5x8m946ff3rX6+WL18eoyojkrC+0CiC2gzNmZVCcLj1nDN+d/2pT30qfthJvAoBcmN3QeEMSmc8PyjF73QL4WuMGI7TF1wVxTxzIy8W4AWe4A3CiLlebbXVHk8xWRamVY5tEIes6xG3OvbYY6sTTjghpkS33npr3JvrPJ/1X2ONNeK34+DOO++s6sV68AbUFetBO/Ej1s9+9rNhLKQ3HWmsN648e4272ICDSVQz1gyD2Q/VlWr8HCH3uYYvAs0namEuaRoGpK8VL/ycraJdaAumRbQHbm63+aCsIz7N53fitYJPWshzDQFOUXOPD2DHiSbNS7BuUNcpXKC/FkjTS4BVVlmlWrZsWQz/Z555ZixOC+YfyN82YGS67777qve85z3RK/P7cUZcwHVux/kE5TC6UeY111zzBF0BXDPiMaoQj99wMGj0HDVQo0lET1FXYlIYPRVhuJw49Sea/O7A3qNg4UDPjcz//u//PtrBr/3nNoMI6wqfDXXlh06gH7vvvnv8UhCdgOQV4vd73Ivu1MbR5IV/rnmcJ+oMnERUxuEdofgg6p/+6Z+iwRAKuzIFCwN2BVE+XpdGQTl8mT+/Ot+K1+5IIfTDM3l8+Bv+0AlcwEf9iHPnDB7rkbG5X+MZZXrCNKyuxONXjw2NhNUGEcM70y52Wniucd5551V77bVXpCOOKUHB/IJ2ACuuuGL4TznllGivNddcMxbOgOtaNxv/XGKq/NABNlvAd77zndAddyAfeeSR6rjjjmsW+IRBxJunPI86JlmPVFdmUg/lCWKeNrOIA2VEWXgwkgPOYtEebrC4oLfNcGlD/Lj6Z0PmkfUiE6eQGSHe+ta3Nh8e4bkKU0Xu8VXpcaWBDx5qQ2isvW6IavXVV49eYJ999qle+MIXRji9Cb1FwcLAnhr36quvjvaQGGlsL0EbAuLbcbOBeZFvdgmHD05YPPzww6EfjCTnn39+8M3WPy6Qb/3jgrAaqGZ6Uu9hb8U14b5Yxf/W+V4uqAXSLOQK5h/IGuJIPO1CT15Pfya1E36vbUv9syF1o32NCx8e3OTpPGAUhNfrrrsu0vFqM7y28xkj6gwcSL7L/du//dvxX3PAVCxPxxAQgmIInktjcgoCzJP8xxEq0jAgPYSscf1msR+PaNNCK6UHWjnMCXgOpF58+MMfjjQu8OmIM39zZdDzTJ2BnUQFcfmyIxXl/W5OmgKVVuMYVhH6gnwpA2WjMSx3vsqbS8CjyqOcZgLrjOxf85rXRJtwxN32sfee69FF5SYv/ZZD2XzMnWt+kgSonx0mHzR3psLfyzJ/c8HbAlFnYCdRQRoCP29Acs1vA/xdG4JRAbpGgblAV16G4Y4yDcJUcRnIV/BRbu675pproj188c32mQ9FJC+Ids9EHC+a4TLj4GBnu/3h/bzzzos0vj4Acf+4GAur8/fW1At1vRv33nvvrbbYYovq0ksvjcNwu+66a7Xqqqs2R61rATQLzFog4SdsNiAP84GHukEinPz1jzKUB4Bf+LYe+qeSEWlqpQu3Noq4jwOsdc8dW/n1NKiqO67HUz8GNmBst7mA/JEnfFgnznlR9pFHHlltu+22TXuQHv54tFCveePA5WWXXRbnx9gEMI31H3U0ltOH6oo1vQuux8H5HTZflqyF10w1ck9YC+9x38xhfuaV82RKNi5ARm24DpGmA2mcjrnYZ1ThvB7THadktE1uv7kg2j5fU65rWb5TBtQBYZ1c7Ptmq3rUznMUiW4CT2/QA9QVf/zqsZ6LU8dsF+65557V3/3d31XrrrtuMwKQfq7AOTReMFp77bVjS5Leyx6WcnBHGVl2td5Eb8tIvMMOO8TReuSV0b7O4H5AnWvDqM4666yqXr9Um2++efXd73434gBxlJnbbLagzckPHqiTL5oxu4AP60LdKB/IL+k5xn/44YdXm222WegN+Y1624nGcvoQvQBuXekmDL9f5uC3EXfddVctm5/vktED1sKNsNmAkYsP9FmuZcsT7ihTlpk9P8T/7JFPm7qALPOI7ejCVv5+++0XbVB3Jk3eUi57pmQe1ke/5wRPOOGEJ4z+gDCuHf1Z47Ihwb18ISbnPco01MhSV27gvJI4Xj6iV9txxx3jJPL6668fcfQcxM8F6K1OPPHE6g//8A/j4egPf/jDCKeMUQeyQw7KkV4Xvm+44Ybq+uuvr7baaqvHU/4cWW7en0GPXCtahH/lK1+pdt5556ruuGIUJn/umcteG37Nj3Jro47yWLd+8YtfrHbbbbcII450pPcaXmrjjrALLrigqqfuMSvhNXRA/KijsZy5IL9Uwt4/B/3oIen9oK7ekjB6nT6w1+IoBZ9XopxawcKtlaXhAco9Vd04k+JGgeAX8mMVb3nLW6LnVR5ZVspwEIiHkA9fiCE/R3rl0JbPTCjL0bxx/YqmfzAGtrf10HW7H5djMdzHVyjNu4vfueB9jqgzcEZEhamYX+vg+7p1DxeCYjoGUISsDBpKX4MxHQbz3ve+N8plk0FhU658cJ2NZhSIk7bwJxHmJsnFF18cdbNzUVZTGQpQKSHkTZ58tM+pHnnPhRzIo52Pv8w76KCDmn9Mwgd86wJcdUD3xhtvbPIgX+WhO4LUGTgjUkEhRhgr3fUz1ZlApcmG94EPfCDK2GabbcJFQVSSrJCjQG2lhU92kpi3E1dPK5tfcGSocIOgTKW//uu/jvzzt9Ry28yUch76fWbyN3/zNw0vtjPA7zXtZrjrl5NPPjnu530c2woZjejx/c7AGRECzAL1aAPklqJCUuHBdMqQ4TAOIXhGmOOPPz7K8OsymRA0wp8LZZkravfO8Khin3rqqVHP9miiknWBOIhpGC5/KNhjjz2izoww81F3eM5bxl//+teDF3mYDqShjiz2PY3MOzkahu1meSPSfp2BMyIqBFFJKkvPiRIoAD7ViZBQcHsce50+yCOKwsaPAfG9XMrmZIHltXlrhy0GyQeuvadK4VNwfuEA7BCmA2kgFNV1Ha9RkBc9f1vxZkOZf9dbe+65Z/N2ZO4Ep+Pd9vviF78Y+WB45j+ChgJ1Bs6IrCCVy5XlNKoNpiIoSBt6OsEC0zi6AI0FJfngBz8YZTs1oDxJXkaVMBw6Fvg/7LDDmj+hUU8NYBCy/PRzr9vsKGFXBzIsteUIv/D9/ve/P8qEV9sFwIPo4o+0+KkrX+Knc/XL/BJ8L0ljgXKjZOGy48E18bximoWXBTwsELp5oVSuYfhxEkLOc9/FJhsdOeD3Orsa+qWXXtrUiTpmxWuD+isDoHH5iVueu/jy3lwRdfDFs0suuSTKU/lF5rmLf42Lj/LxzWPy8pvH6hHuCLVhZ+CMKRsIc1pcFUNBQBjMbGEDMK1j+EfwhDnCdK1hRona0zB49uRu+yuV0CC0jcWRFpxyyimhcCr2bEg+yU8lJuz222+PspQ/rjxlvnIYZPv5f36/+q+hQMgku4tMnYHzRvzCTqFfeeWVIbD2NCOvTVSSLPTpgLJ85CMfiTL8PhXCtlypK2wxyV08FdsdJuoDlFOWxSD5GP7ggw9O7LTTTpG3T8vnQgGdLvEiYF9kA8G1XmeffXa0Q94Rk9rXi0ydgfNCKibTAvz0TH6UrWt3TLcvaAwaAJf8OH5BOe62dCmHfMxGceaK5IHDkHxFBz/b7tSnbQxAg0BO2e+1yvilL30p8sIIuwxlGIU0raP2Zz7zmeDN8ocFPL7rXe+KvDwCY1mQOjMi1Bk4b4SwEQC9HESP55w3K4XG43Vfw6HRvJeemD9gUR4nCnBpDBskK4m9+igQfLLGw3/kkUc2MsDtkkNbUak/RP0h7jnkkEMiv/zshXJw2wo6HfHylvz5SGCY9tGFR7aO2YCAF/6paRnyNFMe54k6A+eVEADEUM7/PVjb5KfXfQU/FcwDl//AUy6L5y7hGzYqpOH6Qtfll1/e1EWDyTLKfuI1LmTp1M2n5Xl7NtMwMvCgJs9y/BZDH8gX0H/11VdH2YO+/AKvI2IoUGfgvBG9OZVHQLhMNxA+fj7aBxAkDQ0xTOP2QVYawMLfRuFJMWVjMChjboA8wiw2aSjw57pg7733jgeN1M9pJkaQ5WLdcbNSAq4J/8u//MvIH8VU/pZl+VMR6ZCV79rzty94aJc3CKZjRLFd//Zv/zZ48UxhmxeuhzHkeabOwHkhKp6FgRAgDuJ5zJtXT4HTB2EPOR2ycXE/BgNoKI7CUwbK0m6EUWiQbLTy4zrjU5/6VNQjdwCDQP2VAa6yY7G/9dZbRzk8UFT+ljkd2XaOAs4Gcjv1AfxD8MZryOTlGbOsH163wxaROgPnndqKylSMTy2x2D7rrLMeF2v3DlAf0IA2omsY8mArlTJ5DjNKI4rU5omtVBb8KAzPTagTMsny0J+VFr8GQ7ydjx/n4ygSeSJ73D6yMK1b3jfddFOUoXz7Qn75sAX5UDYdpkahq18ybBGpM3BeKDcIgtdgFAT/a3eE4SuGNAQNnBVjOpA2Kw15GGY+GAxlojBOe0bBcFRCSflwAgI+jznmmBg5RTYIkOWUZZBlwsck7M3ZfRqm3sjMs2C/+7u/28gW5LKnQubloosuirzaz4Dgqa0bo9A+NXUGLhohJPfbmc8iXEilyCNNWyGmA/eaT/6lHIpo40jtxmnHzwe1e095INw5PQtikI2kbTSDoIz4cDd5MfXxwfF09YMH+GHTgbT8Z2UmsD0Bx2TIK+/QjTh1Bi4KobQ0CluIzIu55sGcU4guhSC8j6EAemXSM23gHvKmXHo2lUUFxc0K1Fbk+STLggf8kKeHX/3qVzfvjYA+RiKsO/jYxz4WZbgmao+w1F1DkgjzFIZn/IadgsEDYMOCPxyTF1OwLOsRps7ARaOstJ6TYicLIefGBiiKhjKs0ui6G8OUTEWBVFLicvh8E+VRrn6v4cGFNWu6PEoC6zQdHJnvueee6NHJn+lv5sH6ygfX+D0Vvddee8XhR9rC9uhbvrt5fuXF35dY1ohTZ+CikYqhknpchW1PQOPY4LrDGAoNlQn4shRTjHZvCqk8C0FZUVUgXRb6rmv4/BGw7tZlKigvZMh9bNWTl59/dXTJbubBN2B5bgXIYxjZ506K3yq6qUP+Y0KdgYtCNox+DAY/BoOfRrLBc09Gg/VRFu9BWfBzn/lhMJTh9E+Fyfzk6/kiy2nLQj9rF/jkGwSZ/z71B6T3HkYHTvuSv9MrFFi5a7hcQ77Mx44ayOX3gfJndOFIPnl5Gh3/GFBn4KKSyoHCKkgW/Vxzotihn2cOw/RsIDcu99KA5sezDMpm+pcVdDEol5/9KLC7R9dee23wbT2mAwaVFRawYUD+fgE/l6NfwpBoAz5MQZnKPuc7HbiH7x5zupryPNy5kKP3LKgzcFHIxspTkdy7OSXjnRVfjurbo7bhfeZhY7OGoUwfXFKevOhfKBpUvueyfuu3fiveBQF95GAaOwenY3zhnvzzdxM8XIrccTlNgP/tb3973ENeWYZ9YPqrrroq8qQDxIWs24hTZ+CiEQ3iaJKFqF+DOfbYYycpSt8GE9xjz6jSaDgYDD0oBkNvStnyNN/UrvOgHpfRj7hzzz03+B9mOiS8h48i+jkj3UzU3c2FM888M+4ZVt7Axb0PhvPzlfYzphGlzsCRJBWHX17gP+qoo2IblYZT0VUA/NntCw3I/7UzT+cpOn6UN69lNCDcrOQLQWyvWz4vX8G3JHLd28rttcdn+Os0eSFby1CBcdkJo47f+ta3Ghkr80EyNi6n4aEoIyL5tt+vGQPqDBxZcnrgEP6Od7yjOflqzwV0AQqUrwfB6Qkg/T/8wz9EGewC+VouCqqSEpevdeeTLBO/266s4wBKbMeRjcO6q9z6Sa/iI0OVWMPAT6fkhyn22WefOF8GuD8bZhcoq01814wOhzwHjZojTJ2BI0lZSXHd8uRtPadkrGVoRJUFV/90MB1Goz//XYv3OHL5UxG85nRzpRjm6WKbZyW4vJqb660RAJS0jRzmYp9/vcC3eVoHp2DsRnof5QwaxQRhbbrgggsiL08u26ZjQp2BI08IGXINwxcReSoMUPY8ykzXA4qsYPgxPHDOOedEGSgNI1vXVAyi8VWATIabbqZkHuYHsdjHffOb3xx1pq7WWxAGUSeUXMXNIA65cQSFMvKpBo+j+FareSjXdl7CciTK+OM//uMmTzsQ6zUG1Bk4sqTyeY1fg3nTm97U/IWsqyHbjdcmkBXBMJSI98QpA4PhiTd82Ngahf75ml7kuuNitJTlSYfPf/7zwa9GDqgDdRoEp56kQ5nZFjZ/pp6MpvhZ+PPUH3TJqAvEZeIvCMuXL4/8nepZJ4jwEafOwJEklRAX4eLayztVYN7tT5U0GBaxKEK78doEVCzSA/LQz84TZfDUGQXFdZGqwbQbPStEDp8J5REtE88siKO39uPc1gdoEKJtPKZVXux4wS8y9ZtjRxxxRCMnjSSXkf3CNJK/9GM0HFSXEafOwJGlttJpQCgki36u+U+JvSCKbk84HWUDAVyjaFwbxrksyrJ8/LxWgKKy4PZTRsTNhYEMolxvyvFUMl+1EbkeQCOxrsZzDVy78GNX/uRGfn5Dmqko6ZRHG5aRoVwltuTJy1MI2WDmU1ZzSJ2BI0sKVWUxzGuPZLBzg8HQsDQwjdluvDaBrAiG4aJIKsQNN9ww8bnPfS6e9Wy77baT+GFNw+ee6JUxIj/CMFfKQD6SYRqnu2Ns72IYkPXBtdPIyAYEvP7qV78aefFmJS7v8IO2obTvzyAs04EHHhh8+7o0/jEbYToDx5IUPCMMCsTp2DvuuKOz4aAudMVxrZL4mjIgnDUS33DGeI4++ujoiSlbBcZlusaCmdGHLVP4RFFM06U0hEE5DPKeLvJ819ve9raGz3wkqKtuGdYT4j5/6fGKV7wino/0ub8NOxjagbw84dyuR1ddR42G+vPXqKPu3Zt/HW666abVTTfdVP3qr/5qdcIJJ8RfsOpeP9KRpk3cYxz+HFf3nuHW65PqBS94Qfy9qm7cCMMlb1ArWPzrknL5VyJ/87r44our6667btLft+p1QPzZ+aGHHqoeeeSRqp72RJm1AoVr3oA65XuJy2Xr517cuqOIv6994QtfqOrRtckPWEevB4H6USf+5lWPViE//kIsBt2fy6qNJFz4J4y/ku2+++7xl+LacBpexg1hNUuBcm9VN1Az3M8FkR8uU7BaKSfN0fEzTXNKIkjH/J9nIKx1mLbxdch2nryxmEcew/Nok/3Ed40wTAVZM+FnOurOoGsR+IGmAqOKLmk/8YlPTFx44YURNsz9wLTIJX8sxCnruNGSG1nshfUvW7Ys/qZLj1+326ReUb8uvTN+r01PXhD/PjzssMOqD33oQ3FdK0MQvXDOGz9lO+JwrfvAAw/Ev+DrNUBVG1F16aWXVl/72tciXtRGHnzXU5/qwQcfjP/FZ74o01HIcnEZOenRn/Oc58TI9vGPf7w65JBDmnu8X7eNem0Xf38G8E8dGf3Iu157xTUYdH/mBT6oP3zC/5ve9Kbq3HPPjT9Z33fffcGP9wDytu1GFdR6yRgLaAvdxsO1kW0gkP2gKw1hNHrd81e33nprddFFF8WUQqVVcS0LIkzAj3kA78PFGG677bbmt+WXXHJJde211zZ1oD71yFOttNJKYfAoNNM2/JYHdMmXe9ZZZ50wSqaA9SI9pogrrrhipLGOg5DrYto+xgasG9BgmBZuueWW0Wn99Kc/jTRtvknH9G/UAbdLgupGbPx1g00Kw+1D3NemWvliGsQUiesXv/jFzXk0p2NMP6BayWP64TXIYfi5h2vDBNf8FIhpG8dseNrtQ7xcJxbyPOfB9ZSwvOv6HS5esqIMy4OmgvyQzm1iXMOmup+6ZTg19Y1MdyrhEbftHwPqDBxbQqlxVZp22DCk8pk35NNyXosFbeVBOTQOkRVQhVKBQd7aBrqk4eAiH4fgOQcf0N55550bXuSNLWPWPOy68WSc7WriPLLCn7UA+Zp3F4yDFzuBHDbd/Rmks67vfOc7g09fIVa+1mNciPEUz5JA3QDNsA7ydTsugzjQju8KZ11QK2BMg5g6MTWrlaJz3QKR1vDsgpwWf61gjQuRp2kAUymmMfz7P695rr766kn5Mm1jt40w1i4vetGLqvPPP79aa621Ij7nmSEfbb9o890GcqC++uH/zjvvjH/j33zzzXGN3ADpqCMgP/MedcBloZ7EKMWODj32+973vrqNfz6adCH3sMOA+9rUBQ6P8vNT3kfhI3w77rjjJH79IgvfSXO0APCU8xyU/zAwD0ZEpmCAf/AgK08YjDl1BhYaQBgLaxi/Rn/FFVeEUrQNAsVx+pWnXMOAezLlMlB81xIZrHn4iB7TNoxnu+22a3ivF9qRj2uJuQZ5W2fzP+2006LsYiz/H5ML6Fe96lXxtqbrjqyEbcUZFtlQINcNOU5/Lttwrt0w4KdDfBI355HRFTYsMj+AUwB8PYYjQMprzKkzsNAUxMjC1MJXA+r1QCiHxoGyaDxezxTcK2VgCNkI8VsuoGzLx2U0gXJ+jnhdI9RMQVnmx7fNkA+y4h/3WYbjSD9/GFDQCyxMa8WMxSkLbRathx9+eHX//fc3cSxY8QPSzWYBy70QIC9h/ubLdS4DvkzDcxfIB46kgwjD9RjQbEFelAvVhhgPceGdIzM8mBx3FGMZAjS8Coui1YvrauONN46dnnqaM8koiFdhCVPhZwrub+dB3jmMaxRfHuWFNBpO3fOHH8I/l6A860rdr7nmmibc8scdSLRQT6ob/Qlh/oaBtQFgKuKUDOTp0mxQG0GQ8Jr822Xk8k1nGGnNR3cueCQvp2A8H+I3esiFz852yW3cqIwsQ6Ldk3uN/5Of/GT01owqtfJFDw/NVa9KWVCti00PnomyhDwA0xMGMj/cB+aCR8pgRAGcLOYZECMv58ssZ5xRjGUIoFBZIQEKwtrlGc94RnXyySdXX/7yl0MxWB+ogKRhDo/y4mJQhKnMGRqZftJl4n6NI4dz3Vb4bBztuPlSXvgDPDS13Gy44wyk+d7HvAXTAaWk8VVUXZQbFyPgvQ2u6+lIhKEoHIJUcbiHMO8lLMM0+gHXUk5vGPl4vZig3owsnDQ4/fTTY83CSQLWdksBSPcxSRf0ggqKYqicKiuKwbF6wlFqetM3vvGNcdzkV37lV2JKsvbaa096CY20pMN1JBDkSxpAHNeWSbiGYz7GLRYYVTAWjrhsv/32ceqZk8acrCZ8rjcUFhrFWGYJFBYl1mDWWGONIJTj3nvvjTchUWIV+uCDD6522GGHOLLOlirKlKdsTmPIT+MxLhuL5eGSt6PVYgE+IHhldN11113j3Bzn5+BtKUzDirHMAXIPLzQiXkXGIIhDcQBKTRzvnBxwwAHVC1/4wurZz352KBcvfeX88KNoGo6jEOHEk49xiwHKF/AGX3/xF39RHXrooVEnnrUAOg87gnFFMZYhkHt1Gh/XHlMDIFwlhuxVUaLVV189pmorr7xypOH5TMby5curPffcM4xnk002iXf1GaU0GlzBNTCOshZ6ZKHMDMrnVDFvRZ555pnRGfCwFh6VzzijGMsQoMEhFRS/xgJUWpVCBTct/hyHIa233nrxyi7TNbZbCTPdzjvvHNOZXXbZJaZspGXkAZZLOvmCpsJ08cPCugjyv+WWW6pnPetZ8fow09B2mnFGMZYhgDKg5O3RJEMDEabBCExLfDsvFv2MIquttlqMTvTQLJRz/vvtt18Yz/Of//wwng033DB22kjTxUsbpJkrdJVF/rxyzVdlmILxlZvpeBonFGMZMThtA0zb6KFROHaUIBUeQ3vd615X7bTTTtU222wTL3zxmSGMjrUB+ZBWwyRP7oE0rjayYnMfeQDu7TJ2QH6C8OOPP7465phjYucPY+de0i4FoynGMoJQAVE+wDWjDW864nLNV2J4Mg5UxoMOOii2qbfYYotY87jTlpUdQ+J+rzUK3Kz4gjTk77ZwhnGA+/mQBqPfFVdcEesVeCzGUjAvQGlRLqASqmQoMgqZFY+Rhx6c9Q5fiNG4SLPmmmvGMx42C7baaquYtrHeyWkE+WEMGBbPQtqnkDUKDUrjA4QRzzWvOfMRQka4u+66qwl3WjnuKMYy4kA5UTrInt/rPOVik4D1DrttKDwLbcJJh0Jvt9121d577x0PR/lqJdM21kggjyikxRjIGwPhJAJGRD4amH5c4KhzxhlnVPvvv3+sV9jpIx/TEE+6cUYxljECCpqVVJcwlBEjwUBUdgyCcAwA4xGk4cHovvvuG98UY9rGh/3cpgYYkMpN+rahEIffUYgjLkcddVScj3NkaRvhuKMYywjBUQRoGABFI5x4lS4rryBMZTYv0jMyMOow+riG4WOBpiH9S1/60njO4wNS1hx8lA9DceQAjDT4uQ8iD4hpIOsk7nn00UcjrXnjLgUUYxkxoHggG0VWNuKNc2pDGtCllKYRGgjTNTYMGBk46MgnVTNe+9rXxieMOJaD8XASAUOQP/LA6Mib7evLLrus2mOPPZbkLlgGtSk0glQr2xNemqp7+knXUxH345JHOx/jIH6Hx0fU+Z9MbRgTy5Yta+Ll4Xd+53fic0pXXXVV/Def9/kzTjzxxEjvV1wyn7XBTipvXKmMLAWTwLSr1v1Yv/CMh502Tg8zUgBGFkaSAw88ME4W84yHLWq+Q3DOOefECMSWsWkdBZcCirEUTEJWcPz1iBDTL7adXcyz3slgh42p1z333BOG5JoFcD/GtxRQjKWgAaNKHkFQchU9GxEHQVnvYESsWTAeRyTS5LSE48doDBtXFGMp6ERWeBSdaw3J0QIXY2DU4XQxIDxvKhRjKViSyAYCUHSgkbSh0QAMhHRcmw/3tw1snFGMpWAguozHEcXRgjR5a5ow0B5hlgJ+/oi1oKCGyg7aI4GjhKMH0Bi8Js772vePO8rIUtDAqZKuwBAMc6TJadojECDM+JzXOKMYS0FBT5RpWEFBTxRjKSjoiWIsBQU9UYyloKAnirEUFPREMZaCgp4oxlJQ0BPFWAoKeqIYS0FBTxRjKSjoiWIsBQU9UYyloKAnirEUFPREMZaCgp4oxlJQ0BPFWAoKeqIYS0FBTxRjKSjoiWIsBQU9UYyloKAnirEUFPRCVf0/x9gdXE/bhgcAAAAASUVORK5CYII=;" vertex="1" parent="1">
          <mxGeometry x="564" y="608.1099999999999" width="23" height="23.79" as="geometry" />
        </mxCell>
        <mxCell id="EQOgW9wFtIj6ZhYMa9qf-11" style="edgeStyle=orthogonalEdgeStyle;rounded=0;orthogonalLoop=1;jettySize=auto;html=1;startArrow=none;entryX=0;entryY=0.5;entryDx=0;entryDy=0;" edge="1" parent="1" source="EQOgW9wFtIj6ZhYMa9qf-12" target="EQOgW9wFtIj6ZhYMa9qf-9">
          <mxGeometry relative="1" as="geometry">
            <mxPoint x="450" y="340" as="targetPoint" />
            <Array as="points">
              <mxPoint x="365" y="620" />
            </Array>
          </mxGeometry>
        </mxCell>
        <mxCell id="EQOgW9wFtIj6ZhYMa9qf-12" value="&lt;p style=&quot;line-height: 1.1&quot;&gt;&lt;font style=&quot;font-size: 6px&quot;&gt;Loads Additive&lt;/font&gt;&lt;/p&gt;" style="shape=parallelogram;perimeter=parallelogramPerimeter;whiteSpace=wrap;html=1;fixedSize=1;strokeWidth=1;size=10;" vertex="1" parent="1">
          <mxGeometry x="330" y="580" width="80" height="20" as="geometry" />
        </mxCell>
        <mxCell id="EQOgW9wFtIj6ZhYMa9qf-13" value="" style="edgeStyle=orthogonalEdgeStyle;rounded=0;orthogonalLoop=1;jettySize=auto;html=1;endArrow=none;exitX=1.001;exitY=0.664;exitDx=0;exitDy=0;exitPerimeter=0;" edge="1" parent="1" target="EQOgW9wFtIj6ZhYMa9qf-12" source="EQOgW9wFtIj6ZhYMa9qf-1">
          <mxGeometry relative="1" as="geometry">
            <mxPoint x="450" y="340" as="targetPoint" />
            <mxPoint x="340" y="480.02857142857135" as="sourcePoint" />
            <Array as="points">
              <mxPoint x="365" y="480" />
            </Array>
          </mxGeometry>
        </mxCell>
        <mxCell id="EQOgW9wFtIj6ZhYMa9qf-17" value="&lt;font style=&quot;font-size: 5px&quot;&gt;IS CLIENT&lt;/font&gt;" style="rhombus;whiteSpace=wrap;html=1;fontSize=6;strokeWidth=1;" vertex="1" parent="1">
          <mxGeometry x="342" y="501" width="44" height="37" as="geometry" />
        </mxCell>
        <mxCell id="EQOgW9wFtIj6ZhYMa9qf-21" value="&lt;font style=&quot;font-size: 5px&quot;&gt;IS SERVER&lt;/font&gt;" style="rhombus;whiteSpace=wrap;html=1;fontSize=6;strokeWidth=1;" vertex="1" parent="1">
          <mxGeometry x="338" y="419" width="44" height="37" as="geometry" />
        </mxCell>
        <mxCell id="EQOgW9wFtIj6ZhYMa9qf-23" value="&lt;font style=&quot;text-align: left&quot;&gt;- NetworkManagerCallbacks&lt;br&gt;&lt;/font&gt;&lt;font style=&quot;text-align: left&quot;&gt;- Shared Dependencies&lt;/font&gt;" style="rounded=1;whiteSpace=wrap;html=1;fontSize=9;strokeWidth=1;" vertex="1" parent="1">
          <mxGeometry x="190" y="510" width="120" height="60" as="geometry" />
        </mxCell>
        <mxCell id="EQOgW9wFtIj6ZhYMa9qf-24" value="&lt;div style=&quot;text-align: left&quot;&gt;&lt;span&gt;- Context&lt;/span&gt;&lt;/div&gt;&lt;div style=&quot;text-align: left&quot;&gt;&lt;span&gt;- Client Code&lt;/span&gt;&lt;/div&gt;&lt;div style=&quot;text-align: left&quot;&gt;&lt;span&gt;- VFX&lt;/span&gt;&lt;/div&gt;&lt;div style=&quot;text-align: left&quot;&gt;&lt;span&gt;- Audio Manager&lt;/span&gt;&lt;/div&gt;&lt;div style=&quot;text-align: left&quot;&gt;&lt;span&gt;- LocalSpawner&lt;/span&gt;&lt;/div&gt;&lt;div style=&quot;text-align: left&quot;&gt;&lt;span&gt;-UI&lt;/span&gt;&lt;/div&gt;" style="rounded=1;whiteSpace=wrap;html=1;fontSize=9;strokeWidth=1;" vertex="1" parent="1">
          <mxGeometry x="564" y="660" width="120" height="80" as="geometry" />
        </mxCell>
        <mxCell id="EQOgW9wFtIj6ZhYMa9qf-25" value="&lt;div style=&quot;text-align: left&quot;&gt;&lt;span&gt;- Context&lt;/span&gt;&lt;/div&gt;&lt;div style=&quot;text-align: left&quot;&gt;&lt;span&gt;- Server Code&lt;/span&gt;&lt;/div&gt;&lt;div style=&quot;text-align: left&quot;&gt;- Entities Spawner&lt;/div&gt;&lt;div style=&quot;text-align: left&quot;&gt;- Game Mode&lt;/div&gt;" style="rounded=1;whiteSpace=wrap;html=1;fontSize=9;strokeWidth=1;" vertex="1" parent="1">
          <mxGeometry x="554" y="340" width="120" height="60" as="geometry" />
        </mxCell>
        <mxCell id="EQOgW9wFtIj6ZhYMa9qf-31" value="STARTUP" style="text;html=1;strokeColor=none;fillColor=#E6E6E6;align=center;verticalAlign=middle;whiteSpace=wrap;rounded=0;fontSize=9;" vertex="1" parent="1">
          <mxGeometry x="20" y="455" width="60" height="30" as="geometry" />
        </mxCell>
        <mxCell id="EQOgW9wFtIj6ZhYMa9qf-32" value="" style="endArrow=classic;html=1;rounded=0;fontSize=9;strokeColor=default;exitX=1;exitY=0.5;exitDx=0;exitDy=0;entryX=0;entryY=0.5;entryDx=0;entryDy=0;" edge="1" parent="1" source="EQOgW9wFtIj6ZhYMa9qf-31" target="EQOgW9wFtIj6ZhYMa9qf-1">
          <mxGeometry width="50" height="50" relative="1" as="geometry">
            <mxPoint x="140" y="510" as="sourcePoint" />
            <mxPoint x="190" y="460" as="targetPoint" />
          </mxGeometry>
        </mxCell>
        <mxCell id="EQOgW9wFtIj6ZhYMa9qf-33" value="" style="shape=flexArrow;endArrow=classic;html=1;rounded=0;fontSize=9;strokeColor=default;entryX=0.202;entryY=-0.014;entryDx=0;entryDy=0;entryPerimeter=0;" edge="1" parent="1" target="EQOgW9wFtIj6ZhYMa9qf-1">
          <mxGeometry width="50" height="50" relative="1" as="geometry">
            <mxPoint x="140" y="240" as="sourcePoint" />
            <mxPoint x="350" y="410" as="targetPoint" />
          </mxGeometry>
        </mxCell>
        <mxCell id="EQOgW9wFtIj6ZhYMa9qf-35" value="UNA MISMA SCENA DE START POINT&lt;br&gt;DONDE HOLDEA AL NETWORKMANAGER&lt;br&gt;PARA MANTENER A &lt;br&gt;MIRROR Y MST CONTENTOS" style="text;html=1;align=center;verticalAlign=middle;resizable=0;points=[];autosize=1;strokeColor=none;fillColor=none;fontSize=9;" vertex="1" parent="1">
          <mxGeometry x="-5" y="185" width="190" height="50" as="geometry" />
        </mxCell>
        <mxCell id="EQOgW9wFtIj6ZhYMa9qf-36" value="" style="endArrow=none;dashed=1;html=1;dashPattern=1 3;strokeWidth=2;rounded=0;fontSize=9;entryX=0;entryY=0.75;entryDx=0;entryDy=0;exitX=0;exitY=0.5;exitDx=0;exitDy=0;" edge="1" parent="1" source="EQOgW9wFtIj6ZhYMa9qf-39" target="EQOgW9wFtIj6ZhYMa9qf-1">
          <mxGeometry width="50" height="50" relative="1" as="geometry">
            <mxPoint x="70" y="608.11" as="sourcePoint" />
            <mxPoint x="120" y="558.11" as="targetPoint" />
            <Array as="points">
              <mxPoint x="90" y="620" />
            </Array>
          </mxGeometry>
        </mxCell>
        <mxCell id="EQOgW9wFtIj6ZhYMa9qf-39" value="(non-mst)Testing_Scene" style="rounded=1;whiteSpace=wrap;html=1;align=right;allowArrows=1;fixDash=0;autosize=1;" vertex="1" parent="1">
          <mxGeometry x="190" y="716" width="190" height="47" as="geometry" />
        </mxCell>
        <mxCell id="EQOgW9wFtIj6ZhYMa9qf-40" value="" style="shape=image;verticalLabelPosition=bottom;labelBackgroundColor=default;verticalAlign=top;aspect=fixed;imageAspect=0;image=data:image/png,iVBORw0KGgoAAAANSUhEUgAAAMsAAADSCAYAAADkIjRgAAAAAXNSR0IArs4c6QAAAARnQU1BAACxjwv8YQUAAAAJcEhZcwAADsMAAA7DAcdvqGQAAD3aSURBVHhe7Z0JuH5VVf9PaczDT5kFHEAElEBj8CcyBiFghWNO4BAYYhEQoilB2oOSkqKEBRpRlhKgEBgCIpGgID1giAOYIjMoowpC8/2fz4LPcd3Dee897x3f9/7393nWs/fZe5+91157rT2dfc75haqqJmoqKCiYBr/4uFtQUDANirEUFPREMZaCgp4oxlJQ0BPFWAoKeqIYS0FBTxRjKSjoiWIsBQU9UYyloKAnirEUFPREMZaCgp4oxlJQ0BPFWAoKeqIYS0FBTxRjKSjoiWIsBQU9UYyloKAnirEUFPREMZaCgp4oxlJQ0BPFWAoKeqIYS0FBTxRjKSjoiWIsBQU9UYyloKAnirEUFPREMZaCgp4oxrIE8Qu/wCesfw6uf/EXH2vqJz3pSeEKw9vI6Z/85CeHv432vVznso0fVMa4YWnUoiCQlRVXmpiYqP7v//4v4v/3f/834jUawzO45h6A+z//8z+NweQyiFtvvfWqTTbZpFpxxRXj2jLFL/3SL3WWMY6gVuUr+kscWbk1HpUaP5SNAIMyDmAoGMxTnvKUaoUVVohrjONHP/pR9bOf/SzuxSAwjP/+7/+Oe0DOYymgGMsShIqPAmdlVXlxSaNRMMpgDIIw066xxhrVU5/61DCEO+64o/qP//iPSK9RHHroodWzn/3s6rTTTquuv/76atmyZdWPf/zjiDMf+FgKKMayhIBidkHj0SA0BIHyYziMGquttlq1yiqrxD0Yxn333Rfpnb696lWvqnbZZZdqq622qjbddNNq7bXXrlZeeeXqiCOOqE4++eRq3XXXre65554mvaNSu8xxRDGWJQSVvi9Q4JVWWilGAwzkoYceCkUHTq1e/vKXVy9+8YvDOLbYYotq/fXXjymYoDzK/fSnP13tv//+1dOf/vTqtttum2QcS8FQQDGWJQYUEwIoaFZSplKrr756TK1Q8P/8z/+MdQdTKo1j1113rfbaa69qm222qbbccsvqaU97Wow4xAvSmZ78yeu6666rXvCCF4SxMF1z6qUBLwWDKcayxKCxqKwYCCMHBoLS3nLLLRGu8mMQjB5bb7119dznPrfaaKONwqA0BoipFFMywsgPpVf59T/wwAPVK1/5yuryyy+PqdzDDz+8pAwFFGOZR6AkuQc2DHBtHMCv8mVkRXP+D0hPHMqY81l11VXDOBgNiKeXZ+QwD7Z5X/ayl1U77rhj9axnPat6xjOeEcZB3vI2Uxx//PHV0UcfXW244YYxYrlWgT/4HHcUY5ljqHAqJ9f6s1IDe94u5LT4yQPCT57exzU9OQtrwjGORx99NOLM/+CDD6522GGHmFptsMEGQfIJUGqMRT5niosvvrh66UtfGkZ40003Tar7VHUdFxRjmWOohFMpnsoPcLNSgRyPEudnF06rWJCjgD/5yU9iCmR6wl7/+tdX22+/fawhnvnMZ8aOlYty+WO9Qt6kHwaZzzZuvvnmavPNN4808MdUDD/1yZ3EuKIYyzwCxdQQ2kqG0tPTEk4alMm0uCgxPT4uO1ZrrbVW3IMC3n///c0UB9Cb77bbbtW2224bC2xGDowDJQX/9V//1Rig+WIoxgPL7Yt2fQBGfdBBB1VnnHFGjHR33XXX4zFLA8VY5hAqu36V0emHyqirgdjz2suvueaaYSA8vwA/+MEPJvXML3nJS2LXipFjs802qzbeeONYowDSmRflkrd8EI6fcMqFNBx5GgZtgyEvtpDf8pa3BE+333578EV45n9cUYxlDoGCohQoEUqJAnoNNArBSEFvTDq2aBkNiHfHSgVmp2rfffeNqRULdEYPF+XCRTw8cJ8ECMevYXidwf3wMwyslyDPa665JvjEiL/3ve9FuIY77ijGModAWbIiqkwYCQrj2oMFOesOwiAe4qHIgLQcH9lvv/2q7bbbLrZ2WXdwD4ZEetOi+E7lNE6Qy5cngJ/05AHIj/tADh8G5g3I/957762e//znxxSM/PIoljuKcUQxlgUAUxGmVSy0URqNIyvx2972tnhSzlNy1hyc5s2KjF+Fzv5ByIYA2tcCHjTCmSLXg42Dd7/73dWJJ54YW8h33313lKuBjzOKsQwBe0gIZRUoQ+41MQxGAp55MLViQf7ggw8+HvtY+je84Q3V8uXLY4rFs4511lln0rSKMtroChtFnH322dVrXvOa2Bn793//97EfUUQxliHQNgrgVMP1ByMCSs1DOXpc43kQuOeee8bIwQFERg93xHDpee35BxnFqBuLo8f3v//9OEvGaWVOIDv9HHcUYxkCKCsGgKviYjyMHmzPcsiQaQfYZ599qt133z3WHPSwHCNhxAHcq9HhmpfGMgimG1UgG4z/kUceqV772tdWF154YUw9Obm8VICxFOpB9TRp0nWtvBP1yBH+pz3taeE/8sgjJ7773e9O1AoyUStOrT+Poe5dJ2rDiDBcUBvYRN0bRxwgvIvGBdaHOn7oQx+aqI1/4ulPf3rIpx49J8luHGnqrqxgEvIilV6+1o/oSXlazXQD/2GHHRbbpjxE5DrfQ3pGD0cIpl/4marVRhFhGcSZdhzAmov6UkcekFIn6giWwlSsGMsQyIqu4qMgPPdg6nH66afHwzjiAIpCPNe43osRCfPEFeNmJBkYPuAEM+CsmmHjjmIsQwAF1hAAfp6233jjjdUee+wRR93pQVV0RxXv816UB38edcB8G4k8DKK5gJ0Da5VDDjkk1nLs9C0FFGMZAo4I9pQoBR9xYFQ45phjwnBQdoyAKQiK4z2EO3pwH9cq1lIBdaLedBjUjedG1I8t9KUwuhRjmQE0AJ6scxS9XtRXO+20U4ShJEy/NIwuJcmjR/aTbx/jQSHzGsd78kiFwpqf6wXu4Vqi7EyzhfkiA8pimxxQPnLoKsewcTCmYiwzBNvAPK1GOd761rfOWtnIR4XCb1g2CuA1cTkd4H78GIkLa4Cfh6KcOSMe5cWYNXpgHrMBvJOvxHstPG/hxAIPaQeVQfhclD/fKMYyBFRAFMG3AU866aQ4y0XYdJhKWQR+lA5FVvkEYV5jNBCK7/2khzAaNhw49csLWRw94cWvr3zlK5GO50LkZW/OiMR9cwHzgScM5BWveEWEcfDTcNPkMrMMRhlwWagn1Q088dSnPjX8uPfcc088C6mVtm7v/uCeTG0YVit15I2rv6usBx54YOJ73/vexKWXXjrx4Q9/eKJW0njOIc8777zzxMMPPxxpc164XeXPBuRHvuCzn/1s8LHppps2Msx8QYaPAXUGFpqCNttss3gA+YUvfGHSQ8W+QJm4D1KpBHH19K4Jx+W6jZ/85CdhHBdddNHE8ccfP/Gyl73sCYq38sorT2y77bbh//KXvxz3aRg8QMxG0uZjJsj5IROuv//970f566+//kQ9ooU/GwvuGFFnYKEOopE32GCDaOQDDjhgop7qNMaSFWU6oJjZWLwXv0qbDZCwhx56aOLGG2+c+NKXvhRPxzEOeFIB4WmdddaZqKeEE8985jNj1Nt8880j7o/+6I+afCgLt132XCEbIXVgNHvlK18ZfDgiayQazRhRZ2ChDqKR60Vr+K+99tpQtq5efxBQojaRh5Tx05/+NHrlf/7nfw7j+I3f+I1JPTEj25prrhn81OunibXWWquJgzCipzzlKaGQP/jBDyJPy8FQAOWLdvmzgfmSJ/6TTz45+PXoC0RdxnA61hlYqIPosXH/5E/+pFGuLsUbBHpaFUjgJw/iGDmYVr3//e+fePnLX94oky4jB3P/jTbaaGK99dabWGmllRreIBQOpcS/ySabhPvpT3+6KaMLbX5mA8qwHOqj//LLLw9emL5mXnP99I8ysR2BZ6xRCz6obvS4rgU/yc+xeXayasWIsLr9wu0C6UlHGneLyItwwjhVzDsa7IABwihbkJZryyIP/Lg5HbtVvE3Ic5pvfOMb1ZVXXlmdd955kY48yYcP4/H0Gz9bv/Vo8wTe2+VzTX3ZqeOVgLPOOisenFqHqSCfIt9DXL4/l5khP7jyisw4fc0X96kPvAnypJxxQVjNuFDdEE1PhL8dXzd2468NJE4De036Nhk3FVEW+ZKenho8+uij0XMyR68VqfHj1o0faQB+iPVNbWQTl1122cQHP/jBZs2ReYBXplWMYGuvvfbECius0MRBT37yk5seON9nnY17znOeE/5/+Zd/CR7gry9Ia31wv/Od70x861vfijjrkuvXhnHm4/Xb3/724GnjjTeexCtEvfSPMo3dyFIrSdPD1Q3R9F5tkI5DjfTefEeLfX4+QdoF8yCe+0CtLBHOM4l6ShE9O0/s6/VD5FUrQqQDPrEG3EPvzEe2KZsXob797W9XV1xxRXXBBRc0ZVEOPT4vSFEWp5a5J+dLPUnvPYD78jVlc49hvHXJQ8B3vOMd1XHHHRevNMMb91m3qUBelKvLG5177713dcABBzzh/kH5wYtxnA2DRz6PxIfDGZGRybgCKY8F1Q3QGQ7lOHoqelfCTj311BgF6PVrY+gk4iF6fyhfs4AnDQtu8hg0erCVy8hx8cUXx1bub/7mb07iDZ7YPmWHitGDNUd75JDodSGvvb+r/oYRzxpm1VVXjZGGRX2t8M3Il/kdBNOQHrDWgI+jjjoq1iDEZxoE5NPGddddF3w6suQZAHXI1yNMnYEjSW1laV8jcJTmec97XsT91V/9VTSUDd0XWRloeBXOa+BzDp61/Omf/ukTjAOX3agtttgiFtv1aDQpDkIR4ZnpomHE5zT5Wj+UjUlFo4PA/eQnPxk8ZqXtU//cCfDy2ote9KLID+O+//77G7lkaqMrDNDZLF++PPJbbbXVwoWsRzGWOSaVBkLIWWEgelYUk3Sf+cxnopFQgKmMJTc86QzLioaxuEWMkWAcbOXSwJknnsH4nAM/DwWNg9ecFj/k6JLjpiLv89rnLBgm7vbbbz9RTxkn1SfXZTpwHx3DKaecEvnxUJN6XnXVVc0IlSmD+NyxAO/Bfd/73hd51lPFcK1H37qPAHUGjiRloWblYzSht3Jr8uyzzw4FoYHy9CHDsExd4H4VgCMlr3vd6xoeUFAMAwNtP3DLfkcOrnM8SqjB5/rgto1rUM9rWoyUa467AOqfjSQr8CAoL6Zw5EX9GKXxYzzE95WbIF6jrddswWv76At1oA0NG2HqDBxJysqTiSkOzx7wn3POOU2jstbARWmmalTiJIFfBaOxMZRXv/rVUQZTK3arVllllYaHrgbP19kw2pTrNaiOEPerXFybJw/7cH//938/6tzVQWT/INApgHe/+92RP+sLZEs5PPdBHl0GI7Jx5nDz5dsE8MmIywNV6zUmhgJ1Bi4K0QMjTK+zAhIOEZYVao011mieqp933nnRKDSOCpNhQwNcrh2BhH7iWeADDkvut99+UYbrAvjKvC4UKRPlgszsKHioqcLm82VZDvpNx3UmHyBaT4jNCAzGLWTuzYaR5Sfa+UIcfdl///0jz3XXXTfcMTIUqDNwUSgbQTaKPAXRYBDysmXL4qk24Tz5dri38WhQG6qrQYFxpPX+rAg//OEP4wQvZW655ZYNH4tBykMj5dopjZsZgNHFNdaguisbYPyPf/zjiT333DPyZeRU7kzxKJPOSFnhKq9BUPaZPvGJT0Tb0cFZH1z9I06dgYtGuddEgNlQII0FQ2ErljAOF9o4NiBubswuhRH5PkBa6Ec/+lFMPyiP9RAu5aus9OrwBy1UY1s2MnIq89znPjd4zbwPgvVUeYGGc/rpp0edPNYjOXL9wR/8QRihxoLrvVl+wjIkcOWVV0ZerrEg5er1CFNn4KKQAutSPOI0IhbTKsoll1wSjeDUS6gwuLmxQPYL0zt9ufvuu5vDi57etXz5wSV+oQxFsgORr3/8x3+cxLsYVE/DkZfpXdRzIJN65jq5ecEJgzvvvDPSd+XdBdJlwqg9UMlOnnIsxjJLstHy6ML82ca74oorokFo8NxjZoXJfmHDtfGzn/0sXJ4puDWMQsJDbsz8MHGhG1lZ+HDvkEMOibpbH+sPWU/9QHm0R4Jjjz026mmPn5WYdnC699WvfvXxOx4DIwvoknOG5YN3vetdURZbyHZAuY1HmDoDF5WycqqYTA9YFBpuozkNUClyoxkHTDMVAUYUzm1Rji954YcnSB4zydNCEMqFLDiWD2/f+MY3gu/2yJqhTKgjMnF3ivSsb5wauauGHzcrsFOzj370o5PknOU9HTTq888/P/LKU7Exoc7ARae2AuYDkTQusNFpABsQ8roLxuF6TT7sfGEoLHApw92grh6PMA1nOkOaS7IMnyeddNJJofzWxzqBdh0hRwGgnyfre++9d+TnDhVkvSmTOrKFjJ+07hJmGQ8y1AzLvP7665vyeJDcNswRps7ARSMVIgvPKQdxV199dTQ8DeViU2S/imKDDtod4prG56n3vvvuG2W4Fd022HxNuqxQhs8nUY6nAtjcYLoIqA/Urpt+44AuQME5RU29XP/gz/XBL9EOuGxRA/OVpgPlcQ9vfe61116RP9PqXN6IU2fgvFBuiLarImYjwe9ODPRv//ZvTQPlqQTXhuNCXWjHmccdd9zRGMpUI8pCkWXjtuXk1IWpDLA+uaMYBORDOuV0yy23NOXk81qDyHXLueeeG3InL/JRjsPgAx/4QORlx2T9Rpw6A+eVVAYMJCtlVhJcejL9vFdBIwMaRyUxLCOHkc60QKWysW+99daJPfbYI8rgyTyuhruYBA9tPpiKolRvfvObo3cGKmwfKBenUSpsfoNxKmKdRPnvfOc7435kCPUFfDrCcyyHPDkqNAry7kmdgfNGCqYtIHsWw+1xIAxFsCAVbUOx4QjXKEA7nXGMKM7X7bExzmy0LKjhaSEadFDv6o6RMnFRn+vYF8rvX//1X6NO1Jt69qkf2/XwyCFRt5CzzPuCzo6tavLy2wELId85oM7AeSWVEWJnpx2ed2VuuOGG6JFoFISsguDqt8FyL9dWJO7ViHBvu+22iZe85CWhiBqKSgllxYWXQYo8H5T50O9DUT5eAf+OmPj7TINIZ6/Oot4vrjBa4OY2mYrcFeNYDLLMMp8O2bAw2je+8Y2RF+uvhZTvLKgzcF4IgbSVUL9K4byYXoyXqUA2EoCwcyNN12Ckzw17++23T+ywww5RjlOQrKCL9RylLRt54vybcRy/AdQJTDcFI10mwIfvyIu6D1s/72ELOaOv0Wjk4LTTTos8x2gLuTNwXgghO+Q7oqAQNpi9J8fCNRR7z9zYfUF6RxLB1IuvM1Imi3n4URFxs8IOCptPkh/4s9z2ot4RYlhDgdgepwy3bGmHYeqn4TIqu27qayiUD+j84J2dTXjIDydHnDoDF4QQug3F1iWC4+08FBowVOeeSGEDwvJoo1Fk48Dv/eRFvrytp6EMUhIbjnjSQu00C0E+fMT/hje8IU4YKIusoIR1TcWQQybwZ3/2Z5FfXqNZ3nSEXJAJaxauWUvaBuY/HTLfvI3pFzM9EDvi1Bk476Qi4ldxMRTWEqBrIZ8bPTdOV0OhQDYMebHr5YtMfZ+jZP9iGAyKzNY55efnSxqG9c6dhiCuTWwMkK+7Wu3y+hD3OVX2SzfImfynA2ngH8IP30cffXTI1mdpI06dgXNCbYXLcZIPw9iVoqfJRjIVcg+VG8oGATbMzTffHCMKPLhGydMvaBB/C0nwgOLY27vRwWvMfUF9VV4VEjAqvf71r49882kIy83Xg0j+uJ9R79BDD40pYZZ5X5j+85//fOTNSCcfjGDDjHgLSJ2BMyYqnIXfrrQ9NC4CIv7Xf/3XJ+699974okoWuo0tdRmCfkA84Jr0uIwoDvVdU4++irIQhEzkB2X0Ixds0+bOoQ+UCfdBvtLLcX7KsCzcvusFeeP1CMNYA1nOdLD9IA2atSn5ONq1eZFHKIcvEnUGzoioGIqoMurS8PhxTcuLVAiA90UwFKCCI8RMhE21PWo67gcuINnL94k8Uy/5w7VhcInvqzDzSVkhHAHPOOOMqNMwyqgcvIc3Pf2wBZ9Kos65LaBhldGHiW4hu+nQB7Yx4IUzOkvyZPMgtwN8UoZtNALUGTgr0kigrm9j0bvh8iV6pl7AUYUGRvgagGj7VQhhmAqCofhmIw2by89EY4yCoUAoBUQvC198XgllArn+U8F0yhKwzUu+jKzZKCwv89CHaF9l+7GPfSzKygYwCNngbS/oz//8zyMvR/42ZZ4XmToDZ0wI394gG42ji0dKDjzwwEYRcq+UhZ79uFzrz+HcT0MYdtNNNzU9H4tR+dAouoxjJkoz16TyqjRf+9rXoj7tjmEQsowYXbnv29/+duTlGTvrOZsOArk6FcOgWQ9Rlu1iO3Qhx9nufNKWvHjgOapt8zh1Bs6K2hVWWX/5l385XBaGGgpC7jICgN+4QeD+3GPx4Tu3IfMaxd6pLXh4HaGeK545wCNf6hco1XRyyFAeKPHBBx8c+bHdaz1xlQMu8mnLZRDlmYLb2t/85jebtsvURq4DftOwA0r5tAVTMfK0zaDcfotMnYFzRlbSqdcRRxzRHOTLI4JG0yXkNmyMtvAZUTxG7tQrC1k/jUKavgqyUMSnlVQWppHUybVa7hCmQr7nwgsvDEWj07CuXOcyhzEUSdn5NP9zn/tc0yaZBoG2Bqbj+j3veU/k6UJ/WJ4WiDoDZ0UIkMr6/xDmt1zzzVxf3c3TprbbhkaBUHNalQKj45tUvEyEIbhn7winkchXV2O0rxeDnKLy4QiRO4Q+cGrDot7nSSzqLcN6OqLOtN7c5wdDDj/88CiXNmlTGzlMHfBUBXm1f8oEj/KawxeJOgN7U1vY7QZwROFXbSi7hBJ0CbMLbcHrVzEwFMtsjyhtdxQIXiV7epXk137t1+ITsdQxjybZbycBlKNGpfvxj3888nMqOhf1z+2Kny9Wyj9b9IDyaV8gX5k/4LXGctxxx0UetJ355REP/4i0X2dgJ1kByKkM4VbEiup325b5N1OvbCgKsQ9IZ1rvQ9DkxRpFPnyy3CZHGHlfTMp85TAWt2yC5I9w5Dq3kY3HdMqWzoM8eQvRLeO5ILebcz0cvfidX0YXz8BwDYUX+rjfDRnzz7rE9dgZC9RmPFcwC5H5LErKkXJHgLah2MjTwbQKmm1m4AMtKH/rSuNA4Nlv/GJRmwdlp8IxbwfKxQ4B6GZla4M4wn/v934v8uMEwHwoWq6HnzXy1QEhnwA/o2G7vWlHvlBJG3mqIOvQCFJnYCdlIeGnEQzLlXRE4dCejYywEBqk8reFNwimRRFUEkcUejsfOA4SdPsB3GKR/HqN/CA/FMGiHnnZqWT5KIN2mDA9v8AgL9tAmQySzbBEPrnN/SzVbrvtFtNH+ABtXoX6QByvJ1N/ZgTkhdHYueXy8vViEr9nwtMLNePNX51qgcUfqwD+Wkjxp6h6jhx/dvroRz9a1T1c81eqWkkm/bEKkE8f5Pvw14ZSbb311lH+lltuGX/YouwVVlghwiirNs4Iqxul4ZnrxQR81aNs8KJ/ww03rL75zW9W9aI+/lBGXK0wITfkCqgDvBOW62G96g4k7rn77rurfffdN/5RWStx/E2Me22f2UJ5UiZlUwfKrkf16vbbb6/qKVX1vOc9L+KBdeDaOnAffnitR6Xgm3DaCxAPuMf7gGUvNsJqhqG6Ek/w10JpDkXyM51aUHW9H0Ndyc5epi+8n0OWHAu3zDYf+VrqOkGw2FQ3fOOH51122aX5/Ko9L0CGjqTKL8sVMGK7w8j3jsmTXTVlQbtYjmXOlsjLOjASuIngFjLr0zafXFM368O/WuCN6TP5tdtpLvmdKxpqZBF1RcKt6xzuSiutVG200Ubx591TTz21OvDAAyMNvQW9vemnAnkNSmc59TQl8mb04K+39Mz46XXseepGiR6PvOTBHpA0iwn4o6eFZ1xkc9VVV1X1dKTaaaedmhECvkkLv225UD/uBcSZJ7Kpp17xn0pGFONwlc1cgLLgAZjvBhtsECPFoYceWp100kkRT5x8m946ff3rX6+WL18eoyojkrC+0CiC2gzNmZVCcLj1nDN+d/2pT30qfthJvAoBcmN3QeEMSmc8PyjF73QL4WuMGI7TF1wVxTxzIy8W4AWe4A3CiLlebbXVHk8xWRamVY5tEIes6xG3OvbYY6sTTjghpkS33npr3JvrPJ/1X2ONNeK34+DOO++s6sV68AbUFetBO/Ej1s9+9rNhLKQ3HWmsN648e4272ICDSVQz1gyD2Q/VlWr8HCH3uYYvAs0namEuaRoGpK8VL/ycraJdaAumRbQHbm63+aCsIz7N53fitYJPWshzDQFOUXOPD2DHiSbNS7BuUNcpXKC/FkjTS4BVVlmlWrZsWQz/Z555ZixOC+YfyN82YGS67777qve85z3RK/P7cUZcwHVux/kE5TC6UeY111zzBF0BXDPiMaoQj99wMGj0HDVQo0lET1FXYlIYPRVhuJw49Sea/O7A3qNg4UDPjcz//u//PtrBr/3nNoMI6wqfDXXlh06gH7vvvnv8UhCdgOQV4vd73Ivu1MbR5IV/rnmcJ+oMnERUxuEdofgg6p/+6Z+iwRAKuzIFCwN2BVE+XpdGQTl8mT+/Ot+K1+5IIfTDM3l8+Bv+0AlcwEf9iHPnDB7rkbG5X+MZZXrCNKyuxONXjw2NhNUGEcM70y52Wniucd5551V77bVXpCOOKUHB/IJ2ACuuuGL4TznllGivNddcMxbOgOtaNxv/XGKq/NABNlvAd77zndAddyAfeeSR6rjjjmsW+IRBxJunPI86JlmPVFdmUg/lCWKeNrOIA2VEWXgwkgPOYtEebrC4oLfNcGlD/Lj6Z0PmkfUiE6eQGSHe+ta3Nh8e4bkKU0Xu8VXpcaWBDx5qQ2isvW6IavXVV49eYJ999qle+MIXRji9Cb1FwcLAnhr36quvjvaQGGlsL0EbAuLbcbOBeZFvdgmHD05YPPzww6EfjCTnn39+8M3WPy6Qb/3jgrAaqGZ6Uu9hb8U14b5Yxf/W+V4uqAXSLOQK5h/IGuJIPO1CT15Pfya1E36vbUv9syF1o32NCx8e3OTpPGAUhNfrrrsu0vFqM7y28xkj6gwcSL7L/du//dvxX3PAVCxPxxAQgmIInktjcgoCzJP8xxEq0jAgPYSscf1msR+PaNNCK6UHWjnMCXgOpF58+MMfjjQu8OmIM39zZdDzTJ2BnUQFcfmyIxXl/W5OmgKVVuMYVhH6gnwpA2WjMSx3vsqbS8CjyqOcZgLrjOxf85rXRJtwxN32sfee69FF5SYv/ZZD2XzMnWt+kgSonx0mHzR3psLfyzJ/c8HbAlFnYCdRQRoCP29Acs1vA/xdG4JRAbpGgblAV16G4Y4yDcJUcRnIV/BRbu675pproj188c32mQ9FJC+Ids9EHC+a4TLj4GBnu/3h/bzzzos0vj4Acf+4GAur8/fW1At1vRv33nvvrbbYYovq0ksvjcNwu+66a7Xqqqs2R61rATQLzFog4SdsNiAP84GHukEinPz1jzKUB4Bf+LYe+qeSEWlqpQu3Noq4jwOsdc8dW/n1NKiqO67HUz8GNmBst7mA/JEnfFgnznlR9pFHHlltu+22TXuQHv54tFCveePA5WWXXRbnx9gEMI31H3U0ltOH6oo1vQuux8H5HTZflqyF10w1ck9YC+9x38xhfuaV82RKNi5ARm24DpGmA2mcjrnYZ1ThvB7THadktE1uv7kg2j5fU65rWb5TBtQBYZ1c7Ptmq3rUznMUiW4CT2/QA9QVf/zqsZ6LU8dsF+65557V3/3d31XrrrtuMwKQfq7AOTReMFp77bVjS5Leyx6WcnBHGVl2td5Eb8tIvMMOO8TReuSV0b7O4H5AnWvDqM4666yqXr9Um2++efXd73434gBxlJnbbLagzckPHqiTL5oxu4AP60LdKB/IL+k5xn/44YdXm222WegN+Y1624nGcvoQvQBuXekmDL9f5uC3EXfddVctm5/vktED1sKNsNmAkYsP9FmuZcsT7ihTlpk9P8T/7JFPm7qALPOI7ejCVv5+++0XbVB3Jk3eUi57pmQe1ke/5wRPOOGEJ4z+gDCuHf1Z47Ihwb18ISbnPco01MhSV27gvJI4Xj6iV9txxx3jJPL6668fcfQcxM8F6K1OPPHE6g//8A/j4egPf/jDCKeMUQeyQw7KkV4Xvm+44Ybq+uuvr7baaqvHU/4cWW7en0GPXCtahH/lK1+pdt5556ruuGIUJn/umcteG37Nj3Jro47yWLd+8YtfrHbbbbcII450pPcaXmrjjrALLrigqqfuMSvhNXRA/KijsZy5IL9Uwt4/B/3oIen9oK7ekjB6nT6w1+IoBZ9XopxawcKtlaXhAco9Vd04k+JGgeAX8mMVb3nLW6LnVR5ZVspwEIiHkA9fiCE/R3rl0JbPTCjL0bxx/YqmfzAGtrf10HW7H5djMdzHVyjNu4vfueB9jqgzcEZEhamYX+vg+7p1DxeCYjoGUISsDBpKX4MxHQbz3ve+N8plk0FhU658cJ2NZhSIk7bwJxHmJsnFF18cdbNzUVZTGQpQKSHkTZ58tM+pHnnPhRzIo52Pv8w76KCDmn9Mwgd86wJcdUD3xhtvbPIgX+WhO4LUGTgjUkEhRhgr3fUz1ZlApcmG94EPfCDK2GabbcJFQVSSrJCjQG2lhU92kpi3E1dPK5tfcGSocIOgTKW//uu/jvzzt9Ry28yUch76fWbyN3/zNw0vtjPA7zXtZrjrl5NPPjnu530c2woZjejx/c7AGRECzAL1aAPklqJCUuHBdMqQ4TAOIXhGmOOPPz7K8OsymRA0wp8LZZkravfO8Khin3rqqVHP9miiknWBOIhpGC5/KNhjjz2izoww81F3eM5bxl//+teDF3mYDqShjiz2PY3MOzkahu1meSPSfp2BMyIqBFFJKkvPiRIoAD7ViZBQcHsce50+yCOKwsaPAfG9XMrmZIHltXlrhy0GyQeuvadK4VNwfuEA7BCmA2kgFNV1Ha9RkBc9f1vxZkOZf9dbe+65Z/N2ZO4Ep+Pd9vviF78Y+WB45j+ChgJ1Bs6IrCCVy5XlNKoNpiIoSBt6OsEC0zi6AI0FJfngBz8YZTs1oDxJXkaVMBw6Fvg/7LDDmj+hUU8NYBCy/PRzr9vsKGFXBzIsteUIv/D9/ve/P8qEV9sFwIPo4o+0+KkrX+Knc/XL/BJ8L0ljgXKjZOGy48E18bximoWXBTwsELp5oVSuYfhxEkLOc9/FJhsdOeD3Orsa+qWXXtrUiTpmxWuD+isDoHH5iVueu/jy3lwRdfDFs0suuSTKU/lF5rmLf42Lj/LxzWPy8pvH6hHuCLVhZ+CMKRsIc1pcFUNBQBjMbGEDMK1j+EfwhDnCdK1hRona0zB49uRu+yuV0CC0jcWRFpxyyimhcCr2bEg+yU8lJuz222+PspQ/rjxlvnIYZPv5f36/+q+hQMgku4tMnYHzRvzCTqFfeeWVIbD2NCOvTVSSLPTpgLJ85CMfiTL8PhXCtlypK2wxyV08FdsdJuoDlFOWxSD5GP7ggw9O7LTTTpG3T8vnQgGdLvEiYF9kA8G1XmeffXa0Q94Rk9rXi0ydgfNCKibTAvz0TH6UrWt3TLcvaAwaAJf8OH5BOe62dCmHfMxGceaK5IHDkHxFBz/b7tSnbQxAg0BO2e+1yvilL30p8sIIuwxlGIU0raP2Zz7zmeDN8ocFPL7rXe+KvDwCY1mQOjMi1Bk4b4SwEQC9HESP55w3K4XG43Vfw6HRvJeemD9gUR4nCnBpDBskK4m9+igQfLLGw3/kkUc2MsDtkkNbUak/RP0h7jnkkEMiv/zshXJw2wo6HfHylvz5SGCY9tGFR7aO2YCAF/6paRnyNFMe54k6A+eVEADEUM7/PVjb5KfXfQU/FcwDl//AUy6L5y7hGzYqpOH6Qtfll1/e1EWDyTLKfuI1LmTp1M2n5Xl7NtMwMvCgJs9y/BZDH8gX0H/11VdH2YO+/AKvI2IoUGfgvBG9OZVHQLhMNxA+fj7aBxAkDQ0xTOP2QVYawMLfRuFJMWVjMChjboA8wiw2aSjw57pg7733jgeN1M9pJkaQ5WLdcbNSAq4J/8u//MvIH8VU/pZl+VMR6ZCV79rzty94aJc3CKZjRLFd//Zv/zZ48UxhmxeuhzHkeabOwHkhKp6FgRAgDuJ5zJtXT4HTB2EPOR2ycXE/BgNoKI7CUwbK0m6EUWiQbLTy4zrjU5/6VNQjdwCDQP2VAa6yY7G/9dZbRzk8UFT+ljkd2XaOAs4Gcjv1AfxD8MZryOTlGbOsH163wxaROgPnndqKylSMTy2x2D7rrLMeF2v3DlAf0IA2omsY8mArlTJ5DjNKI4rU5omtVBb8KAzPTagTMsny0J+VFr8GQ7ydjx/n4ygSeSJ73D6yMK1b3jfddFOUoXz7Qn75sAX5UDYdpkahq18ybBGpM3BeKDcIgtdgFAT/a3eE4SuGNAQNnBVjOpA2Kw15GGY+GAxlojBOe0bBcFRCSflwAgI+jznmmBg5RTYIkOWUZZBlwsck7M3ZfRqm3sjMs2C/+7u/28gW5LKnQubloosuirzaz4Dgqa0bo9A+NXUGLhohJPfbmc8iXEilyCNNWyGmA/eaT/6lHIpo40jtxmnHzwe1e095INw5PQtikI2kbTSDoIz4cDd5MfXxwfF09YMH+GHTgbT8Z2UmsD0Bx2TIK+/QjTh1Bi4KobQ0CluIzIu55sGcU4guhSC8j6EAemXSM23gHvKmXHo2lUUFxc0K1Fbk+STLggf8kKeHX/3qVzfvjYA+RiKsO/jYxz4WZbgmao+w1F1DkgjzFIZn/IadgsEDYMOCPxyTF1OwLOsRps7ARaOstJ6TYicLIefGBiiKhjKs0ui6G8OUTEWBVFLicvh8E+VRrn6v4cGFNWu6PEoC6zQdHJnvueee6NHJn+lv5sH6ygfX+D0Vvddee8XhR9rC9uhbvrt5fuXF35dY1ohTZ+CikYqhknpchW1PQOPY4LrDGAoNlQn4shRTjHZvCqk8C0FZUVUgXRb6rmv4/BGw7tZlKigvZMh9bNWTl59/dXTJbubBN2B5bgXIYxjZ506K3yq6qUP+Y0KdgYtCNox+DAY/BoOfRrLBc09Gg/VRFu9BWfBzn/lhMJTh9E+Fyfzk6/kiy2nLQj9rF/jkGwSZ/z71B6T3HkYHTvuSv9MrFFi5a7hcQ77Mx44ayOX3gfJndOFIPnl5Gh3/GFBn4KKSyoHCKkgW/Vxzotihn2cOw/RsIDcu99KA5sezDMpm+pcVdDEol5/9KLC7R9dee23wbT2mAwaVFRawYUD+fgE/l6NfwpBoAz5MQZnKPuc7HbiH7x5zupryPNy5kKP3LKgzcFHIxspTkdy7OSXjnRVfjurbo7bhfeZhY7OGoUwfXFKevOhfKBpUvueyfuu3fiveBQF95GAaOwenY3zhnvzzdxM8XIrccTlNgP/tb3973ENeWYZ9YPqrrroq8qQDxIWs24hTZ+CiEQ3iaJKFqF+DOfbYYycpSt8GE9xjz6jSaDgYDD0oBkNvStnyNN/UrvOgHpfRj7hzzz03+B9mOiS8h48i+jkj3UzU3c2FM888M+4ZVt7Axb0PhvPzlfYzphGlzsCRJBWHX17gP+qoo2IblYZT0VUA/NntCw3I/7UzT+cpOn6UN69lNCDcrOQLQWyvWz4vX8G3JHLd28rttcdn+Os0eSFby1CBcdkJo47f+ta3Ghkr80EyNi6n4aEoIyL5tt+vGQPqDBxZcnrgEP6Od7yjOflqzwV0AQqUrwfB6Qkg/T/8wz9EGewC+VouCqqSEpevdeeTLBO/266s4wBKbMeRjcO6q9z6Sa/iI0OVWMPAT6fkhyn22WefOF8GuD8bZhcoq01814wOhzwHjZojTJ2BI0lZSXHd8uRtPadkrGVoRJUFV/90MB1Goz//XYv3OHL5UxG85nRzpRjm6WKbZyW4vJqb660RAJS0jRzmYp9/vcC3eVoHp2DsRnof5QwaxQRhbbrgggsiL08u26ZjQp2BI08IGXINwxcReSoMUPY8ykzXA4qsYPgxPHDOOedEGSgNI1vXVAyi8VWATIabbqZkHuYHsdjHffOb3xx1pq7WWxAGUSeUXMXNIA65cQSFMvKpBo+j+FareSjXdl7CciTK+OM//uMmTzsQ6zUG1Bk4sqTyeY1fg3nTm97U/IWsqyHbjdcmkBXBMJSI98QpA4PhiTd82Ngahf75ml7kuuNitJTlSYfPf/7zwa9GDqgDdRoEp56kQ5nZFjZ/pp6MpvhZ+PPUH3TJqAvEZeIvCMuXL4/8nepZJ4jwEafOwJEklRAX4eLayztVYN7tT5U0GBaxKEK78doEVCzSA/LQz84TZfDUGQXFdZGqwbQbPStEDp8J5REtE88siKO39uPc1gdoEKJtPKZVXux4wS8y9ZtjRxxxRCMnjSSXkf3CNJK/9GM0HFSXEafOwJGlttJpQCgki36u+U+JvSCKbk84HWUDAVyjaFwbxrksyrJ8/LxWgKKy4PZTRsTNhYEMolxvyvFUMl+1EbkeQCOxrsZzDVy78GNX/uRGfn5Dmqko6ZRHG5aRoVwltuTJy1MI2WDmU1ZzSJ2BI0sKVWUxzGuPZLBzg8HQsDQwjdluvDaBrAiG4aJIKsQNN9ww8bnPfS6e9Wy77baT+GFNw+ee6JUxIj/CMFfKQD6SYRqnu2Ns72IYkPXBtdPIyAYEvP7qV78aefFmJS7v8IO2obTvzyAs04EHHhh8+7o0/jEbYToDx5IUPCMMCsTp2DvuuKOz4aAudMVxrZL4mjIgnDUS33DGeI4++ujoiSlbBcZlusaCmdGHLVP4RFFM06U0hEE5DPKeLvJ819ve9raGz3wkqKtuGdYT4j5/6fGKV7wino/0ub8NOxjagbw84dyuR1ddR42G+vPXqKPu3Zt/HW666abVTTfdVP3qr/5qdcIJJ8RfsOpeP9KRpk3cYxz+HFf3nuHW65PqBS94Qfy9qm7cCMMlb1ArWPzrknL5VyJ/87r44our6667btLft+p1QPzZ+aGHHqoeeeSRqp72RJm1AoVr3oA65XuJy2Xr517cuqOIv6994QtfqOrRtckPWEevB4H6USf+5lWPViE//kIsBt2fy6qNJFz4J4y/ku2+++7xl+LacBpexg1hNUuBcm9VN1Az3M8FkR8uU7BaKSfN0fEzTXNKIkjH/J9nIKx1mLbxdch2nryxmEcew/Nok/3Ed40wTAVZM+FnOurOoGsR+IGmAqOKLmk/8YlPTFx44YURNsz9wLTIJX8sxCnruNGSG1nshfUvW7Ys/qZLj1+326ReUb8uvTN+r01PXhD/PjzssMOqD33oQ3FdK0MQvXDOGz9lO+JwrfvAAw/Ev+DrNUBVG1F16aWXVl/72tciXtRGHnzXU5/qwQcfjP/FZ74o01HIcnEZOenRn/Oc58TI9vGPf7w65JBDmnu8X7eNem0Xf38G8E8dGf3Iu157xTUYdH/mBT6oP3zC/5ve9Kbq3HPPjT9Z33fffcGP9wDytu1GFdR6yRgLaAvdxsO1kW0gkP2gKw1hNHrd81e33nprddFFF8WUQqVVcS0LIkzAj3kA78PFGG677bbmt+WXXHJJde211zZ1oD71yFOttNJKYfAoNNM2/JYHdMmXe9ZZZ50wSqaA9SI9pogrrrhipLGOg5DrYto+xgasG9BgmBZuueWW0Wn99Kc/jTRtvknH9G/UAbdLgupGbPx1g00Kw+1D3NemWvliGsQUiesXv/jFzXk0p2NMP6BayWP64TXIYfi5h2vDBNf8FIhpG8dseNrtQ7xcJxbyPOfB9ZSwvOv6HS5esqIMy4OmgvyQzm1iXMOmup+6ZTg19Y1MdyrhEbftHwPqDBxbQqlxVZp22DCk8pk35NNyXosFbeVBOTQOkRVQhVKBQd7aBrqk4eAiH4fgOQcf0N55550bXuSNLWPWPOy68WSc7WriPLLCn7UA+Zp3F4yDFzuBHDbd/Rmks67vfOc7g09fIVa+1mNciPEUz5JA3QDNsA7ydTsugzjQju8KZ11QK2BMg5g6MTWrlaJz3QKR1vDsgpwWf61gjQuRp2kAUymmMfz7P695rr766kn5Mm1jt40w1i4vetGLqvPPP79aa621Ij7nmSEfbb9o890GcqC++uH/zjvvjH/j33zzzXGN3ADpqCMgP/MedcBloZ7EKMWODj32+973vrqNfz6adCH3sMOA+9rUBQ6P8vNT3kfhI3w77rjjJH79IgvfSXO0APCU8xyU/zAwD0ZEpmCAf/AgK08YjDl1BhYaQBgLaxi/Rn/FFVeEUrQNAsVx+pWnXMOAezLlMlB81xIZrHn4iB7TNoxnu+22a3ivF9qRj2uJuQZ5W2fzP+2006LsYiz/H5ML6Fe96lXxtqbrjqyEbcUZFtlQINcNOU5/Lttwrt0w4KdDfBI355HRFTYsMj+AUwB8PYYjQMprzKkzsNAUxMjC1MJXA+r1QCiHxoGyaDxezxTcK2VgCNkI8VsuoGzLx2U0gXJ+jnhdI9RMQVnmx7fNkA+y4h/3WYbjSD9/GFDQCyxMa8WMxSkLbRathx9+eHX//fc3cSxY8QPSzWYBy70QIC9h/ubLdS4DvkzDcxfIB46kgwjD9RjQbEFelAvVhhgPceGdIzM8mBx3FGMZAjS8Coui1YvrauONN46dnnqaM8koiFdhCVPhZwrub+dB3jmMaxRfHuWFNBpO3fOHH8I/l6A860rdr7nmmibc8scdSLRQT6ob/Qlh/oaBtQFgKuKUDOTp0mxQG0GQ8Jr822Xk8k1nGGnNR3cueCQvp2A8H+I3esiFz852yW3cqIwsQ6Ldk3uN/5Of/GT01owqtfJFDw/NVa9KWVCti00PnomyhDwA0xMGMj/cB+aCR8pgRAGcLOYZECMv58ssZ5xRjGUIoFBZIQEKwtrlGc94RnXyySdXX/7yl0MxWB+ogKRhDo/y4mJQhKnMGRqZftJl4n6NI4dz3Vb4bBztuPlSXvgDPDS13Gy44wyk+d7HvAXTAaWk8VVUXZQbFyPgvQ2u6+lIhKEoHIJUcbiHMO8lLMM0+gHXUk5vGPl4vZig3owsnDQ4/fTTY83CSQLWdksBSPcxSRf0ggqKYqicKiuKwbF6wlFqetM3vvGNcdzkV37lV2JKsvbaa096CY20pMN1JBDkSxpAHNeWSbiGYz7GLRYYVTAWjrhsv/32ceqZk8acrCZ8rjcUFhrFWGYJFBYl1mDWWGONIJTj3nvvjTchUWIV+uCDD6522GGHOLLOlirKlKdsTmPIT+MxLhuL5eGSt6PVYgE+IHhldN11113j3Bzn5+BtKUzDirHMAXIPLzQiXkXGIIhDcQBKTRzvnBxwwAHVC1/4wurZz352KBcvfeX88KNoGo6jEOHEk49xiwHKF/AGX3/xF39RHXrooVEnnrUAOg87gnFFMZYhkHt1Gh/XHlMDIFwlhuxVUaLVV189pmorr7xypOH5TMby5curPffcM4xnk002iXf1GaU0GlzBNTCOshZ6ZKHMDMrnVDFvRZ555pnRGfCwFh6VzzijGMsQoMEhFRS/xgJUWpVCBTct/hyHIa233nrxyi7TNbZbCTPdzjvvHNOZXXbZJaZspGXkAZZLOvmCpsJ08cPCugjyv+WWW6pnPetZ8fow09B2mnFGMZYhgDKg5O3RJEMDEabBCExLfDsvFv2MIquttlqMTvTQLJRz/vvtt18Yz/Of//wwng033DB22kjTxUsbpJkrdJVF/rxyzVdlmILxlZvpeBonFGMZMThtA0zb6KFROHaUIBUeQ3vd615X7bTTTtU222wTL3zxmSGMjrUB+ZBWwyRP7oE0rjayYnMfeQDu7TJ2QH6C8OOPP7465phjYucPY+de0i4FoynGMoJQAVE+wDWjDW864nLNV2J4Mg5UxoMOOii2qbfYYotY87jTlpUdQ+J+rzUK3Kz4gjTk77ZwhnGA+/mQBqPfFVdcEesVeCzGUjAvQGlRLqASqmQoMgqZFY+Rhx6c9Q5fiNG4SLPmmmvGMx42C7baaquYtrHeyWkE+WEMGBbPQtqnkDUKDUrjA4QRzzWvOfMRQka4u+66qwl3WjnuKMYy4kA5UTrInt/rPOVik4D1DrttKDwLbcJJh0Jvt9121d577x0PR/lqJdM21kggjyikxRjIGwPhJAJGRD4amH5c4KhzxhlnVPvvv3+sV9jpIx/TEE+6cUYxljECCpqVVJcwlBEjwUBUdgyCcAwA4xGk4cHovvvuG98UY9rGh/3cpgYYkMpN+rahEIffUYgjLkcddVScj3NkaRvhuKMYywjBUQRoGABFI5x4lS4rryBMZTYv0jMyMOow+riG4WOBpiH9S1/60njO4wNS1hx8lA9DceQAjDT4uQ8iD4hpIOsk7nn00UcjrXnjLgUUYxkxoHggG0VWNuKNc2pDGtCllKYRGgjTNTYMGBk46MgnVTNe+9rXxieMOJaD8XASAUOQP/LA6Mib7evLLrus2mOPPZbkLlgGtSk0glQr2xNemqp7+knXUxH345JHOx/jIH6Hx0fU+Z9MbRgTy5Yta+Ll4Xd+53fic0pXXXVV/Def9/kzTjzxxEjvV1wyn7XBTipvXKmMLAWTwLSr1v1Yv/CMh502Tg8zUgBGFkaSAw88ME4W84yHLWq+Q3DOOefECMSWsWkdBZcCirEUTEJWcPz1iBDTL7adXcyz3slgh42p1z333BOG5JoFcD/GtxRQjKWgAaNKHkFQchU9GxEHQVnvYESsWTAeRyTS5LSE48doDBtXFGMp6ERWeBSdaw3J0QIXY2DU4XQxIDxvKhRjKViSyAYCUHSgkbSh0QAMhHRcmw/3tw1snFGMpWAguozHEcXRgjR5a5ow0B5hlgJ+/oi1oKCGyg7aI4GjhKMH0Bi8Js772vePO8rIUtDAqZKuwBAMc6TJadojECDM+JzXOKMYS0FBT5RpWEFBTxRjKSjoiWIsBQU9UYyloKAnirEUFPREMZaCgp4oxlJQ0BPFWAoKeqIYS0FBTxRjKSjoiWIsBQU9UYyloKAnirEUFPREMZaCgp4oxlJQ0BPFWAoKeqIYS0FBTxRjKSjoiWIsBQU9UYyloKAnirEUFPRCVf0/x9gdXE/bhgcAAAAASUVORK5CYII=;direction=north;" vertex="1" parent="1">
          <mxGeometry x="207.60500000000002" y="728.505" width="23.79" height="23" as="geometry" />
        </mxCell>
        <mxCell id="EQOgW9wFtIj6ZhYMa9qf-43" value="&lt;div&gt;&lt;span&gt;- UI para elegir cliente/servidor&lt;/span&gt;&lt;/div&gt;" style="rounded=1;whiteSpace=wrap;html=1;fontSize=9;strokeWidth=1;align=center;" vertex="1" parent="1">
          <mxGeometry x="225" y="770" width="120" height="60" as="geometry" />
        </mxCell>
        <mxCell id="EQOgW9wFtIj6ZhYMa9qf-45" value="" style="curved=1;endArrow=classic;html=1;rounded=0;fontSize=9;strokeColor=default;entryX=0;entryY=0.5;entryDx=0;entryDy=0;" edge="1" parent="1" target="EQOgW9wFtIj6ZhYMa9qf-39">
          <mxGeometry width="50" height="50" relative="1" as="geometry">
            <mxPoint x="110" y="810" as="sourcePoint" />
            <mxPoint x="290" y="670" as="targetPoint" />
            <Array as="points">
              <mxPoint x="110" y="810" />
              <mxPoint x="60" y="720" />
            </Array>
          </mxGeometry>
        </mxCell>
        <mxCell id="EQOgW9wFtIj6ZhYMa9qf-46" value="&lt;span style=&quot;text-align: left&quot;&gt;Podríamos con simpleza integrar una escena para testear con unity salteando MST, solo usando mirror.&lt;/span&gt;&lt;br style=&quot;text-align: left&quot;&gt;&lt;span style=&quot;text-align: left&quot;&gt;Pero que comparta los componentes fundamentales, para reflejar un comportamiento reliable a un caso de uso con MST&lt;/span&gt;" style="rounded=0;whiteSpace=wrap;html=1;fontSize=9;strokeWidth=1;fillColor=#E6E6E6;strokeColor=none;" vertex="1" parent="1">
          <mxGeometry x="40" y="810" width="150" height="100" as="geometry" />
        </mxCell>
      </root>
    </mxGraphModel>
  </diagram>
</mxfile>
